<?xml version="1.0" encoding="UTF-8" standalone="no"?>
<svg
   xmlns:dc="http://purl.org/dc/elements/1.1/"
   xmlns:cc="http://creativecommons.org/ns#"
   xmlns:rdf="http://www.w3.org/1999/02/22-rdf-syntax-ns#"
   xmlns:svg="http://www.w3.org/2000/svg"
   xmlns="http://www.w3.org/2000/svg"
   xmlns:sodipodi="http://sodipodi.sourceforge.net/DTD/sodipodi-0.dtd"
   xmlns:inkscape="http://www.inkscape.org/namespaces/inkscape"
   version="1.1"
   viewBox="0 0 299.4758 155.53149"
   fill="none"
   stroke="none"
   stroke-linecap="square"
   stroke-miterlimit="10"
   id="svg209"
   sodipodi:docname="functions_dep_tasks.svg"
   inkscape:version="1.0.1 (3bc2e813f5, 2020-09-07)"
   width="299.4758"
   height="155.53149"
   inkscape:export-filename="/home/mirko/Task-based-parallelism/content/img/functions_dep_tasks.png"
   inkscape:export-xdpi="120"
   inkscape:export-ydpi="120">
  <metadata
     id="metadata215">
    <rdf:RDF>
      <cc:Work
         rdf:about="">
        <dc:format>image/svg+xml</dc:format>
        <dc:type
           rdf:resource="http://purl.org/dc/dcmitype/StillImage" />
        <dc:title />
      </cc:Work>
    </rdf:RDF>
  </metadata>
  <defs
     id="defs213" />
  <sodipodi:namedview
     pagecolor="#ffffff"
     bordercolor="#666666"
     borderopacity="1"
     objecttolerance="10"
     gridtolerance="10"
     guidetolerance="10"
     inkscape:pageopacity="0"
     inkscape:pageshadow="2"
     inkscape:window-width="3840"
     inkscape:window-height="2067"
     id="namedview211"
     showgrid="false"
     inkscape:zoom="2.7148148"
     inkscape:cx="28.390952"
     inkscape:cy="-56.337226"
     inkscape:window-x="0"
     inkscape:window-y="0"
     inkscape:window-maximized="1"
     inkscape:current-layer="svg209"
     fit-margin-top="0"
     fit-margin-left="0"
     fit-margin-right="0"
     fit-margin-bottom="0"
     inkscape:document-rotation="0" />
  <clipPath
     id="g24d203dcf6_0_410.0">
    <path
       d="M 0,0 H 960 V 540 H 0 Z"
       clip-rule="nonzero"
       id="path2" />
  </clipPath>
  <path
     fill="#93c47d"
     d="m 170.563,41.33597 v 0 c 0,-11.06311 20.12958,-20.03149 44.96063,-20.03149 v 0 c 24.83106,0 44.96063,8.96838 44.96063,20.03149 v 0 c 0,11.06308 -20.12957,20.03149 -44.96063,20.03149 v 0 c -24.83105,0 -44.96063,-8.96841 -44.96063,-20.03149 z"
     fill-rule="evenodd"
     id="path89" />
  <path
     stroke="#595959"
     stroke-width="1"
     stroke-linejoin="round"
     stroke-linecap="butt"
     d="m 170.563,41.33597 v 0 c 0,-11.06311 20.12958,-20.03149 44.96063,-20.03149 v 0 c 24.83106,0 44.96063,8.96838 44.96063,20.03149 v 0 c 0,11.06308 -20.12957,20.03149 -44.96063,20.03149 v 0 c -24.83105,0 -44.96063,-8.96841 -44.96063,-20.03149 z"
     fill-rule="evenodd"
     id="path91" />
  <path
     fill="#eeeeee"
     d="M 0.5,6.57482 H 78.67322 V 39.42521 H 0.5 Z"
     fill-rule="evenodd"
     id="path93" />
  <path
     stroke="#595959"
     stroke-width="1"
     stroke-linejoin="round"
     stroke-linecap="butt"
     d="M 0.5,6.57482 H 78.67322 V 39.42521 H 0.5 Z"
     fill-rule="evenodd"
     id="path95" />
  <path
     fill="#000000"
     fill-opacity="0"
     d="m 170.5604,24.91077 h 89.92127 v 32.8504 H 170.5604 Z"
     fill-rule="evenodd"
     id="path97" />
  <path
     fill="#ffe599"
     d="M 0.5,6.57482 H 78.67322 V 39.42521 H 0.5 Z"
     fill-rule="evenodd"
     id="path101" />
  <path
     fill="#000000"
     d="m 41.271,27.51545 q -0.65625,0.5625 -1.26563,0.79688 -0.59375,0.21875 -1.28125,0.21875 -1.14062,0 -1.75,-0.54688 -0.60937,-0.5625 -0.60937,-1.4375 0,-0.5 0.21875,-0.92187 0.23437,-0.42188 0.60937,-0.67188 0.375,-0.25 0.84375,-0.39062 0.34375,-0.0781 1.04688,-0.17188 1.42187,-0.17187 2.09375,-0.40625 0,-0.23437 0,-0.29687 0,-0.71875 -0.32813,-1.01563 -0.45312,-0.39062 -1.34375,-0.39062 -0.8125,0 -1.21875,0.29687 -0.39062,0.28125 -0.57812,1.01563 l -1.14063,-0.15625 q 0.15625,-0.73438 0.51563,-1.1875 0.35937,-0.45313 1.03125,-0.6875 0.67187,-0.25 1.5625,-0.25 0.89062,0 1.4375,0.20312 0.5625,0.20313 0.8125,0.53125 0.26562,0.3125 0.375,0.79688 0.0469,0.29687 0.0469,1.07812 v 1.5625 q 0,1.625 0.0781,2.0625 0.0781,0.4375 0.29687,0.82813 H 41.50537 Q 41.31787,28.01545 41.271,27.51545 Z m -0.0937,-2.60937 q -0.64063,0.26562 -1.92188,0.4375 -0.71875,0.10937 -1.01562,0.25 -0.29688,0.125 -0.46875,0.375 -0.15625,0.25 -0.15625,0.54687 0,0.46875 0.34375,0.78125 0.35937,0.3125 1.04687,0.3125 0.67188,0 1.20313,-0.29687 0.53125,-0.29688 0.78125,-0.8125 0.1875,-0.39063 0.1875,-1.17188 z"
     fill-rule="nonzero"
     id="path103" />
  <path
     fill="#eeeeee"
     d="m 24.5,46.5748 h 78.17322 V 79.4252 H 24.5 Z"
     fill-rule="evenodd"
     id="path105" />
  <path
     stroke="#595959"
     stroke-width="1"
     stroke-linejoin="round"
     stroke-linecap="butt"
     d="m 24.5,46.5748 h 78.17322 V 79.4252 H 24.5 Z"
     fill-rule="evenodd"
     id="path107" />
  <path
     fill="#f1c232"
     d="m 24.5,46.5748 h 78.17322 V 79.4252 H 24.5 Z"
     fill-rule="evenodd"
     id="path109" />
  <path
     fill="#000000"
     d="m 61.8335,68.37483 h -1.07813 v -9.54688 h 1.17188 v 3.40625 q 0.73437,-0.92187 1.89062,-0.92187 0.64063,0 1.20313,0.26562 0.57812,0.25 0.9375,0.71875 0.375,0.45313 0.57812,1.10938 0.20313,0.65625 0.20313,1.40625 0,1.78125 -0.875,2.75 -0.875,0.96875 -2.10938,0.96875 -1.21875,0 -1.92187,-1.01563 z m 0,-3.5 q 0,1.23437 0.32812,1.78125 0.5625,0.90625 1.5,0.90625 0.76563,0 1.32813,-0.65625 0.5625,-0.67188 0.5625,-2 0,-1.34375 -0.54688,-1.98438 -0.53125,-0.65625 -1.29687,-0.65625 -0.76563,0 -1.32813,0.67188 -0.54687,0.67187 -0.54687,1.9375 z"
     fill-rule="nonzero"
     id="path111" />
  <path
     fill="#6d9eeb"
     d="m 170.563,135 v 0 c 0,-11.06308 20.12958,-20.03149 44.96063,-20.03149 v 0 c 24.83106,0 44.96063,8.96841 44.96063,20.03149 v 0 c 0,11.06308 -20.12957,20.03149 -44.96063,20.03149 v 0 C 190.69258,155.03149 170.563,146.06308 170.563,135 Z"
     fill-rule="evenodd"
     id="path113" />
  <path
     stroke="#595959"
     stroke-width="1"
     stroke-linejoin="round"
     stroke-linecap="butt"
     d="m 170.563,135 v 0 c 0,-11.06308 20.12958,-20.03149 44.96063,-20.03149 v 0 c 24.83106,0 44.96063,8.96841 44.96063,20.03149 v 0 c 0,11.06308 -20.12957,20.03149 -44.96063,20.03149 v 0 C 190.69258,155.03149 170.563,146.06308 170.563,135 Z"
     fill-rule="evenodd"
     id="path115" />
  <path
     fill="#000000"
     fill-opacity="0"
     d="m 170.025,118.5748 h 91.90552 v 32.8504 H 170.025 Z"
     fill-rule="evenodd"
     id="path117" />
  <path
     fill="#000000"
     fill-opacity="0"
     d="m 78.67324,23 91.90552,18.33072"
     fill-rule="evenodd"
     id="path129" />
  <path
     stroke="#595959"
     stroke-width="1"
     stroke-linejoin="round"
     stroke-linecap="butt"
     stroke-dasharray="1, 3"
     d="m 78.67324,23 86.02142,17.1571"
     fill-rule="evenodd"
     id="path131" />
  <path
     fill="#595959"
     stroke="#595959"
     stroke-width="1"
     stroke-linecap="butt"
     d="m 164.3716,41.77695 4.7735,-0.73218 -4.12738,-2.50747 z"
     fill-rule="evenodd"
     id="path133" />
  <path
     fill="#000000"
     fill-opacity="0"
     d="m 102.67324,63 79.93701,-8.09448"
     fill-rule="evenodd"
     id="path135" />
  <path
     fill="#000000"
     fill-opacity="0"
     d="m 78.67324,135 h 91.90552"
     fill-rule="evenodd"
     id="path143" />
  <path
     fill="#000000"
     fill-opacity="0"
     d="m 215.52364,61.36747 v 53.60629"
     fill-rule="evenodd"
     id="path149" />
  <path
     fill="#000000"
     fill-opacity="0"
     d="m 88.8058,0 h 84.81891 V 32.8504 H 88.8058 Z"
     fill-rule="evenodd"
     id="path191" />
  <path
     fill="#000000"
     fill-opacity="0"
     d="m 112.05666,52.12861 h 96.09448 v 32.8504 h -96.09448 z"
     fill-rule="evenodd"
     id="path195" />
  <path
     fill="#000000"
     fill-opacity="0"
     d="m 82.20736,110.5748 h 84.81891 v 32.8504 H 82.20736 Z"
     fill-rule="evenodd"
     id="path199" />
  <path
     stroke="#595959"
     stroke-width="0.999993"
     stroke-linejoin="round"
     stroke-linecap="butt"
     stroke-dasharray="0.999993, 3"
     d="M 106.92627,62.499359 169.69834,50.870907"
     fill-rule="evenodd"
     id="path875"
     sodipodi:nodetypes="cc"
     style="stroke:#ff0000;stroke-opacity:1" />
  <path
     fill="#595959"
     stroke="#595959"
     stroke-width="1"
     stroke-linecap="butt"
     d="m 169.0943,52.701146 4.22702,-2.335512 -4.73935,-0.927972 z"
     fill-rule="evenodd"
     id="path877"
     style="fill:#ff0000;fill-opacity:1;stroke:#ff0000;stroke-opacity:1" />
  <path
     fill="#000000"
     fill-opacity="0"
     d="M 215.52364,61.367471 V 114.97376"
     fill-rule="evenodd"
     id="path149-3" />
  <path
     stroke="#ff0000"
     stroke-width="2"
     stroke-linejoin="round"
     stroke-linecap="butt"
     d="M 215.52364,61.367471 V 102.97376"
     fill-rule="evenodd"
     id="path151" />
  <path
     fill="#ff0000"
     stroke="#ff0000"
     stroke-width="2"
     stroke-linecap="butt"
     d="m 212.2202,102.97376 3.30347,9.0762 3.30346,-9.0762 z"
     fill-rule="evenodd"
     id="path153" />
  <text
     xml:space="preserve"
     style="font-style:normal;font-weight:normal;font-size:12.8452px;line-height:1.25;font-family:sans-serif;letter-spacing:0px;word-spacing:0px;fill:#000000;fill-opacity:1;stroke:none;stroke-width:1"
     x="195.45486"
     y="45.543571"
     id="text882"><tspan
       sodipodi:role="line"
       id="tspan880"
       x="195.45486"
       y="45.543571"
       style="stroke-width:1">Task 1</tspan></text>
  <text
     xml:space="preserve"
     style="font-style:normal;font-weight:normal;font-size:12.8452px;line-height:1.25;font-family:sans-serif;letter-spacing:0px;word-spacing:0px;fill:#000000;fill-opacity:1;stroke:none;stroke-width:1"
     x="195.74173"
     y="139.26471"
     id="text886"><tspan
       sodipodi:role="line"
       id="tspan884"
       x="195.74173"
       y="139.26471"
       style="stroke-width:1">Task 2</tspan></text>
  <path
     stroke="#595959"
     stroke-width="0.999995"
     stroke-linejoin="round"
     stroke-linecap="butt"
     stroke-dasharray="0.999995, 3"
     d="m 102.67061,69.012832 65.04425,52.563198"
     fill-rule="evenodd"
     id="path906"
     sodipodi:nodetypes="cc"
     style="stroke:#ff0000;stroke-opacity:1" />
  <path
     fill="#595959"
     stroke="#595959"
     stroke-width="1"
     stroke-linecap="butt"
     d="m 168.07689,123.95536 4.59015,1.50093 -2.55148,-4.1003 z"
     fill-rule="evenodd"
     id="path908"
     style="fill:#ff0000;fill-opacity:1;stroke:#ff0000;stroke-opacity:1" />
  <path
     fill="#595959"
     stroke="#595959"
     stroke-width="1"
     stroke-linecap="butt"
     d="m 108.39896,60.511474 -4.28464,2.228026 4.7144,1.047355 z"
     fill-rule="evenodd"
     id="path910"
     style="fill:#ff0000;fill-opacity:1;stroke:#ff0000;stroke-opacity:1" />
  <text
     xml:space="preserve"
     style="font-style:normal;font-weight:normal;font-size:12.8452px;line-height:1.25;font-family:sans-serif;letter-spacing:0px;word-spacing:0px;fill:#000000;fill-opacity:1;stroke:none;stroke-width:1"
     x="220.74249"
     y="90.916862"
     id="text914"><tspan
       sodipodi:role="line"
       x="220.74249"
       y="90.916862"
       style="stroke-width:1"
       id="tspan868">task dependency</tspan></text>
  <text
     xml:space="preserve"
     style="font-style:normal;font-weight:normal;font-size:12.8452px;line-height:1.25;font-family:sans-serif;letter-spacing:0px;word-spacing:0px;fill:#000000;fill-opacity:1;stroke:none;stroke-width:1"
     x="22.667719"
     y="111.86659"
     id="text874"><tspan
       sodipodi:role="line"
       x="22.667719"
       y="111.86659"
       style="stroke-width:1"
       id="tspan872">data dependency</tspan></text>
</svg>
