<?xml version="1.0" encoding="UTF-8" standalone="no"?>
<svg
   xmlns:dc="http://purl.org/dc/elements/1.1/"
   xmlns:cc="http://creativecommons.org/ns#"
   xmlns:rdf="http://www.w3.org/1999/02/22-rdf-syntax-ns#"
   xmlns:svg="http://www.w3.org/2000/svg"
   xmlns="http://www.w3.org/2000/svg"
   xmlns:sodipodi="http://sodipodi.sourceforge.net/DTD/sodipodi-0.dtd"
   xmlns:inkscape="http://www.inkscape.org/namespaces/inkscape"
   version="1.1"
   viewBox="0 0 506.07736 98.335184"
   fill="none"
   stroke="none"
   stroke-linecap="square"
   stroke-miterlimit="10"
   id="svg209"
   sodipodi:docname="functions_nodep_parallel.svg"
   inkscape:version="1.0.1 (3bc2e813f5, 2020-09-07)"
   width="506.07736"
   height="98.335182"
   inkscape:export-filename="/home/mirko/Task-based-parallelism/content/img/functions_nodep_parallel.png"
   inkscape:export-xdpi="120"
   inkscape:export-ydpi="120">
  <metadata
     id="metadata215">
    <rdf:RDF>
      <cc:Work
         rdf:about="">
        <dc:format>image/svg+xml</dc:format>
        <dc:type
           rdf:resource="http://purl.org/dc/dcmitype/StillImage" />
        <dc:title></dc:title>
      </cc:Work>
    </rdf:RDF>
  </metadata>
  <defs
     id="defs213" />
  <sodipodi:namedview
     pagecolor="#ffffff"
     bordercolor="#666666"
     borderopacity="1"
     objecttolerance="10"
     gridtolerance="10"
     guidetolerance="10"
     inkscape:pageopacity="0"
     inkscape:pageshadow="2"
     inkscape:window-width="3840"
     inkscape:window-height="2067"
     id="namedview211"
     showgrid="false"
     inkscape:zoom="2.7148148"
     inkscape:cx="476.71359"
     inkscape:cy="161.32403"
     inkscape:window-x="0"
     inkscape:window-y="0"
     inkscape:window-maximized="1"
     inkscape:current-layer="svg209"
     fit-margin-top="0"
     fit-margin-left="0"
     fit-margin-right="0"
     fit-margin-bottom="0"
     inkscape:document-rotation="0" />
  <clipPath
     id="g24d203dcf6_0_410.0">
    <path
       d="M 0,0 H 960 V 540 H 0 Z"
       clip-rule="nonzero"
       id="path2" />
  </clipPath>
  <path
     fill="#93c47d"
     d="m 269.6561,41.33597 v 0 c 0,-11.06311 20.12958,-20.03149 44.96063,-20.03149 v 0 c 24.83109,0 44.96063,8.96838 44.96063,20.03149 v 0 c 0,11.06308 -20.12954,20.03149 -44.96063,20.03149 v 0 c -24.83105,0 -44.96063,-8.96841 -44.96063,-20.03149 z"
     fill-rule="evenodd"
     id="path21" />
  <path
     stroke="#595959"
     stroke-width="1"
     stroke-linejoin="round"
     stroke-linecap="butt"
     d="m 269.6561,41.33597 v 0 c 0,-11.06311 20.12958,-20.03149 44.96063,-20.03149 v 0 c 24.83109,0 44.96063,8.96838 44.96063,20.03149 v 0 c 0,11.06308 -20.12954,20.03149 -44.96063,20.03149 v 0 c -24.83105,0 -44.96063,-8.96841 -44.96063,-20.03149 z"
     fill-rule="evenodd"
     id="path23" />
  <path
     fill="#eeeeee"
     d="M 99.593141,6.57482 H 177.76637 V 39.42521 H 99.593141 Z"
     fill-rule="evenodd"
     id="path25" />
  <path
     stroke="#595959"
     stroke-width="1"
     stroke-linejoin="round"
     stroke-linecap="butt"
     d="M 99.593141,6.57482 H 177.76637 V 39.42521 H 99.593141 Z"
     fill-rule="evenodd"
     id="path27" />
  <path
     fill="#000000"
     fill-opacity="0"
     d="m 274.72438,24.91077 h 79.93698 v 32.8504 h -79.93698 z"
     fill-rule="evenodd"
     id="path29" />
  <path
     fill="#000000"
     d="m 288.80238,46.71076 v -6 h -1.03125 v -0.90625 h 1.03125 v -0.73437 q 0,-0.70313 0.125,-1.04688 0.17187,-0.45312 0.59375,-0.73437 0.42187,-0.28125 1.20312,-0.28125 0.48438,0 1.09375,0.10937 l -0.1875,1.03125 q -0.35937,-0.0625 -0.6875,-0.0625 -0.53125,0 -0.75,0.23438 -0.21875,0.21875 -0.21875,0.84375 v 0.64062 h 1.34375 v 0.90625 h -1.34375 v 6 z m 7.95297,0 v -1.01562 q -0.8125,1.17187 -2.1875,1.17187 -0.60937,0 -1.14062,-0.23437 -0.53125,-0.23438 -0.79688,-0.57813 -0.25,-0.35937 -0.35937,-0.875 -0.0625,-0.34375 -0.0625,-1.09375 v -4.28125 h 1.17187 v 3.82813 q 0,0.92187 0.0625,1.23437 0.10938,0.46875 0.46875,0.73438 0.35938,0.25 0.89063,0.25 0.51562,0 0.98437,-0.26563 0.46875,-0.26562 0.65625,-0.73437 0.1875,-0.46875 0.1875,-1.34375 v -3.70313 h 1.17188 v 6.90625 z m 2.88123,0 v -6.90625 h 1.0625 v 0.98438 q 0.75,-1.14063 2.1875,-1.14063 0.625,0 1.15625,0.21875 0.53125,0.21875 0.78125,0.59375 0.26562,0.35938 0.375,0.85938 0.0625,0.32812 0.0625,1.14062 v 4.25 h -1.17188 v -4.20312 q 0,-0.71875 -0.14062,-1.0625 -0.14063,-0.35938 -0.48438,-0.5625 -0.34375,-0.21875 -0.8125,-0.21875 -0.75,0 -1.29687,0.46875 -0.54688,0.46875 -0.54688,1.79687 v 3.78125 z m 11.9281,-2.53125 1.15625,0.15625 q -0.1875,1.1875 -0.96875,1.85938 -0.78125,0.67187 -1.92188,0.67187 -1.40625,0 -2.28125,-0.92187 -0.85937,-0.9375 -0.85937,-2.65625 0,-1.125 0.375,-1.96875 0.375,-0.84375 1.125,-1.25 0.76562,-0.42188 1.65625,-0.42188 1.125,0 1.84375,0.57813 0.71875,0.5625 0.92187,1.60937 l -1.14062,0.17188 q -0.17188,-0.70313 -0.59375,-1.04688 -0.40625,-0.35937 -0.98438,-0.35937 -0.89062,0 -1.45312,0.64062 -0.54688,0.64063 -0.54688,2 0,1.40625 0.53125,2.03125 0.54688,0.625 1.40625,0.625 0.6875,0 1.14063,-0.42187 0.46875,-0.42188 0.59375,-1.29688 z m 4.71094,1.48438 0.17187,1.03125 q -0.5,0.10937 -0.89062,0.10937 -0.64063,0 -1,-0.20312 -0.34375,-0.20313 -0.48438,-0.53125 -0.14062,-0.32813 -0.14062,-1.39063 v -3.96875 h -0.85938 v -0.90625 h 0.85938 v -1.71875 l 1.17187,-0.70312 v 2.42187 h 1.17188 v 0.90625 h -1.17188 v 4.04688 q 0,0.5 0.0469,0.64062 0.0625,0.14063 0.20312,0.23438 0.14063,0.0781 0.40625,0.0781 0.20313,0 0.51563,-0.0469 z m 1.15612,-7.14063 v -1.35937 h 1.17188 v 1.35937 z m 0,8.1875 v -6.90625 h 1.17188 v 6.90625 z m 2.50797,-3.45312 q 0,-1.92188 1.07812,-2.84375 0.89063,-0.76563 2.17188,-0.76563 1.42187,0 2.32812,0.9375 0.90625,0.92188 0.90625,2.57813 0,1.32812 -0.40625,2.09375 -0.39062,0.76562 -1.15625,1.1875 -0.76562,0.42187 -1.67187,0.42187 -1.45313,0 -2.35938,-0.92187 -0.89062,-0.9375 -0.89062,-2.6875 z m 1.20312,0 q 0,1.32812 0.57813,1.98437 0.59375,0.65625 1.46875,0.65625 0.875,0 1.45312,-0.65625 0.57813,-0.67187 0.57813,-2.03125 0,-1.28125 -0.59375,-1.9375 -0.57813,-0.65625 -1.4375,-0.65625 -0.875,0 -1.46875,0.65625 -0.57813,0.65625 -0.57813,1.98438 z m 6.64686,3.45312 v -6.90625 h 1.0625 v 0.98438 q 0.75,-1.14063 2.1875,-1.14063 0.625,0 1.15625,0.21875 0.53125,0.21875 0.78125,0.59375 0.26562,0.35938 0.375,0.85938 0.0625,0.32812 0.0625,1.14062 v 4.25 h -1.17188 v -4.20312 q 0,-0.71875 -0.14062,-1.0625 -0.14063,-0.35938 -0.48438,-0.5625 -0.34375,-0.21875 -0.8125,-0.21875 -0.75,0 -1.29687,0.46875 -0.54688,0.46875 -0.54688,1.79687 v 3.78125 z m 11.50622,0 h -1.17187 v -7.46875 q -0.42188,0.40625 -1.10938,0.8125 -0.6875,0.40625 -1.23437,0.60938 v -1.14063 q 0.98437,-0.45312 1.71875,-1.10937 0.73437,-0.67188 1.03125,-1.28125 h 0.76562 z"
     fill-rule="nonzero"
     id="path31" />
  <path
     fill="#ffe599"
     d="M 99.593141,6.57482 H 177.76637 V 39.42521 H 99.593141 Z"
     fill-rule="evenodd"
     id="path33" />
  <path
     fill="#000000"
     d="m 140.36413,27.51545 q -0.65625,0.5625 -1.26563,0.79688 -0.59375,0.21875 -1.28125,0.21875 -1.14062,0 -1.75,-0.54688 -0.60937,-0.5625 -0.60937,-1.4375 0,-0.5 0.21875,-0.92187 0.23437,-0.42188 0.60937,-0.67188 0.375,-0.25 0.84375,-0.39062 0.34375,-0.0781 1.04688,-0.17188 1.42187,-0.17187 2.09375,-0.40625 0,-0.23437 0,-0.29687 0,-0.71875 -0.32813,-1.01563 -0.45312,-0.39062 -1.34375,-0.39062 -0.8125,0 -1.21875,0.29687 -0.39062,0.28125 -0.57812,1.01563 L 135.661,23.43733 q 0.15625,-0.73438 0.51563,-1.1875 0.35937,-0.45313 1.03125,-0.6875 0.67187,-0.25 1.5625,-0.25 0.89062,0 1.4375,0.20312 0.5625,0.20313 0.8125,0.53125 0.26562,0.3125 0.375,0.79688 0.0469,0.29687 0.0469,1.07812 v 1.5625 q 0,1.625 0.0781,2.0625 0.0781,0.4375 0.29687,0.82813 h -1.21875 q -0.1875,-0.35938 -0.23437,-0.85938 z m -0.0937,-2.60937 q -0.64063,0.26562 -1.92188,0.4375 -0.71875,0.10937 -1.01562,0.25 -0.29688,0.125 -0.46875,0.375 -0.15625,0.25 -0.15625,0.54687 0,0.46875 0.34375,0.78125 0.35937,0.3125 1.04687,0.3125 0.67188,0 1.20313,-0.29687 0.53125,-0.29688 0.78125,-0.8125 0.1875,-0.39063 0.1875,-1.17188 z"
     fill-rule="nonzero"
     id="path35" />
  <path
     fill="#eeeeee"
     d="m 123.59314,46.5748 h 78.17323 v 32.850402 h -78.17323 z"
     fill-rule="evenodd"
     id="path37" />
  <path
     stroke="#595959"
     stroke-width="1"
     stroke-linejoin="round"
     stroke-linecap="butt"
     d="m 123.59314,46.5748 h 78.17323 v 32.850402 h -78.17323 z"
     fill-rule="evenodd"
     id="path39" />
  <path
     fill="#f1c232"
     d="m 123.59314,46.5748 h 78.17323 v 32.850402 h -78.17323 z"
     fill-rule="evenodd"
     id="path41" />
  <path
     fill="#000000"
     d="m 160.92665,68.37483 h -1.07813 v -9.54688 h 1.17188 v 3.40625 q 0.73437,-0.92187 1.89062,-0.92187 0.64063,0 1.20313,0.26562 0.57812,0.25 0.9375,0.71875 0.375,0.45313 0.57812,1.10938 0.20313,0.65625 0.20313,1.40625 0,1.78125 -0.875,2.75 -0.875,0.96875 -2.10938,0.96875 -1.21875,0 -1.92187,-1.01563 z m 0,-3.5 q 0,1.23437 0.32812,1.78125 0.5625,0.90625 1.5,0.90625 0.76563,0 1.32813,-0.65625 0.5625,-0.67188 0.5625,-2 0,-1.34375 -0.54688,-1.98438 -0.53125,-0.65625 -1.29687,-0.65625 -0.76563,0 -1.32813,0.67188 -0.54687,0.67187 -0.54687,1.9375 z"
     fill-rule="nonzero"
     id="path43" />
  <path
     fill="#6d9eeb"
     d="m 415.6561,41.42521 v 0 c 0,-11.06308 20.12958,-20.03149 44.96063,-20.03149 v 0 c 24.83109,0 44.96063,8.96841 44.96063,20.03149 v 0 c 0,11.06308 -20.12954,20.03149 -44.96063,20.03149 v 0 c -24.83105,0 -44.96063,-8.96841 -44.96063,-20.03149 z"
     fill-rule="evenodd"
     id="path45" />
  <path
     stroke="#595959"
     stroke-width="1"
     stroke-linejoin="round"
     stroke-linecap="butt"
     d="m 415.6561,41.42521 v 0 c 0,-11.06308 20.12958,-20.03149 44.96063,-20.03149 v 0 c 24.83109,0 44.96063,8.96841 44.96063,20.03149 v 0 c 0,11.06308 -20.12954,20.03149 -44.96063,20.03149 v 0 c -24.83105,0 -44.96063,-8.96841 -44.96063,-20.03149 z"
     fill-rule="evenodd"
     id="path47" />
  <path
     fill="#000000"
     fill-opacity="0"
     d="m 415.67186,25.00001 h 89.92126 v 32.8504 h -89.92126 z"
     fill-rule="evenodd"
     id="path49" />
  <path
     fill="#000000"
     d="m 434.742,46.80004 v -6 h -1.03125 v -0.90625 h 1.03125 v -0.73438 q 0,-0.70312 0.125,-1.04687 0.17188,-0.45313 0.59375,-0.73438 0.42188,-0.28125 1.20313,-0.28125 0.48437,0 1.09375,0.10938 l -0.1875,1.03125 q -0.35938,-0.0625 -0.6875,-0.0625 -0.53125,0 -0.75,0.23437 -0.21875,0.21875 -0.21875,0.84375 v 0.64063 h 1.34375 v 0.90625 h -1.34375 v 6 z m 7.953,0 v -1.01563 q -0.8125,1.17188 -2.1875,1.17188 -0.60937,0 -1.14062,-0.23438 -0.53125,-0.23437 -0.79688,-0.57812 -0.25,-0.35938 -0.35937,-0.875 -0.0625,-0.34375 -0.0625,-1.09375 V 39.89379 H 439.32 v 3.82812 q 0,0.92188 0.0625,1.23438 0.10938,0.46875 0.46875,0.73437 0.35938,0.25 0.89063,0.25 0.51562,0 0.98437,-0.26562 0.46875,-0.26563 0.65625,-0.73438 0.1875,-0.46875 0.1875,-1.34375 v -3.70312 h 1.17188 v 6.90625 z m 2.88123,0 v -6.90625 h 1.0625 v 0.98437 q 0.75,-1.14062 2.1875,-1.14062 0.625,0 1.15625,0.21875 0.53125,0.21875 0.78125,0.59375 0.26562,0.35937 0.375,0.85937 0.0625,0.32813 0.0625,1.14063 v 4.25 h -1.17188 v -4.20313 q 0,-0.71875 -0.14062,-1.0625 -0.14063,-0.35937 -0.48438,-0.5625 -0.34375,-0.21875 -0.8125,-0.21875 -0.75,0 -1.29687,0.46875 -0.54688,0.46875 -0.54688,1.79688 v 3.78125 z m 11.9281,-2.53125 1.15625,0.15625 q -0.1875,1.1875 -0.96875,1.85937 -0.78125,0.67188 -1.92188,0.67188 -1.40625,0 -2.28125,-0.92188 -0.85937,-0.9375 -0.85937,-2.65625 0,-1.125 0.375,-1.96875 0.375,-0.84375 1.125,-1.25 0.76562,-0.42187 1.65625,-0.42187 1.125,0 1.84375,0.57812 0.71875,0.5625 0.92187,1.60938 l -1.14062,0.17187 q -0.17188,-0.70312 -0.59375,-1.04687 -0.40625,-0.35938 -0.98438,-0.35938 -0.89062,0 -1.45312,0.64063 -0.54688,0.64062 -0.54688,2 0,1.40625 0.53125,2.03125 0.54688,0.625 1.40625,0.625 0.6875,0 1.14063,-0.42188 0.46875,-0.42187 0.59375,-1.29687 z m 4.71094,1.48437 0.17187,1.03125 q -0.5,0.10938 -0.89062,0.10938 -0.64063,0 -1,-0.20313 -0.34375,-0.20312 -0.48438,-0.53125 -0.14062,-0.32812 -0.14062,-1.39062 v -3.96875 h -0.85938 v -0.90625 h 0.85938 v -1.71875 l 1.17187,-0.70313 v 2.42188 h 1.17188 v 0.90625 h -1.17188 v 4.04687 q 0,0.5 0.0469,0.64063 0.0625,0.14062 0.20312,0.23437 0.14063,0.0781 0.40625,0.0781 0.20313,0 0.51563,-0.0469 z m 1.15609,-7.14062 v -1.35938 h 1.17188 v 1.35938 z m 0,8.1875 v -6.90625 h 1.17188 v 6.90625 z m 2.50797,-3.45313 q 0,-1.92187 1.07812,-2.84375 0.89063,-0.76562 2.17188,-0.76562 1.42187,0 2.32812,0.9375 0.90625,0.92187 0.90625,2.57812 0,1.32813 -0.40625,2.09375 -0.39062,0.76563 -1.15625,1.1875 -0.76562,0.42188 -1.67187,0.42188 -1.45313,0 -2.35938,-0.92188 -0.89062,-0.9375 -0.89062,-2.6875 z m 1.20312,0 q 0,1.32813 0.57813,1.98438 0.59375,0.65625 1.46875,0.65625 0.875,0 1.45312,-0.65625 0.57813,-0.67188 0.57813,-2.03125 0,-1.28125 -0.59375,-1.9375 -0.57813,-0.65625 -1.4375,-0.65625 -0.875,0 -1.46875,0.65625 -0.57813,0.65625 -0.57813,1.98437 z m 6.64686,3.45313 v -6.90625 h 1.0625 v 0.98437 q 0.75,-1.14062 2.1875,-1.14062 0.625,0 1.15625,0.21875 0.53125,0.21875 0.78125,0.59375 0.26562,0.35937 0.375,0.85937 0.0625,0.32813 0.0625,1.14063 v 4.25 h -1.17188 v -4.20313 q 0,-0.71875 -0.14062,-1.0625 -0.14063,-0.35937 -0.48438,-0.5625 -0.34375,-0.21875 -0.8125,-0.21875 -0.75,0 -1.29687,0.46875 -0.54688,0.46875 -0.54688,1.79688 v 3.78125 z m 13.2406,-1.125 v 1.125 h -6.29688 q -0.0156,-0.42188 0.14063,-0.8125 0.23437,-0.64063 0.76562,-1.26563 0.53125,-0.625 1.53125,-1.45312 1.5625,-1.26563 2.10938,-2.01563 0.54687,-0.75 0.54687,-1.40625 0,-0.70312 -0.5,-1.17187 -0.5,-0.48438 -1.29687,-0.48438 -0.85938,0 -1.375,0.51563 -0.5,0.5 -0.5,1.39062 l -1.20313,-0.10937 q 0.125,-1.35938 0.92188,-2.0625 0.8125,-0.70313 2.17187,-0.70313 1.375,0 2.17188,0.76563 0.8125,0.75 0.8125,1.875 0,0.57812 -0.23438,1.14062 -0.23437,0.54688 -0.78125,1.15625 -0.54687,0.60938 -1.8125,1.67188 -1.04687,0.89062 -1.35937,1.21875 -0.29688,0.3125 -0.48438,0.625 z"
     fill-rule="nonzero"
     id="path51" />
  <path
     fill="#000000"
     fill-opacity="0"
     d="m 177.76637,23 91.90549,18.33072"
     fill-rule="evenodd"
     id="path61" />
  <path
     stroke="#595959"
     stroke-width="1"
     stroke-linejoin="round"
     stroke-linecap="butt"
     stroke-dasharray="1, 3"
     d="m 177.76637,23 86.02139,17.1571"
     fill-rule="evenodd"
     id="path63" />
  <path
     fill="#595959"
     stroke="#595959"
     stroke-width="1"
     stroke-linecap="butt"
     d="m 263.4647,41.77695 4.7735,-0.73218 -4.12735,-2.50747 z"
     fill-rule="evenodd"
     id="path65" />
  <path
     fill="#000000"
     fill-opacity="0"
     d="m 201.76637,63 79.93701,-8.09448"
     fill-rule="evenodd"
     id="path67" />
  <path
     stroke="#595959"
     stroke-width="1"
     stroke-linejoin="round"
     stroke-linecap="butt"
     stroke-dasharray="1, 3"
     d="m 201.76637,63 73.9675,-7.49002"
     fill-rule="evenodd"
     id="path69" />
  <path
     fill="#595959"
     stroke="#595959"
     stroke-width="1"
     stroke-linecap="butt"
     d="m 275.9003,57.15333 4.3486,-2.10053 -4.68142,-1.18612 z"
     fill-rule="evenodd"
     id="path71" />
  <path
     fill="#595959"
     stroke="#595959"
     stroke-width="1"
     stroke-linecap="butt"
     d="m 423.56319,60.05401 3.10426,-3.6995 -4.756,0.83861 z"
     fill-rule="evenodd"
     id="path77"
     inkscape:transform-center-x="2.3997687"
     inkscape:transform-center-y="0.3831083" />
  <path
     stroke="#595959"
     stroke-width="1"
     stroke-linejoin="round"
     stroke-linecap="butt"
     d="M 52.73486,1.14699 V 86.231815"
     fill-rule="evenodd"
     id="path81"
     style="stroke-width:2;stroke-miterlimit:10;stroke-dasharray:none" />
  <path
     fill="#595959"
     stroke="#595959"
     stroke-width="2"
     stroke-linecap="butt"
     d="m 49.4314,86.312352 3.30347,9.0762 3.30346,-9.0762 z"
     fill-rule="evenodd"
     id="path83" />
  <path
     fill="#000000"
     d="m 4.48437,83.632362 0.23438,1.45312 q -0.6875,0.14063 -1.23438,0.14063 -0.89062,0 -1.39062,-0.28125 -0.48438,-0.28125 -0.6875,-0.73438 -0.20313,-0.46875 -0.20313,-1.9375 V 76.69486 H 0 v -1.26563 h 1.20312 v -2.39062 l 1.625,-0.98438 v 3.375 h 1.65625 v 1.26563 H 2.82812 v 5.671872 q 0,0.6875 0.0781,0.89063 0.0937,0.20312 0.28125,0.32812 0.20312,0.10938 0.57812,0.10938 0.26563,0 0.71875,-0.0625 z M 6.08955,73.63236 v -1.89063 h 1.64062 v 1.89063 z m 0,11.468752 V 75.42923 h 1.64062 v 9.671882 z m 4.14482,0 V 75.42923 h 1.46875 v 1.35938 q 0.45312,-0.71875 1.20312,-1.14063 0.76563,-0.4375 1.71875,-0.4375 1.07813,0 1.76563,0.45313 0.6875,0.4375 0.96875,1.23437 1.15625,-1.6875 2.98437,-1.6875 1.45313,0 2.21875,0.79688 0.78125,0.79687 0.78125,2.453122 v 6.64063 h -1.64062 v -6.09375 q 0,-0.98438 -0.15625,-1.40625 -0.15625,-0.4375 -0.57813,-0.703132 -0.42187,-0.26562 -0.98437,-0.26562 -1.01563,0 -1.6875,0.687502 -0.67188,0.67187 -0.67188,2.15625 v 5.625 h -1.64062 v -6.28125 q 0,-1.09375 -0.40625,-1.64063 -0.40625,-0.546872 -1.3125,-0.546872 -0.6875,0 -1.28125,0.35937 -0.59375,0.359382 -0.85938,1.062502 -0.25,0.70313 -0.25,2.03125 v 5.01563 z m 22.1658,-3.10938 1.6875,0.20313 q -0.40625,1.48437 -1.48437,2.3125 -1.07813,0.8125 -2.76563,0.8125 -2.125,0 -3.375,-1.29688 -1.23437,-1.3125 -1.23437,-3.67187 0,-2.45313 1.25,-3.796882 1.26562,-1.34375 3.26562,-1.34375 1.9375,0 3.15625,1.32813 1.23438,1.312502 1.23438,3.703122 0,0.15625 0,0.4375 H 26.9158 q 0.0937,1.59375 0.90625,2.45313 0.8125,0.84375 2.01562,0.84375 0.90625,0 1.54688,-0.46875 0.64062,-0.48438 1.01562,-1.51563 z m -5.39062,-2.65625 h 5.40625 q -0.10938,-1.21875 -0.625,-1.82812 -0.78125,-0.953132 -2.03125,-0.953132 -1.125,0 -1.90625,0.765632 -0.76563,0.75 -0.84375,2.01562 z"
     fill-rule="nonzero"
     id="path87" />
  <path
     fill="#000000"
     fill-opacity="0"
     d="m 181.3018,0 h 84.81888 V 32.8504 H 181.3018 Z"
     fill-rule="evenodd"
     id="path179" />
  <path
     fill="#3d85c6"
     d="m 193.31743,15.4419 v 1.25 q 0.95312,-0.875 1.42187,-1.125 0.48438,-0.25 0.89063,-0.25 0.4375,0 0.8125,0.29687 0.39062,0.29688 0.39062,0.45313 0,0.10937 -0.0781,0.1875 -0.0781,0.0625 -0.1875,0.0625 -0.0469,0 -0.0937,-0.0156 -0.0469,-0.0156 -0.15625,-0.125 -0.20313,-0.20312 -0.35938,-0.28125 -0.14062,-0.0781 -0.29687,-0.0781 -0.3125,0 -0.78125,0.26562 -0.45313,0.25 -1.5625,1.25 v 2.6875 h 2.17187 q 0.1875,0 0.26563,0.0781 0.0781,0.0625 0.0781,0.17187 0,0.10938 -0.0781,0.1875 -0.0781,0.0625 -0.26563,0.0625 H 191.63 q -0.17188,0 -0.25,-0.0625 -0.0781,-0.0781 -0.0781,-0.17187 0,-0.10938 0.0781,-0.17188 0.0781,-0.0625 0.25,-0.0625 h 1.1875 v -4.10937 h -0.90625 q -0.17188,0 -0.25,-0.0625 -0.0781,-0.0781 -0.0781,-0.1875 0,-0.10938 0.0781,-0.17188 0.0781,-0.0781 0.25,-0.0781 z m 10.45117,2.65625 h -5.01562 q 0.125,0.95312 0.79687,1.54687 0.67188,0.57813 1.65625,0.57813 0.5625,0 1.15625,-0.17188 0.60938,-0.1875 0.98438,-0.5 0.10937,-0.0781 0.20312,-0.0781 0.0937,0 0.15625,0.0781 0.0781,0.0625 0.0781,0.17188 0,0.0937 -0.0937,0.1875 -0.28125,0.29687 -1,0.54687 -0.71875,0.25 -1.48438,0.25 -1.26562,0 -2.10937,-0.82812 -0.84375,-0.82813 -0.84375,-2 0,-1.07813 0.79687,-1.84375 0.79688,-0.76563 1.96875,-0.76563 1.20313,0 1.98438,0.79688 0.78125,0.78125 0.76562,2.03125 z m -0.5,-0.5 q -0.14062,-0.8125 -0.76562,-1.3125 -0.625,-0.51563 -1.48438,-0.51563 -0.85937,0 -1.48437,0.5 -0.625,0.5 -0.78125,1.32813 z m 6.45117,2.92187 V 19.8169 q -1.07812,0.89062 -2.29687,0.89062 -0.875,0 -1.375,-0.4375 -0.5,-0.45312 -0.5,-1.10937 0,-0.70313 0.65625,-1.23438 0.65625,-0.54687 1.92187,-0.54687 0.32813,0 0.71875,0.0469 0.40625,0.0469 0.875,0.14063 v -0.79688 q 0,-0.40625 -0.375,-0.70312 -0.375,-0.29688 -1.125,-0.29688 -0.57812,0 -1.60937,0.32813 -0.1875,0.0625 -0.23438,0.0625 -0.0937,0 -0.17187,-0.0625 -0.0625,-0.0781 -0.0625,-0.1875 0,-0.0937 0.0625,-0.15625 0.0781,-0.0937 0.65625,-0.23438 0.92187,-0.25 1.39062,-0.25 0.92188,0 1.4375,0.46875 0.53125,0.45313 0.53125,1.03125 v 3.25 h 0.65625 q 0.1875,0 0.25,0.0781 0.0781,0.0625 0.0781,0.17187 0,0.10938 -0.0781,0.1875 -0.0625,0.0625 -0.25,0.0625 z m 0,-2.45312 q -0.34375,-0.0937 -0.73437,-0.14063 -0.39063,-0.0469 -0.8125,-0.0469 -1.07813,0 -1.67188,0.45312 -0.45312,0.35938 -0.45312,0.82813 0,0.45312 0.34375,0.76562 0.34375,0.29688 1.01562,0.29688 0.64063,0 1.1875,-0.25 0.54688,-0.26563 1.125,-0.8125 z m 8.20118,-4.90625 v 6.85937 h 0.65625 q 0.17187,0 0.25,0.0781 0.0781,0.0625 0.0781,0.17187 0,0.10938 -0.0781,0.1875 -0.0781,0.0625 -0.25,0.0625 h -1.15625 v -0.98437 q -0.85938,1.17187 -2.17188,1.17187 -0.67187,0 -1.28125,-0.34375 -0.60937,-0.35937 -0.96875,-1.01562 -0.35937,-0.65625 -0.35937,-1.35938 0,-0.70312 0.35937,-1.34375 0.35938,-0.65625 0.96875,-1.01562 0.60938,-0.35938 1.28125,-0.35938 1.29688,0 2.17188,1.17188 v -2.78125 h -0.65625 q -0.1875,0 -0.26563,-0.0625 -0.0625,-0.0781 -0.0625,-0.1875 0,-0.10938 0.0625,-0.17188 0.0781,-0.0781 0.26563,-0.0781 z m -0.5,4.82812 q 0,-0.9375 -0.64063,-1.57812 -0.625,-0.64063 -1.5,-0.64063 -0.875,0 -1.51562,0.64063 -0.625,0.64062 -0.625,1.57812 0,0.9375 0.625,1.59375 0.64062,0.64063 1.51562,0.64063 0.875,0 1.5,-0.64063 0.64063,-0.65625 0.64063,-1.59375 z"
     fill-rule="nonzero"
     id="path181" />
  <path
     fill="#000000"
     fill-opacity="0"
     d="m 206.11543,52.12861 h 84.81891 v 32.850402 h -84.81891 z"
     fill-rule="evenodd"
     id="path183" />
  <path
     fill="#3d85c6"
     d="m 218.13106,67.5705 v 1.25 q 0.95312,-0.875 1.42187,-1.125 0.48438,-0.25 0.89063,-0.25 0.4375,0 0.8125,0.29687 0.39062,0.29688 0.39062,0.45313 0,0.10937 -0.0781,0.1875 -0.0781,0.0625 -0.1875,0.0625 -0.0469,0 -0.0937,-0.0156 -0.0469,-0.0156 -0.15625,-0.125 -0.20313,-0.20312 -0.35938,-0.28125 -0.14062,-0.0781 -0.29687,-0.0781 -0.3125,0 -0.78125,0.26562 -0.45313,0.25 -1.5625,1.25 v 2.6875 h 2.17187 q 0.1875,0 0.26563,0.0781 0.0781,0.0625 0.0781,0.17187 0,0.10938 -0.0781,0.1875 -0.0781,0.0625 -0.26563,0.0625 h -3.85937 q -0.17188,0 -0.25,-0.0625 -0.0781,-0.0781 -0.0781,-0.17187 0,-0.10938 0.0781,-0.17188 0.0781,-0.0625 0.25,-0.0625 h 1.1875 v -4.10937 h -0.90625 q -0.17188,0 -0.25,-0.0625 -0.0781,-0.0781 -0.0781,-0.1875 0,-0.10938 0.0781,-0.17188 0.0781,-0.0781 0.25,-0.0781 z m 10.45117,2.65625 h -5.01562 q 0.125,0.95312 0.79687,1.54687 0.67188,0.57813 1.65625,0.57813 0.5625,0 1.15625,-0.17188 0.60938,-0.1875 0.98438,-0.5 0.10937,-0.0781 0.20312,-0.0781 0.0937,0 0.15625,0.0781 0.0781,0.0625 0.0781,0.17188 0,0.0937 -0.0937,0.1875 -0.28125,0.29687 -1,0.54687 -0.71875,0.25 -1.48438,0.25 -1.26562,0 -2.10937,-0.82812 -0.84375,-0.82813 -0.84375,-2 0,-1.07813 0.79687,-1.84375 0.79688,-0.76563 1.96875,-0.76563 1.20313,0 1.98438,0.79688 0.78125,0.78125 0.76562,2.03125 z m -0.5,-0.5 q -0.14062,-0.8125 -0.76562,-1.3125 -0.625,-0.51563 -1.48438,-0.51563 -0.85937,0 -1.48437,0.5 -0.625,0.5 -0.78125,1.32813 z m 6.45117,2.92187 V 71.9455 q -1.07812,0.89062 -2.29687,0.89062 -0.875,0 -1.375,-0.4375 -0.5,-0.45312 -0.5,-1.10937 0,-0.70313 0.65625,-1.23438 0.65625,-0.54687 1.92187,-0.54687 0.32813,0 0.71875,0.0469 0.40625,0.0469 0.875,0.14063 v -0.79688 q 0,-0.40625 -0.375,-0.70312 -0.375,-0.29688 -1.125,-0.29688 -0.57812,0 -1.60937,0.32813 -0.1875,0.0625 -0.23438,0.0625 -0.0937,0 -0.17187,-0.0625 -0.0625,-0.0781 -0.0625,-0.1875 0,-0.0937 0.0625,-0.15625 0.0781,-0.0937 0.65625,-0.23438 0.92187,-0.25 1.39062,-0.25 0.92188,0 1.4375,0.46875 0.53125,0.45313 0.53125,1.03125 v 3.25 h 0.65625 q 0.1875,0 0.25,0.0781 0.0781,0.0625 0.0781,0.17187 0,0.10938 -0.0781,0.1875 -0.0625,0.0625 -0.25,0.0625 z m 0,-2.45312 q -0.34375,-0.0937 -0.73437,-0.14063 -0.39063,-0.0469 -0.8125,-0.0469 -1.07813,0 -1.67188,0.45312 -0.45312,0.35938 -0.45312,0.82813 0,0.45312 0.34375,0.76562 0.34375,0.29688 1.01562,0.29688 0.64063,0 1.1875,-0.25 0.54688,-0.26563 1.125,-0.8125 z m 8.20118,-4.90625 v 6.85937 h 0.65625 q 0.17187,0 0.25,0.0781 0.0781,0.0625 0.0781,0.17187 0,0.10938 -0.0781,0.1875 -0.0781,0.0625 -0.25,0.0625 h -1.15625 v -0.98437 q -0.85938,1.17187 -2.17188,1.17187 -0.67187,0 -1.28125,-0.34375 -0.60937,-0.35937 -0.96875,-1.01562 -0.35937,-0.65625 -0.35937,-1.35938 0,-0.70312 0.35937,-1.34375 0.35938,-0.65625 0.96875,-1.01562 0.60938,-0.35938 1.28125,-0.35938 1.29688,0 2.17188,1.17188 v -2.78125 h -0.65625 q -0.1875,0 -0.26563,-0.0625 -0.0625,-0.0781 -0.0625,-0.1875 0,-0.10938 0.0625,-0.17188 0.0781,-0.0781 0.26563,-0.0781 z m -0.5,4.82812 q 0,-0.9375 -0.64063,-1.57812 -0.625,-0.64063 -1.5,-0.64063 -0.875,0 -1.51562,0.64063 -0.625,0.64062 -0.625,1.57812 0,0.9375 0.625,1.59375 0.64062,0.64063 1.51562,0.64063 0.875,0 1.5,-0.64063 0.64063,-0.65625 0.64063,-1.59375 z"
     fill-rule="nonzero"
     id="path185" />
  <path
     fill="#3d85c6"
     d="m 210.83661,93.069565 v 1.25 q 0.95312,-0.875 1.42187,-1.125 0.48438,-0.25 0.89063,-0.25 0.4375,0 0.8125,0.29687 0.39062,0.29688 0.39062,0.45313 0,0.10937 -0.0781,0.1875 -0.0781,0.0625 -0.1875,0.0625 -0.0469,0 -0.0937,-0.0156 -0.0469,-0.0156 -0.15625,-0.125 -0.20313,-0.20312 -0.35938,-0.28125 -0.14062,-0.0781 -0.29687,-0.0781 -0.3125,0 -0.78125,0.26562 -0.45313,0.25 -1.5625,1.25 v 2.6875 h 2.17187 q 0.1875,0 0.26563,0.0781 0.0781,0.0625 0.0781,0.17187 0,0.10938 -0.0781,0.1875 -0.0781,0.0625 -0.26563,0.0625 h -3.85937 q -0.17188,0 -0.25,-0.0625 -0.0781,-0.0781 -0.0781,-0.17187 0,-0.10938 0.0781,-0.17188 0.0781,-0.0625 0.25,-0.0625 h 1.1875 v -4.10937 h -0.90625 q -0.17188,0 -0.25,-0.0625 -0.0781,-0.0781 -0.0781,-0.1875 0,-0.10938 0.0781,-0.17188 0.0781,-0.0781 0.25,-0.0781 z m 10.45117,2.65625 h -5.01562 q 0.125,0.95312 0.79687,1.54687 0.67188,0.57813 1.65625,0.57813 0.5625,0 1.15625,-0.17188 0.60938,-0.1875 0.98438,-0.5 0.10937,-0.0781 0.20312,-0.0781 0.0937,0 0.15625,0.0781 0.0781,0.0625 0.0781,0.17188 0,0.0937 -0.0937,0.1875 -0.28125,0.29687 -1,0.54687 -0.71875,0.25 -1.48438,0.25 -1.26562,0 -2.10937,-0.82812 -0.84375,-0.82813 -0.84375,-2 0,-1.07813 0.79687,-1.84375 0.79688,-0.76563 1.96875,-0.76563 1.20313,0 1.98438,0.79688 0.78125,0.78125 0.76562,2.03125 z m -0.5,-0.5 q -0.14062,-0.8125 -0.76562,-1.3125 -0.625,-0.51563 -1.48438,-0.51563 -0.85937,0 -1.48437,0.5 -0.625,0.5 -0.78125,1.32813 z m 6.45117,2.92187 v -0.70312 q -1.07812,0.89062 -2.29687,0.89062 -0.875,0 -1.375,-0.4375 -0.5,-0.45312 -0.5,-1.10937 0,-0.70313 0.65625,-1.23438 0.65625,-0.54687 1.92187,-0.54687 0.32813,0 0.71875,0.0469 0.40625,0.0469 0.875,0.14063 v -0.79688 q 0,-0.40625 -0.375,-0.70312 -0.375,-0.29688 -1.125,-0.29688 -0.57812,0 -1.60937,0.32813 -0.1875,0.0625 -0.23438,0.0625 -0.0937,0 -0.17187,-0.0625 -0.0625,-0.0781 -0.0625,-0.1875 0,-0.0937 0.0625,-0.15625 0.0781,-0.0937 0.65625,-0.23438 0.92187,-0.25 1.39062,-0.25 0.92188,0 1.4375,0.46875 0.53125,0.45313 0.53125,1.03125 v 3.25 h 0.65625 q 0.1875,0 0.25,0.0781 0.0781,0.0625 0.0781,0.17187 0,0.10938 -0.0781,0.1875 -0.0625,0.0625 -0.25,0.0625 z m 0,-2.45312 q -0.34375,-0.0937 -0.73437,-0.14063 -0.39063,-0.0469 -0.8125,-0.0469 -1.07813,0 -1.67188,0.45312 -0.45312,0.35938 -0.45312,0.82813 0,0.45312 0.34375,0.76562 0.34375,0.29688 1.01562,0.29688 0.64063,0 1.1875,-0.25 0.54688,-0.26563 1.125,-0.8125 z m 8.20118,-4.90625 v 6.85937 h 0.65625 q 0.17187,0 0.25,0.0781 0.0781,0.0625 0.0781,0.17187 0,0.10938 -0.0781,0.1875 -0.0781,0.0625 -0.25,0.0625 h -1.15625 v -0.98437 q -0.85938,1.17187 -2.17188,1.17187 -0.67187,0 -1.28125,-0.34375 -0.60937,-0.35937 -0.96875,-1.01562 -0.35937,-0.65625 -0.35937,-1.35938 0,-0.70312 0.35937,-1.34375 0.35938,-0.65625 0.96875,-1.01562 0.60938,-0.35938 1.28125,-0.35938 1.29688,0 2.17188,1.17188 v -2.78125 h -0.65625 q -0.1875,0 -0.26563,-0.0625 -0.0625,-0.0781 -0.0625,-0.1875 0,-0.10938 0.0625,-0.17188 0.0781,-0.0781 0.26563,-0.0781 z m -0.5,4.82812 q 0,-0.9375 -0.64063,-1.57812 -0.625,-0.64063 -1.5,-0.64063 -0.875,0 -1.51562,0.64063 -0.625,0.64062 -0.625,1.57812 0,0.9375 0.625,1.59375 0.64062,0.64063 1.51562,0.64063 0.875,0 1.5,-0.64063 0.64063,-0.65625 0.64063,-1.59375 z"
     fill-rule="nonzero"
     id="path189" />
  <path
     stroke="#595959"
     stroke-width="0.999997"
     stroke-linejoin="round"
     stroke-linecap="butt"
     stroke-dasharray="0.999997, 3"
     d="m 200.99813,75.50845 c 0,0 56.95289,21.060906 94.04573,20.486946 52.88112,-0.81826 128.56008,-37.757876 128.56008,-37.757876"
     fill-rule="evenodd"
     id="path889"
     sodipodi:nodetypes="csc" />
</svg>
