<?xml version="1.0" encoding="UTF-8" standalone="no"?>
<svg
   xmlns:dc="http://purl.org/dc/elements/1.1/"
   xmlns:cc="http://creativecommons.org/ns#"
   xmlns:rdf="http://www.w3.org/1999/02/22-rdf-syntax-ns#"
   xmlns:svg="http://www.w3.org/2000/svg"
   xmlns="http://www.w3.org/2000/svg"
   xmlns:sodipodi="http://sodipodi.sourceforge.net/DTD/sodipodi-0.dtd"
   xmlns:inkscape="http://www.inkscape.org/namespaces/inkscape"
   version="1.1"
   viewBox="0 0 370.35175 166.31236"
   fill="none"
   stroke="none"
   stroke-linecap="square"
   stroke-miterlimit="10"
   id="svg209"
   sodipodi:docname="functions_dep_explicit.svg"
   inkscape:version="1.0.1 (3bc2e813f5, 2020-09-07)"
   width="370.35175"
   height="166.31236"
   inkscape:export-filename="/home/mirko/Task-based-parallelism/content/img/functions_dep_explicit.png"
   inkscape:export-xdpi="120"
   inkscape:export-ydpi="120">
  <metadata
     id="metadata215">
    <rdf:RDF>
      <cc:Work
         rdf:about="">
        <dc:format>image/svg+xml</dc:format>
        <dc:type
           rdf:resource="http://purl.org/dc/dcmitype/StillImage" />
        <dc:title></dc:title>
      </cc:Work>
    </rdf:RDF>
  </metadata>
  <defs
     id="defs213" />
  <sodipodi:namedview
     pagecolor="#ffffff"
     bordercolor="#666666"
     borderopacity="1"
     objecttolerance="10"
     gridtolerance="10"
     guidetolerance="10"
     inkscape:pageopacity="0"
     inkscape:pageshadow="2"
     inkscape:window-width="3840"
     inkscape:window-height="2067"
     id="namedview211"
     showgrid="false"
     inkscape:zoom="3.8393279"
     inkscape:cx="352.14518"
     inkscape:cy="11.663154"
     inkscape:window-x="0"
     inkscape:window-y="0"
     inkscape:window-maximized="1"
     inkscape:current-layer="svg209"
     fit-margin-top="0"
     fit-margin-left="0"
     fit-margin-right="0"
     fit-margin-bottom="0"
     inkscape:document-rotation="0" />
  <clipPath
     id="g24d203dcf6_0_410.0">
    <path
       d="M 0,0 H 960 V 540 H 0 Z"
       clip-rule="nonzero"
       id="path2" />
  </clipPath>
  <g
     id="g889"
     transform="translate(-41.889116,0.4201034)">
    <path
       fill="#cc0000"
       d="m 233.93784,102.51688 v 1.25 q 0.95313,-0.875 1.42188,-1.125 0.48437,-0.25 0.89062,-0.25 0.4375,0 0.8125,0.29687 0.39063,0.29688 0.39063,0.45313 0,0.10937 -0.0781,0.1875 -0.0781,0.0625 -0.1875,0.0625 -0.0469,0 -0.0937,-0.0156 -0.0469,-0.0156 -0.15625,-0.125 -0.20312,-0.20312 -0.35937,-0.28125 -0.14063,-0.0781 -0.29688,-0.0781 -0.3125,0 -0.78125,0.26562 -0.45312,0.25 -1.5625,1.25 v 2.6875 h 2.17188 q 0.1875,0 0.26562,0.0781 0.0781,0.0625 0.0781,0.17187 0,0.10938 -0.0781,0.1875 -0.0781,0.0625 -0.26562,0.0625 h -3.85946 q -0.17187,0 -0.25,-0.0625 -0.0781,-0.0781 -0.0781,-0.17187 0,-0.10938 0.0781,-0.17188 0.0781,-0.0625 0.25,-0.0625 h 1.1875 v -4.10937 h -0.90625 q -0.17187,0 -0.25,-0.0625 -0.0781,-0.0781 -0.0781,-0.1875 0,-0.10938 0.0781,-0.17188 0.0781,-0.0781 0.25,-0.0781 z m 10.45117,2.65625 h -5.01562 q 0.125,0.95312 0.79687,1.54687 0.67188,0.57813 1.65625,0.57813 0.5625,0 1.15625,-0.17188 0.60938,-0.1875 0.98438,-0.5 0.10937,-0.0781 0.20312,-0.0781 0.0937,0 0.15625,0.0781 0.0781,0.0625 0.0781,0.17188 0,0.0937 -0.0937,0.1875 -0.28125,0.29687 -1,0.54687 -0.71875,0.25 -1.48438,0.25 -1.26562,0 -2.10937,-0.82812 -0.84375,-0.82813 -0.84375,-2 0,-1.07813 0.79687,-1.84375 0.79688,-0.76563 1.96875,-0.76563 1.20313,0 1.98438,0.79688 0.78125,0.78125 0.76562,2.03125 z m -0.5,-0.5 q -0.14062,-0.8125 -0.76562,-1.3125 -0.625,-0.51563 -1.48438,-0.51563 -0.85937,0 -1.48437,0.5 -0.625,0.5 -0.78125,1.32813 z m 6.45117,2.92187 v -0.70312 q -1.07812,0.89062 -2.29687,0.89062 -0.875,0 -1.375,-0.4375 -0.5,-0.45312 -0.5,-1.10937 0,-0.70313 0.65625,-1.23438 0.65625,-0.54687 1.92187,-0.54687 0.32813,0 0.71875,0.0469 0.40625,0.0469 0.875,0.14063 v -0.79688 q 0,-0.40625 -0.375,-0.70312 -0.375,-0.29688 -1.125,-0.29688 -0.57812,0 -1.60937,0.32813 -0.1875,0.0625 -0.23438,0.0625 -0.0937,0 -0.17187,-0.0625 -0.0625,-0.0781 -0.0625,-0.1875 0,-0.0937 0.0625,-0.15625 0.0781,-0.0937 0.65625,-0.23438 0.92187,-0.25 1.39062,-0.25 0.92188,0 1.4375,0.46875 0.53125,0.45313 0.53125,1.03125 v 3.25 h 0.65625 q 0.1875,0 0.25,0.0781 0.0781,0.0625 0.0781,0.17187 0,0.10938 -0.0781,0.1875 -0.0625,0.0625 -0.25,0.0625 z m 0,-2.45312 q -0.34375,-0.0937 -0.73437,-0.14063 -0.39063,-0.0469 -0.8125,-0.0469 -1.07813,0 -1.67188,0.45312 -0.45312,0.35938 -0.45312,0.82813 0,0.45312 0.34375,0.76562 0.34375,0.29688 1.01562,0.29688 0.64063,0 1.1875,-0.25 0.54688,-0.26563 1.125,-0.8125 z m 8.20118,-4.90625 v 6.85937 h 0.65625 q 0.17187,0 0.25,0.0781 0.0781,0.0625 0.0781,0.17187 0,0.10938 -0.0781,0.1875 -0.0781,0.0625 -0.25,0.0625 h -1.15625 v -0.98437 q -0.85938,1.17187 -2.17188,1.17187 -0.67187,0 -1.28125,-0.34375 -0.60937,-0.35937 -0.96875,-1.01562 -0.35937,-0.65625 -0.35937,-1.35938 0,-0.70312 0.35937,-1.34375 0.35938,-0.65625 0.96875,-1.01562 0.60938,-0.35938 1.28125,-0.35938 1.29688,0 2.17188,1.17188 v -2.78125 h -0.65625 q -0.1875,0 -0.26563,-0.0625 -0.0625,-0.0781 -0.0625,-0.1875 0,-0.10938 0.0625,-0.17188 0.0781,-0.0781 0.26563,-0.0781 z m -0.5,4.82812 q 0,-0.9375 -0.64063,-1.57812 -0.625,-0.64063 -1.5,-0.64063 -0.875,0 -1.51562,0.64063 -0.625,0.64062 -0.625,1.57812 0,0.9375 0.625,1.59375 0.64062,0.64063 1.51562,0.64063 0.875,0 1.5,-0.64063 0.64063,-0.65625 0.64063,-1.59375 z m 7.79492,-1.21875 v 0.70313 h -5.01563 V 103.845 Z m 6.38867,3.75 h -0.60937 l -1.07813,-3.15625 -1.07812,3.15625 h -0.60938 l -1.03125,-4.57812 h -0.23437 q -0.17188,0 -0.25,-0.0625 -0.0781,-0.0781 -0.0781,-0.1875 0,-0.10938 0.0781,-0.17188 0.0781,-0.0781 0.25,-0.0781 h 1.35937 q 0.17188,0 0.25,0.0781 0.0781,0.0625 0.0781,0.17188 0,0.10937 -0.0781,0.1875 -0.0781,0.0625 -0.25,0.0625 h -0.625 l 0.85938,3.90625 1.0625,-3.125 h 0.57812 l 1.07813,3.125 0.84375,-3.90625 h -0.625 q -0.17188,0 -0.25,-0.0625 -0.0781,-0.0781 -0.0781,-0.1875 0,-0.10938 0.0625,-0.17188 0.0781,-0.0781 0.26563,-0.0781 h 1.34375 q 0.1875,0 0.26562,0.0781 0.0781,0.0625 0.0781,0.17188 0,0.10937 -0.0781,0.1875 -0.0781,0.0625 -0.26562,0.0625 h -0.23438 z m 4.91992,-5.07812 v 1.25 q 0.95313,-0.875 1.42188,-1.125 0.48437,-0.25 0.89062,-0.25 0.4375,0 0.8125,0.29687 0.39063,0.29688 0.39063,0.45313 0,0.10937 -0.0781,0.1875 -0.0781,0.0625 -0.1875,0.0625 -0.0469,0 -0.0937,-0.0156 -0.0469,-0.0156 -0.15625,-0.125 -0.20312,-0.20312 -0.35937,-0.28125 -0.14063,-0.0781 -0.29688,-0.0781 -0.3125,0 -0.78125,0.26562 -0.45312,0.25 -1.5625,1.25 v 2.6875 h 2.17188 q 0.1875,0 0.26562,0.0781 0.0781,0.0625 0.0781,0.17187 0,0.10938 -0.0781,0.1875 -0.0781,0.0625 -0.26562,0.0625 h -3.85938 q -0.17187,0 -0.25,-0.0625 -0.0781,-0.0781 -0.0781,-0.17187 0,-0.10938 0.0781,-0.17188 0.0781,-0.0625 0.25,-0.0625 h 1.1875 v -4.10937 h -0.90625 q -0.17187,0 -0.25,-0.0625 -0.0781,-0.0781 -0.0781,-0.1875 0,-0.10938 0.0781,-0.17188 0.0781,-0.0781 0.25,-0.0781 z m 8.0293,-2.51563 v 1.26563 h -0.71875 v -1.26563 z m 0.0156,2.51563 v 4.57812 h 1.9375 q 0.1875,0 0.25,0.0781 0.0781,0.0625 0.0781,0.17187 0,0.10938 -0.0781,0.1875 -0.0625,0.0625 -0.25,0.0625 h -4.35937 q -0.17188,0 -0.25,-0.0625 -0.0781,-0.0781 -0.0781,-0.1875 0,-0.10937 0.0781,-0.17187 0.0781,-0.0781 0.25,-0.0781 h 1.9375 v -4.07812 h -1.4375 q -0.17188,0 -0.26563,-0.0625 -0.0781,-0.0781 -0.0781,-0.1875 0,-0.10938 0.0781,-0.17188 0.0781,-0.0781 0.26563,-0.0781 z m 5.93555,0 h 2.67188 q 0.17187,0 0.25,0.0781 0.0781,0.0625 0.0781,0.17188 0,0.10937 -0.0781,0.1875 -0.0781,0.0625 -0.25,0.0625 h -2.67186 v 3.28125 q 0,0.42187 0.34375,0.71875 0.34375,0.28125 1,0.28125 0.5,0 1.07813,-0.14063 0.57812,-0.15625 0.90625,-0.34375 0.10937,-0.0781 0.1875,-0.0781 0.0937,0 0.15625,0.0781 0.0781,0.0625 0.0781,0.17188 0,0.0781 -0.0781,0.15625 -0.1875,0.1875 -0.90625,0.42187 -0.71875,0.21875 -1.39063,0.21875 -0.85937,0 -1.375,-0.39062 -0.5,-0.40625 -0.5,-1.09375 v -3.28125 h -0.90625 q -0.17187,0 -0.25,-0.0625 -0.0781,-0.0781 -0.0781,-0.1875 0,-0.10938 0.0781,-0.17188 0.0781,-0.0781 0.25,-0.0781 h 0.90625 v -1.45313 q 0,-0.17187 0.0625,-0.25 0.0781,-0.0781 0.1875,-0.0781 0.10938,0 0.17188,0.0781 0.0781,0.0781 0.0781,0.25 z m 10.87305,2.65625 h -5.01563 q 0.125,0.95312 0.79688,1.54687 0.67187,0.57813 1.65625,0.57813 0.5625,0 1.15625,-0.17188 0.60937,-0.1875 0.98437,-0.5 0.10938,-0.0781 0.20313,-0.0781 0.0937,0 0.15625,0.0781 0.0781,0.0625 0.0781,0.17188 0,0.0937 -0.0937,0.1875 -0.28125,0.29687 -1,0.54687 -0.71875,0.25 -1.48437,0.25 -1.26563,0 -2.10938,-0.82812 -0.84375,-0.82813 -0.84375,-2 0,-1.07813 0.79688,-1.84375 0.79687,-0.76563 1.96875,-0.76563 1.20312,0 1.98437,0.79688 0.78125,0.78125 0.76563,2.03125 z m -0.5,-0.5 q -0.14063,-0.8125 -0.76563,-1.3125 -0.625,-0.51563 -1.48437,-0.51563 -0.85938,0 -1.48438,0.5 -0.625,0.5 -0.78125,1.32813 z"
       fill-rule="nonzero"
       id="path197" />
    <rect
       style="fill:#ffffff;stroke:none;stroke-width:2;stroke-miterlimit:10;stop-color:#000000"
       id="rect885"
       width="36.589054"
       height="13.816098"
       x="230.01283"
       y="98.137772" />
  </g>
  <path
     fill="#93c47d"
     d="m 278.98424,41.33597 v 0 c 0,-11.06311 20.12958,-20.03149 44.96063,-20.03149 v 0 c 24.83106,0 44.96063,8.96838 44.96063,20.03149 v 0 c 0,11.06308 -20.12957,20.03149 -44.96063,20.03149 v 0 c -24.83105,0 -44.96063,-8.96841 -44.96063,-20.03149 z"
     fill-rule="evenodd"
     id="path89" />
  <path
     stroke="#595959"
     stroke-width="1"
     stroke-linejoin="round"
     stroke-linecap="butt"
     d="m 278.98424,41.33597 v 0 c 0,-11.06311 20.12958,-20.03149 44.96063,-20.03149 v 0 c 24.83106,0 44.96063,8.96838 44.96063,20.03149 v 0 c 0,11.06308 -20.12957,20.03149 -44.96063,20.03149 v 0 c -24.83105,0 -44.96063,-8.96841 -44.96063,-20.03149 z"
     fill-rule="evenodd"
     id="path91" />
  <path
     fill="#eeeeee"
     d="m 108.92124,6.57482 h 78.17322 v 32.85039 h -78.17322 z"
     fill-rule="evenodd"
     id="path93" />
  <path
     stroke="#595959"
     stroke-width="1"
     stroke-linejoin="round"
     stroke-linecap="butt"
     d="m 108.92124,6.57482 h 78.17322 v 32.85039 h -78.17322 z"
     fill-rule="evenodd"
     id="path95" />
  <path
     fill="#000000"
     fill-opacity="0"
     d="m 278.98164,24.91077 h 89.92127 v 32.8504 h -89.92127 z"
     fill-rule="evenodd"
     id="path97" />
  <path
     fill="#000000"
     d="m 298.05174,46.71076 v -6 h -1.03125 v -0.90625 h 1.03125 v -0.73437 q 0,-0.70313 0.125,-1.04688 0.17187,-0.45312 0.59375,-0.73437 0.42187,-0.28125 1.20312,-0.28125 0.48438,0 1.09375,0.10937 l -0.1875,1.03125 q -0.35937,-0.0625 -0.6875,-0.0625 -0.53125,0 -0.75,0.23438 -0.21875,0.21875 -0.21875,0.84375 v 0.64062 h 1.34375 v 0.90625 h -1.34375 v 6 z m 7.953,0 v -1.01562 q -0.8125,1.17187 -2.1875,1.17187 -0.60937,0 -1.14062,-0.23437 -0.53125,-0.23438 -0.79688,-0.57813 -0.25,-0.35937 -0.35937,-0.875 -0.0625,-0.34375 -0.0625,-1.09375 v -4.28125 h 1.17187 v 3.82813 q 0,0.92187 0.0625,1.23437 0.10938,0.46875 0.46875,0.73438 0.35938,0.25 0.89063,0.25 0.51562,0 0.98437,-0.26563 0.46875,-0.26562 0.65625,-0.73437 0.1875,-0.46875 0.1875,-1.34375 v -3.70313 h 1.17188 v 6.90625 z m 2.88123,0 v -6.90625 h 1.0625 v 0.98438 q 0.75,-1.14063 2.1875,-1.14063 0.625,0 1.15625,0.21875 0.53125,0.21875 0.78125,0.59375 0.26562,0.35938 0.375,0.85938 0.0625,0.32812 0.0625,1.14062 v 4.25 h -1.17188 v -4.20312 q 0,-0.71875 -0.14062,-1.0625 -0.14063,-0.35938 -0.48438,-0.5625 -0.34375,-0.21875 -0.8125,-0.21875 -0.75,0 -1.29687,0.46875 -0.54688,0.46875 -0.54688,1.79687 v 3.78125 z m 11.9281,-2.53125 1.15625,0.15625 q -0.1875,1.1875 -0.96875,1.85938 -0.78125,0.67187 -1.92188,0.67187 -1.40625,0 -2.28125,-0.92187 -0.85937,-0.9375 -0.85937,-2.65625 0,-1.125 0.375,-1.96875 0.375,-0.84375 1.125,-1.25 0.76562,-0.42188 1.65625,-0.42188 1.125,0 1.84375,0.57813 0.71875,0.5625 0.92187,1.60937 l -1.14062,0.17188 q -0.17188,-0.70313 -0.59375,-1.04688 -0.40625,-0.35937 -0.98438,-0.35937 -0.89062,0 -1.45312,0.64062 -0.54688,0.64063 -0.54688,2 0,1.40625 0.53125,2.03125 0.54688,0.625 1.40625,0.625 0.6875,0 1.14063,-0.42187 0.46875,-0.42188 0.59375,-1.29688 z m 4.71094,1.48438 0.17187,1.03125 q -0.5,0.10937 -0.89062,0.10937 -0.64063,0 -1,-0.20312 -0.34375,-0.20313 -0.48438,-0.53125 -0.14062,-0.32813 -0.14062,-1.39063 v -3.96875 h -0.85938 v -0.90625 h 0.85938 v -1.71875 l 1.17187,-0.70312 v 2.42187 h 1.17188 v 0.90625 h -1.17188 v 4.04688 q 0,0.5 0.0469,0.64062 0.0625,0.14063 0.20312,0.23438 0.14063,0.0781 0.40625,0.0781 0.20313,0 0.51563,-0.0469 z m 1.15612,-7.14063 v -1.35937 h 1.17188 v 1.35937 z m 0,8.1875 v -6.90625 h 1.17188 v 6.90625 z m 2.50794,-3.45312 q 0,-1.92188 1.07812,-2.84375 0.89063,-0.76563 2.17188,-0.76563 1.42187,0 2.32812,0.9375 0.90625,0.92188 0.90625,2.57813 0,1.32812 -0.40625,2.09375 -0.39062,0.76562 -1.15625,1.1875 -0.76562,0.42187 -1.67187,0.42187 -1.45313,0 -2.35938,-0.92187 -0.89062,-0.9375 -0.89062,-2.6875 z m 1.20312,0 q 0,1.32812 0.57813,1.98437 0.59375,0.65625 1.46875,0.65625 0.875,0 1.45312,-0.65625 0.57813,-0.67187 0.57813,-2.03125 0,-1.28125 -0.59375,-1.9375 -0.57813,-0.65625 -1.4375,-0.65625 -0.875,0 -1.46875,0.65625 -0.57813,0.65625 -0.57813,1.98438 z m 6.64686,3.45312 v -6.90625 h 1.0625 v 0.98438 q 0.75,-1.14063 2.1875,-1.14063 0.625,0 1.15625,0.21875 0.53125,0.21875 0.78125,0.59375 0.26562,0.35938 0.375,0.85938 0.0625,0.32812 0.0625,1.14062 v 4.25 h -1.17188 v -4.20312 q 0,-0.71875 -0.14062,-1.0625 -0.14063,-0.35938 -0.48438,-0.5625 -0.34375,-0.21875 -0.8125,-0.21875 -0.75,0 -1.29687,0.46875 -0.54688,0.46875 -0.54688,1.79687 v 3.78125 z m 11.50622,0 h -1.17187 v -7.46875 q -0.42188,0.40625 -1.10938,0.8125 -0.6875,0.40625 -1.23437,0.60938 v -1.14063 q 0.98437,-0.45312 1.71875,-1.10937 0.73437,-0.67188 1.03125,-1.28125 h 0.76562 z"
     fill-rule="nonzero"
     id="path99" />
  <path
     fill="#ffe599"
     d="m 108.92124,6.57482 h 78.17322 v 32.85039 h -78.17322 z"
     fill-rule="evenodd"
     id="path101" />
  <path
     fill="#000000"
     d="m 149.69224,27.51545 q -0.65625,0.5625 -1.26563,0.79688 -0.59375,0.21875 -1.28125,0.21875 -1.14062,0 -1.75,-0.54688 -0.60937,-0.5625 -0.60937,-1.4375 0,-0.5 0.21875,-0.92187 0.23437,-0.42188 0.60937,-0.67188 0.375,-0.25 0.84375,-0.39062 0.34375,-0.0781 1.04688,-0.17188 1.42187,-0.17187 2.09375,-0.40625 0,-0.23437 0,-0.29687 0,-0.71875 -0.32813,-1.01563 -0.45312,-0.39062 -1.34375,-0.39062 -0.8125,0 -1.21875,0.29687 -0.39062,0.28125 -0.57812,1.01563 l -1.14063,-0.15625 q 0.15625,-0.73438 0.51563,-1.1875 0.35937,-0.45313 1.03125,-0.6875 0.67187,-0.25 1.5625,-0.25 0.89062,0 1.4375,0.20312 0.5625,0.20313 0.8125,0.53125 0.26562,0.3125 0.375,0.79688 0.0469,0.29687 0.0469,1.07812 v 1.5625 q 0,1.625 0.0781,2.0625 0.0781,0.4375 0.29687,0.82813 h -1.21875 q -0.1875,-0.35938 -0.23437,-0.85938 z m -0.0937,-2.60937 q -0.64063,0.26562 -1.92188,0.4375 -0.71875,0.10937 -1.01562,0.25 -0.29688,0.125 -0.46875,0.375 -0.15625,0.25 -0.15625,0.54687 0,0.46875 0.34375,0.78125 0.35937,0.3125 1.04687,0.3125 0.67188,0 1.20313,-0.29687 0.53125,-0.29688 0.78125,-0.8125 0.1875,-0.39063 0.1875,-1.17188 z"
     fill-rule="nonzero"
     id="path103" />
  <path
     fill="#eeeeee"
     d="m 132.92124,46.5748 h 78.17322 v 32.8504 h -78.17322 z"
     fill-rule="evenodd"
     id="path105" />
  <path
     stroke="#595959"
     stroke-width="1"
     stroke-linejoin="round"
     stroke-linecap="butt"
     d="m 132.92124,46.5748 h 78.17322 v 32.8504 h -78.17322 z"
     fill-rule="evenodd"
     id="path107" />
  <path
     fill="#f1c232"
     d="m 132.92124,46.5748 h 78.17322 v 32.8504 h -78.17322 z"
     fill-rule="evenodd"
     id="path109" />
  <path
     fill="#000000"
     d="m 170.25474,68.37483 h -1.07813 v -9.54688 h 1.17188 v 3.40625 q 0.73437,-0.92187 1.89062,-0.92187 0.64063,0 1.20313,0.26562 0.57812,0.25 0.9375,0.71875 0.375,0.45313 0.57812,1.10938 0.20313,0.65625 0.20313,1.40625 0,1.78125 -0.875,2.75 -0.875,0.96875 -2.10938,0.96875 -1.21875,0 -1.92187,-1.01563 z m 0,-3.5 q 0,1.23437 0.32812,1.78125 0.5625,0.90625 1.5,0.90625 0.76563,0 1.32813,-0.65625 0.5625,-0.67188 0.5625,-2 0,-1.34375 -0.54688,-1.98438 -0.53125,-0.65625 -1.29687,-0.65625 -0.76563,0 -1.32813,0.67188 -0.54687,0.67187 -0.54687,1.9375 z"
     fill-rule="nonzero"
     id="path111" />
  <path
     fill="#6d9eeb"
     d="m 278.98424,135 v 0 c 0,-11.06308 20.12958,-20.03149 44.96063,-20.03149 v 0 c 24.83106,0 44.96063,8.96841 44.96063,20.03149 v 0 c 0,11.06308 -20.12957,20.03149 -44.96063,20.03149 v 0 c -24.83105,0 -44.96063,-8.96841 -44.96063,-20.03149 z"
     fill-rule="evenodd"
     id="path113" />
  <path
     stroke="#595959"
     stroke-width="1"
     stroke-linejoin="round"
     stroke-linecap="butt"
     d="m 278.98424,135 v 0 c 0,-11.06308 20.12958,-20.03149 44.96063,-20.03149 v 0 c 24.83106,0 44.96063,8.96841 44.96063,20.03149 v 0 c 0,11.06308 -20.12957,20.03149 -44.96063,20.03149 v 0 c -24.83105,0 -44.96063,-8.96841 -44.96063,-20.03149 z"
     fill-rule="evenodd"
     id="path115" />
  <path
     fill="#000000"
     fill-opacity="0"
     d="m 278.44624,118.5748 h 91.90552 v 32.8504 h -91.90552 z"
     fill-rule="evenodd"
     id="path117" />
  <path
     fill="#000000"
     d="m 298.50848,140.37483 v -6 h -1.03125 v -0.90625 h 1.03125 v -0.73438 q 0,-0.70312 0.125,-1.04687 0.17187,-0.45313 0.59375,-0.73438 0.42187,-0.28125 1.20312,-0.28125 0.48438,0 1.09375,0.10938 l -0.1875,1.03125 q -0.35937,-0.0625 -0.6875,-0.0625 -0.53125,0 -0.75,0.23437 -0.21875,0.21875 -0.21875,0.84375 v 0.64063 h 1.34375 v 0.90625 h -1.34375 v 6 z m 7.95294,0 v -1.01563 q -0.8125,1.17188 -2.1875,1.17188 -0.60937,0 -1.14062,-0.23438 -0.53125,-0.23437 -0.79688,-0.57812 -0.25,-0.35938 -0.35937,-0.875 -0.0625,-0.34375 -0.0625,-1.09375 v -4.28125 h 1.17187 v 3.82812 q 0,0.92188 0.0625,1.23438 0.10938,0.46875 0.46875,0.73437 0.35938,0.25 0.89063,0.25 0.51562,0 0.98437,-0.26562 0.46875,-0.26563 0.65625,-0.73438 0.1875,-0.46875 0.1875,-1.34375 v -3.70312 h 1.17188 v 6.90625 z m 2.88123,0 v -6.90625 h 1.0625 v 0.98437 q 0.75,-1.14062 2.1875,-1.14062 0.625,0 1.15625,0.21875 0.53125,0.21875 0.78125,0.59375 0.26562,0.35937 0.375,0.85937 0.0625,0.32813 0.0625,1.14063 v 4.25 h -1.17188 v -4.20313 q 0,-0.71875 -0.14062,-1.0625 -0.14063,-0.35937 -0.48438,-0.5625 -0.34375,-0.21875 -0.8125,-0.21875 -0.75,0 -1.29687,0.46875 -0.54688,0.46875 -0.54688,1.79688 v 3.78125 z m 11.9281,-2.53125 1.15625,0.15625 q -0.1875,1.1875 -0.96875,1.85937 -0.78125,0.67188 -1.92188,0.67188 -1.40625,0 -2.28125,-0.92188 -0.85937,-0.9375 -0.85937,-2.65625 0,-1.125 0.375,-1.96875 0.375,-0.84375 1.125,-1.25 0.76562,-0.42187 1.65625,-0.42187 1.125,0 1.84375,0.57812 0.71875,0.5625 0.92187,1.60938 l -1.14062,0.17187 q -0.17188,-0.70312 -0.59375,-1.04687 -0.40625,-0.35938 -0.98438,-0.35938 -0.89062,0 -1.45312,0.64063 -0.54688,0.64062 -0.54688,2 0,1.40625 0.53125,2.03125 0.54688,0.625 1.40625,0.625 0.6875,0 1.14063,-0.42188 0.46875,-0.42187 0.59375,-1.29687 z m 4.71094,1.48437 0.17187,1.03125 q -0.5,0.10938 -0.89062,0.10938 -0.64063,0 -1,-0.20313 -0.34375,-0.20312 -0.48438,-0.53125 -0.14062,-0.32812 -0.14062,-1.39062 v -3.96875 h -0.85938 v -0.90625 h 0.85938 v -1.71875 l 1.17187,-0.70313 v 2.42188 h 1.17188 v 0.90625 h -1.17188 v 4.04687 q 0,0.5 0.0469,0.64063 0.0625,0.14062 0.20312,0.23437 0.14063,0.0781 0.40625,0.0781 0.20313,0 0.51563,-0.0469 z m 1.15612,-7.14062 v -1.35938 h 1.17188 v 1.35938 z m 0,8.1875 v -6.90625 h 1.17188 v 6.90625 z m 2.508,-3.45313 q 0,-1.92187 1.07812,-2.84375 0.89063,-0.76562 2.17188,-0.76562 1.42187,0 2.32812,0.9375 0.90625,0.92187 0.90625,2.57812 0,1.32813 -0.40625,2.09375 -0.39062,0.76563 -1.15625,1.1875 -0.76562,0.42188 -1.67187,0.42188 -1.45313,0 -2.35938,-0.92188 -0.89062,-0.9375 -0.89062,-2.6875 z m 1.20312,0 q 0,1.32813 0.57813,1.98438 0.59375,0.65625 1.46875,0.65625 0.875,0 1.45312,-0.65625 0.57813,-0.67188 0.57813,-2.03125 0,-1.28125 -0.59375,-1.9375 -0.57813,-0.65625 -1.4375,-0.65625 -0.875,0 -1.46875,0.65625 -0.57813,0.65625 -0.57813,1.98437 z m 6.64686,3.45313 v -6.90625 h 1.0625 v 0.98437 q 0.75,-1.14062 2.1875,-1.14062 0.625,0 1.15625,0.21875 0.53125,0.21875 0.78125,0.59375 0.26562,0.35937 0.375,0.85937 0.0625,0.32813 0.0625,1.14063 v 4.25 h -1.17188 v -4.20313 q 0,-0.71875 -0.14062,-1.0625 -0.14063,-0.35937 -0.48438,-0.5625 -0.34375,-0.21875 -0.8125,-0.21875 -0.75,0 -1.29687,0.46875 -0.54688,0.46875 -0.54688,1.79688 v 3.78125 z m 13.2406,-1.125 v 1.125 h -6.29688 q -0.0156,-0.42188 0.14063,-0.8125 0.23437,-0.64063 0.76562,-1.26563 0.53125,-0.625 1.53125,-1.45312 1.5625,-1.26563 2.10938,-2.01563 0.54687,-0.75 0.54687,-1.40625 0,-0.70312 -0.5,-1.17187 -0.5,-0.48438 -1.29687,-0.48438 -0.85938,0 -1.375,0.51563 -0.5,0.5 -0.5,1.39062 l -1.20313,-0.10937 q 0.125,-1.35938 0.92188,-2.0625 0.8125,-0.70313 2.17187,-0.70313 1.375,0 2.17188,0.76563 0.8125,0.75 0.8125,1.875 0,0.57812 -0.23438,1.14062 -0.23437,0.54688 -0.78125,1.15625 -0.54687,0.60938 -1.8125,1.67188 -1.04687,0.89062 -1.35937,1.21875 -0.29688,0.3125 -0.48438,0.625 z"
     fill-rule="nonzero"
     id="path119" />
  <path
     fill="#eeeeee"
     d="m 108.92124,118.5748 h 78.17322 v 32.8504 h -78.17322 z"
     fill-rule="evenodd"
     id="path121" />
  <path
     stroke="#595959"
     stroke-width="1"
     stroke-linejoin="round"
     stroke-linecap="butt"
     d="m 108.92124,118.5748 h 78.17322 v 32.8504 h -78.17322 z"
     fill-rule="evenodd"
     id="path123" />
  <path
     fill="#f1c232"
     d="m 108.92124,118.5748 h 78.17322 v 32.8504 h -78.17322 z"
     fill-rule="evenodd"
     id="path125" />
  <path
     fill="#000000"
     d="m 146.25474,140.37483 h -1.07813 v -9.54688 h 1.17188 v 3.40625 q 0.73437,-0.92187 1.89062,-0.92187 0.64063,0 1.20313,0.26562 0.57812,0.25 0.9375,0.71875 0.375,0.45313 0.57812,1.10938 0.20313,0.65625 0.20313,1.40625 0,1.78125 -0.875,2.75 -0.875,0.96875 -2.10938,0.96875 -1.21875,0 -1.92187,-1.01563 z m 0,-3.5 q 0,1.23437 0.32812,1.78125 0.5625,0.90625 1.5,0.90625 0.76563,0 1.32813,-0.65625 0.5625,-0.67188 0.5625,-2 0,-1.34375 -0.54688,-1.98438 -0.53125,-0.65625 -1.29687,-0.65625 -0.76563,0 -1.32813,0.67188 -0.54687,0.67187 -0.54687,1.9375 z"
     fill-rule="nonzero"
     id="path127" />
  <path
     fill="#000000"
     fill-opacity="0"
     d="M 187.09448,23 279,41.33072"
     fill-rule="evenodd"
     id="path129" />
  <path
     stroke="#595959"
     stroke-width="1"
     stroke-linejoin="round"
     stroke-linecap="butt"
     stroke-dasharray="1, 3"
     d="M 187.09448,23 273.1159,40.1571"
     fill-rule="evenodd"
     id="path131" />
  <path
     fill="#595959"
     stroke="#595959"
     stroke-width="1"
     stroke-linecap="butt"
     d="m 272.79284,41.77695 4.7735,-0.73218 -4.12738,-2.50747 z"
     fill-rule="evenodd"
     id="path133" />
  <path
     fill="#000000"
     fill-opacity="0"
     d="m 211.09448,63 79.93701,-8.09448"
     fill-rule="evenodd"
     id="path135" />
  <path
     stroke="#ff0000"
     stroke-width="1"
     stroke-linejoin="round"
     stroke-linecap="butt"
     stroke-dasharray="1, 3"
     d="M 190.70944,122.29239 287.4684,57.066698"
     fill-rule="evenodd"
     id="path137" />
  <path
     fill="#ff0000"
     stroke="#ff0000"
     stroke-width="1"
     stroke-linecap="butt"
     d="m 190.70944,122.29239 0.28662,-1.56437 -1.90393,2.68075 3.18168,-0.82976 z"
     fill-rule="evenodd"
     id="path139" />
  <path
     fill="#000000"
     fill-opacity="0"
     d="M 187.09448,135 H 279"
     fill-rule="evenodd"
     id="path143" />
  <path
     stroke="#595959"
     stroke-width="1"
     stroke-linejoin="round"
     stroke-linecap="butt"
     stroke-dasharray="1, 3"
     d="M 187.09448,135 H 273"
     fill-rule="evenodd"
     id="path145" />
  <path
     fill="#595959"
     stroke="#595959"
     stroke-width="1"
     stroke-linecap="butt"
     d="M 273,136.65173 277.53809,135 273,133.34826 Z"
     fill-rule="evenodd"
     id="path147" />
  <path
     fill="#000000"
     fill-opacity="0"
     d="m 323.94488,61.36747 v 53.60629"
     fill-rule="evenodd"
     id="path149" />
  <path
     fill="#000000"
     fill-opacity="0"
     d="M 62.06299,1.14699 V 166.31235"
     fill-rule="evenodd"
     id="path155" />
  <path
     stroke="#595959"
     stroke-width="2"
     stroke-linejoin="round"
     stroke-linecap="butt"
     d="M 62.06299,1.14699 V 154.31235"
     fill-rule="evenodd"
     id="path157" />
  <path
     fill="#595959"
     stroke="#595959"
     stroke-width="2"
     stroke-linecap="butt"
     d="m 58.75954,154.31235 3.30347,9.0762 3.30346,-9.0762 z"
     fill-rule="evenodd"
     id="path159" />
  <path
     fill="#000000"
     fill-opacity="0"
     d="M 0,122.18113 H 60.09448 V 155.0315 H 0 Z"
     fill-rule="evenodd"
     id="path161" />
  <path
     fill="#000000"
     d="m 13.8125,147.63236 0.23437,1.45312 q -0.6875,0.14063 -1.23437,0.14063 -0.89063,0 -1.39063,-0.28125 -0.48437,-0.28125 -0.6875,-0.73438 -0.20312,-0.46875 -0.20312,-1.9375 v -5.57812 H 9.32812 v -1.26563 h 1.20313 v -2.39062 l 1.625,-0.98438 v 3.375 h 1.65625 v 1.26563 h -1.65625 v 5.67187 q 0,0.6875 0.0781,0.89063 0.0937,0.20312 0.28125,0.32812 0.20313,0.10938 0.57813,0.10938 0.26562,0 0.71875,-0.0625 z m 1.60516,-10 v -1.89063 h 1.64063 v 1.89063 z m 0,11.46875 v -9.67188 h 1.64063 v 9.67188 z m 4.14484,0 v -9.67188 h 1.46875 v 1.35938 q 0.45312,-0.71875 1.20312,-1.14063 0.76563,-0.4375 1.71875,-0.4375 1.07813,0 1.76563,0.45313 0.6875,0.4375 0.96875,1.23437 1.15625,-1.6875 2.98437,-1.6875 1.45313,0 2.21875,0.79688 0.78125,0.79687 0.78125,2.45312 v 6.64063 h -1.64062 v -6.09375 q 0,-0.98438 -0.15625,-1.40625 -0.15625,-0.4375 -0.57813,-0.70313 -0.42187,-0.26562 -0.98437,-0.26562 -1.01563,0 -1.6875,0.6875 -0.67188,0.67187 -0.67188,2.15625 v 5.625 H 25.3125 v -6.28125 q 0,-1.09375 -0.40625,-1.64063 -0.40625,-0.54687 -1.3125,-0.54687 -0.6875,0 -1.28125,0.35937 -0.59375,0.35938 -0.85938,1.0625 -0.25,0.70313 -0.25,2.03125 v 5.01563 z m 22.16583,-3.10938 1.6875,0.20313 q -0.40625,1.48437 -1.48437,2.3125 -1.07813,0.8125 -2.76563,0.8125 -2.125,0 -3.375,-1.29688 -1.23437,-1.3125 -1.23437,-3.67187 0,-2.45313 1.25,-3.79688 1.26562,-1.34375 3.26562,-1.34375 1.9375,0 3.15625,1.32813 1.23438,1.3125 1.23438,3.70312 0,0.15625 0,0.4375 h -7.21875 q 0.0937,1.59375 0.90625,2.45313 0.8125,0.84375 2.01562,0.84375 0.90625,0 1.54688,-0.46875 0.64062,-0.48438 1.01562,-1.51563 z m -5.39062,-2.65625 h 5.40625 q -0.10938,-1.21875 -0.625,-1.82812 -0.78125,-0.95313 -2.03125,-0.95313 -1.125,0 -1.90625,0.76563 -0.76563,0.75 -0.84375,2.01562 z"
     fill-rule="nonzero"
     id="path163" />
  <path
     fill="#000000"
     fill-opacity="0"
     d="m 197.22704,0 h 84.81891 v 32.8504 h -84.81891 z"
     fill-rule="evenodd"
     id="path191" />
  <path
     fill="#3d85c6"
     d="m 209.24267,15.4419 v 1.25 q 0.95312,-0.875 1.42187,-1.125 0.48438,-0.25 0.89063,-0.25 0.4375,0 0.8125,0.29687 0.39062,0.29688 0.39062,0.45313 0,0.10937 -0.0781,0.1875 -0.0781,0.0625 -0.1875,0.0625 -0.0469,0 -0.0937,-0.0156 -0.0469,-0.0156 -0.15625,-0.125 -0.20313,-0.20312 -0.35938,-0.28125 -0.14062,-0.0781 -0.29687,-0.0781 -0.3125,0 -0.78125,0.26562 -0.45313,0.25 -1.5625,1.25 v 2.6875 h 2.17187 q 0.1875,0 0.26563,0.0781 0.0781,0.0625 0.0781,0.17187 0,0.10938 -0.0781,0.1875 -0.0781,0.0625 -0.26563,0.0625 h -3.85937 q -0.17188,0 -0.25,-0.0625 -0.0781,-0.0781 -0.0781,-0.17187 0,-0.10938 0.0781,-0.17188 0.0781,-0.0625 0.25,-0.0625 h 1.1875 v -4.10937 h -0.90625 q -0.17188,0 -0.25,-0.0625 -0.0781,-0.0781 -0.0781,-0.1875 0,-0.10938 0.0781,-0.17188 0.0781,-0.0781 0.25,-0.0781 z m 10.45117,2.65625 h -5.01562 q 0.125,0.95312 0.79687,1.54687 0.67188,0.57813 1.65625,0.57813 0.5625,0 1.15625,-0.17188 0.60938,-0.1875 0.98438,-0.5 0.10937,-0.0781 0.20312,-0.0781 0.0937,0 0.15625,0.0781 0.0781,0.0625 0.0781,0.17188 0,0.0937 -0.0937,0.1875 -0.28125,0.29687 -1,0.54687 -0.71875,0.25 -1.48438,0.25 -1.26562,0 -2.10937,-0.82812 -0.84375,-0.82813 -0.84375,-2 0,-1.07813 0.79687,-1.84375 0.79688,-0.76563 1.96875,-0.76563 1.20313,0 1.98438,0.79688 0.78125,0.78125 0.76562,2.03125 z m -0.5,-0.5 q -0.14062,-0.8125 -0.76562,-1.3125 -0.625,-0.51563 -1.48438,-0.51563 -0.85937,0 -1.48437,0.5 -0.625,0.5 -0.78125,1.32813 z m 6.45117,2.92187 V 19.8169 q -1.07812,0.89062 -2.29687,0.89062 -0.875,0 -1.375,-0.4375 -0.5,-0.45312 -0.5,-1.10937 0,-0.70313 0.65625,-1.23438 0.65625,-0.54687 1.92187,-0.54687 0.32813,0 0.71875,0.0469 0.40625,0.0469 0.875,0.14063 v -0.79688 q 0,-0.40625 -0.375,-0.70312 -0.375,-0.29688 -1.125,-0.29688 -0.57812,0 -1.60937,0.32813 -0.1875,0.0625 -0.23438,0.0625 -0.0937,0 -0.17187,-0.0625 -0.0625,-0.0781 -0.0625,-0.1875 0,-0.0937 0.0625,-0.15625 0.0781,-0.0937 0.65625,-0.23438 0.92187,-0.25 1.39062,-0.25 0.92188,0 1.4375,0.46875 0.53125,0.45313 0.53125,1.03125 v 3.25 h 0.65625 q 0.1875,0 0.25,0.0781 0.0781,0.0625 0.0781,0.17187 0,0.10938 -0.0781,0.1875 -0.0625,0.0625 -0.25,0.0625 z m 0,-2.45312 q -0.34375,-0.0937 -0.73437,-0.14063 -0.39063,-0.0469 -0.8125,-0.0469 -1.07813,0 -1.67188,0.45312 -0.45312,0.35938 -0.45312,0.82813 0,0.45312 0.34375,0.76562 0.34375,0.29688 1.01562,0.29688 0.64063,0 1.1875,-0.25 0.54688,-0.26563 1.125,-0.8125 z m 8.20118,-4.90625 v 6.85937 h 0.65625 q 0.17187,0 0.25,0.0781 0.0781,0.0625 0.0781,0.17187 0,0.10938 -0.0781,0.1875 -0.0781,0.0625 -0.25,0.0625 h -1.15625 v -0.98437 q -0.85938,1.17187 -2.17188,1.17187 -0.67187,0 -1.28125,-0.34375 -0.60937,-0.35937 -0.96875,-1.01562 -0.35937,-0.65625 -0.35937,-1.35938 0,-0.70312 0.35937,-1.34375 0.35938,-0.65625 0.96875,-1.01562 0.60938,-0.35938 1.28125,-0.35938 1.29688,0 2.17188,1.17188 v -2.78125 h -0.65625 q -0.1875,0 -0.26563,-0.0625 -0.0625,-0.0781 -0.0625,-0.1875 0,-0.10938 0.0625,-0.17188 0.0781,-0.0781 0.26563,-0.0781 z m -0.5,4.82812 q 0,-0.9375 -0.64063,-1.57812 -0.625,-0.64063 -1.5,-0.64063 -0.875,0 -1.51562,0.64063 -0.625,0.64062 -0.625,1.57812 0,0.9375 0.625,1.59375 0.64062,0.64063 1.51562,0.64063 0.875,0 1.5,-0.64063 0.64063,-0.65625 0.64063,-1.59375 z"
     fill-rule="nonzero"
     id="path193" />
  <path
     fill="#000000"
     fill-opacity="0"
     d="m 220.4779,52.12861 h 96.09448 v 32.8504 H 220.4779 Z"
     fill-rule="evenodd"
     id="path195" />
  <path
     fill="#000000"
     fill-opacity="0"
     d="m 190.6286,110.5748 h 84.81891 v 32.8504 H 190.6286 Z"
     fill-rule="evenodd"
     id="path199" />
  <path
     fill="#3d85c6"
     d="m 202.64424,126.0167 v 1.25 q 0.95312,-0.875 1.42187,-1.125 0.48438,-0.25 0.89063,-0.25 0.4375,0 0.8125,0.29687 0.39062,0.29688 0.39062,0.45313 0,0.10937 -0.0781,0.1875 -0.0781,0.0625 -0.1875,0.0625 -0.0469,0 -0.0937,-0.0156 -0.0469,-0.0156 -0.15625,-0.125 -0.20313,-0.20312 -0.35938,-0.28125 -0.14062,-0.0781 -0.29687,-0.0781 -0.3125,0 -0.78125,0.26562 -0.45313,0.25 -1.5625,1.25 v 2.6875 h 2.17187 q 0.1875,0 0.26563,0.0781 0.0781,0.0625 0.0781,0.17187 0,0.10938 -0.0781,0.1875 -0.0781,0.0625 -0.26563,0.0625 h -3.85937 q -0.17188,0 -0.25,-0.0625 -0.0781,-0.0781 -0.0781,-0.17187 0,-0.10938 0.0781,-0.17188 0.0781,-0.0625 0.25,-0.0625 h 1.1875 v -4.10937 h -0.90625 q -0.17188,0 -0.25,-0.0625 -0.0781,-0.0781 -0.0781,-0.1875 0,-0.10938 0.0781,-0.17188 0.0781,-0.0781 0.25,-0.0781 z m 10.45117,2.65625 h -5.01562 q 0.125,0.95312 0.79687,1.54687 0.67188,0.57813 1.65625,0.57813 0.5625,0 1.15625,-0.17188 0.60938,-0.1875 0.98438,-0.5 0.10937,-0.0781 0.20312,-0.0781 0.0937,0 0.15625,0.0781 0.0781,0.0625 0.0781,0.17188 0,0.0937 -0.0937,0.1875 -0.28125,0.29687 -1,0.54687 -0.71875,0.25 -1.48438,0.25 -1.26562,0 -2.10937,-0.82812 -0.84375,-0.82813 -0.84375,-2 0,-1.07813 0.79687,-1.84375 0.79688,-0.76563 1.96875,-0.76563 1.20313,0 1.98438,0.79688 0.78125,0.78125 0.76562,2.03125 z m -0.5,-0.5 q -0.14062,-0.8125 -0.76562,-1.3125 -0.625,-0.51563 -1.48438,-0.51563 -0.85937,0 -1.48437,0.5 -0.625,0.5 -0.78125,1.32813 z m 6.45117,2.92187 v -0.70312 q -1.07812,0.89062 -2.29687,0.89062 -0.875,0 -1.375,-0.4375 -0.5,-0.45312 -0.5,-1.10937 0,-0.70313 0.65625,-1.23438 0.65625,-0.54687 1.92187,-0.54687 0.32813,0 0.71875,0.0469 0.40625,0.0469 0.875,0.14063 v -0.79688 q 0,-0.40625 -0.375,-0.70312 -0.375,-0.29688 -1.125,-0.29688 -0.57812,0 -1.60937,0.32813 -0.1875,0.0625 -0.23438,0.0625 -0.0937,0 -0.17187,-0.0625 -0.0625,-0.0781 -0.0625,-0.1875 0,-0.0937 0.0625,-0.15625 0.0781,-0.0937 0.65625,-0.23438 0.92187,-0.25 1.39062,-0.25 0.92188,0 1.4375,0.46875 0.53125,0.45313 0.53125,1.03125 v 3.25 h 0.65625 q 0.1875,0 0.25,0.0781 0.0781,0.0625 0.0781,0.17187 0,0.10938 -0.0781,0.1875 -0.0625,0.0625 -0.25,0.0625 z m 0,-2.45312 q -0.34375,-0.0937 -0.73437,-0.14063 -0.39063,-0.0469 -0.8125,-0.0469 -1.07813,0 -1.67188,0.45312 -0.45312,0.35938 -0.45312,0.82813 0,0.45312 0.34375,0.76562 0.34375,0.29688 1.01562,0.29688 0.64063,0 1.1875,-0.25 0.54688,-0.26563 1.125,-0.8125 z m 8.20118,-4.90625 v 6.85937 h 0.65625 q 0.17187,0 0.25,0.0781 0.0781,0.0625 0.0781,0.17187 0,0.10938 -0.0781,0.1875 -0.0781,0.0625 -0.25,0.0625 h -1.15625 v -0.98437 q -0.85938,1.17187 -2.17188,1.17187 -0.67187,0 -1.28125,-0.34375 -0.60937,-0.35937 -0.96875,-1.01562 -0.35937,-0.65625 -0.35937,-1.35938 0,-0.70312 0.35937,-1.34375 0.35938,-0.65625 0.96875,-1.01562 0.60938,-0.35938 1.28125,-0.35938 1.29688,0 2.17188,1.17188 v -2.78125 h -0.65625 q -0.1875,0 -0.26563,-0.0625 -0.0625,-0.0781 -0.0625,-0.1875 0,-0.10938 0.0625,-0.17188 0.0781,-0.0781 0.26563,-0.0781 z m -0.5,4.82812 q 0,-0.9375 -0.64063,-1.57812 -0.625,-0.64063 -1.5,-0.64063 -0.875,0 -1.51562,0.64063 -0.625,0.64062 -0.625,1.57812 0,0.9375 0.625,1.59375 0.64062,0.64063 1.51562,0.64063 0.875,0 1.5,-0.64063 0.64063,-0.65625 0.64063,-1.59375 z"
     fill-rule="nonzero"
     id="path201" />
  <path
     stroke="#595959"
     stroke-width="0.999996"
     stroke-linejoin="round"
     stroke-linecap="butt"
     stroke-dasharray="0.999996, 3"
     d="M 211.09837,63.022876 278.12722,50.882817"
     fill-rule="evenodd"
     id="path875"
     sodipodi:nodetypes="cc" />
  <path
     fill="#595959"
     stroke="#595959"
     stroke-width="1"
     stroke-linecap="butt"
     d="m 277.51554,52.701146 4.22702,-2.335512 -4.73935,-0.927972 z"
     fill-rule="evenodd"
     id="path877" />
  <path
     fill="#3d85c6"
     d="m 220.97783,47.51922 v 1.25 q 0.95312,-0.875 1.42187,-1.125 0.48438,-0.25 0.89063,-0.25 0.4375,0 0.8125,0.29687 0.39062,0.29688 0.39062,0.45313 0,0.10937 -0.0781,0.1875 -0.0781,0.0625 -0.1875,0.0625 -0.0469,0 -0.0937,-0.0156 -0.0469,-0.0156 -0.15625,-0.125 -0.20313,-0.20312 -0.35938,-0.28125 -0.14062,-0.0781 -0.29687,-0.0781 -0.3125,0 -0.78125,0.26562 -0.45313,0.25 -1.5625,1.25 v 2.6875 h 2.17187 q 0.1875,0 0.26563,0.0781 0.0781,0.0625 0.0781,0.17187 0,0.10938 -0.0781,0.1875 -0.0781,0.0625 -0.26563,0.0625 h -3.85937 q -0.17188,0 -0.25,-0.0625 -0.0781,-0.0781 -0.0781,-0.17187 0,-0.10938 0.0781,-0.17188 0.0781,-0.0625 0.25,-0.0625 h 1.1875 v -4.10937 h -0.90625 q -0.17188,0 -0.25,-0.0625 -0.0781,-0.0781 -0.0781,-0.1875 0,-0.10938 0.0781,-0.17188 0.0781,-0.0781 0.25,-0.0781 z m 10.45117,2.65625 h -5.01562 q 0.125,0.95312 0.79687,1.54687 0.67188,0.57813 1.65625,0.57813 0.5625,0 1.15625,-0.17188 0.60938,-0.1875 0.98438,-0.5 0.10937,-0.0781 0.20312,-0.0781 0.0937,0 0.15625,0.0781 0.0781,0.0625 0.0781,0.17188 0,0.0937 -0.0937,0.1875 -0.28125,0.29687 -1,0.54687 -0.71875,0.25 -1.48438,0.25 -1.26562,0 -2.10937,-0.82812 -0.84375,-0.82813 -0.84375,-2 0,-1.07813 0.79687,-1.84375 0.79688,-0.76563 1.96875,-0.76563 1.20313,0 1.98438,0.79688 0.78125,0.78125 0.76562,2.03125 z m -0.5,-0.5 q -0.14062,-0.8125 -0.76562,-1.3125 -0.625,-0.51563 -1.48438,-0.51563 -0.85937,0 -1.48437,0.5 -0.625,0.5 -0.78125,1.32813 z m 6.45117,2.92187 v -0.70312 q -1.07812,0.89062 -2.29687,0.89062 -0.875,0 -1.375,-0.4375 -0.5,-0.45312 -0.5,-1.10937 0,-0.70313 0.65625,-1.23438 0.65625,-0.54687 1.92187,-0.54687 0.32813,0 0.71875,0.0469 0.40625,0.0469 0.875,0.14063 v -0.79688 q 0,-0.40625 -0.375,-0.70312 -0.375,-0.29688 -1.125,-0.29688 -0.57812,0 -1.60937,0.32813 -0.1875,0.0625 -0.23438,0.0625 -0.0937,0 -0.17187,-0.0625 -0.0625,-0.0781 -0.0625,-0.1875 0,-0.0937 0.0625,-0.15625 0.0781,-0.0937 0.65625,-0.23438 0.92187,-0.25 1.39062,-0.25 0.92188,0 1.4375,0.46875 0.53125,0.45313 0.53125,1.03125 v 3.25 h 0.65625 q 0.1875,0 0.25,0.0781 0.0781,0.0625 0.0781,0.17187 0,0.10938 -0.0781,0.1875 -0.0625,0.0625 -0.25,0.0625 z m 0,-2.45312 q -0.34375,-0.0937 -0.73437,-0.14063 -0.39063,-0.0469 -0.8125,-0.0469 -1.07813,0 -1.67188,0.45312 -0.45312,0.35938 -0.45312,0.82813 0,0.45312 0.34375,0.76562 0.34375,0.29688 1.01562,0.29688 0.64063,0 1.1875,-0.25 0.54688,-0.26563 1.125,-0.8125 z m 8.20118,-4.90625 v 6.85937 h 0.65625 q 0.17187,0 0.25,0.0781 0.0781,0.0625 0.0781,0.17187 0,0.10938 -0.0781,0.1875 -0.0781,0.0625 -0.25,0.0625 h -1.15625 v -0.98437 q -0.85938,1.17187 -2.17188,1.17187 -0.67187,0 -1.28125,-0.34375 -0.60937,-0.35937 -0.96875,-1.01562 -0.35937,-0.65625 -0.35937,-1.35938 0,-0.70312 0.35937,-1.34375 0.35938,-0.65625 0.96875,-1.01562 0.60938,-0.35938 1.28125,-0.35938 1.29688,0 2.17188,1.17188 v -2.78125 h -0.65625 q -0.1875,0 -0.26563,-0.0625 -0.0625,-0.0781 -0.0625,-0.1875 0,-0.10938 0.0625,-0.17188 0.0781,-0.0781 0.26563,-0.0781 z m -0.5,4.82812 q 0,-0.9375 -0.64063,-1.57812 -0.625,-0.64063 -1.5,-0.64063 -0.875,0 -1.51562,0.64063 -0.625,0.64062 -0.625,1.57812 0,0.9375 0.625,1.59375 0.64062,0.64063 1.51562,0.64063 0.875,0 1.5,-0.64063 0.64063,-0.65625 0.64063,-1.59375 z"
     fill-rule="nonzero"
     id="path879" />
  <path
     fill="#000000"
     fill-opacity="0"
     d="M 323.94488,61.367471 V 114.97376"
     fill-rule="evenodd"
     id="path149-3" />
  <path
     stroke="#ff0000"
     stroke-width="2"
     stroke-linejoin="round"
     stroke-linecap="butt"
     d="M 323.94488,61.367471 V 102.97376"
     fill-rule="evenodd"
     id="path151" />
  <path
     fill="#ff0000"
     stroke="#ff0000"
     stroke-width="2"
     stroke-linecap="butt"
     d="m 320.64144,102.97376 3.30347,9.0762 3.30346,-9.0762 z"
     fill-rule="evenodd"
     id="path153" />
</svg>
