<?xml version="1.0" encoding="UTF-8" standalone="no"?>
<svg
   xmlns:dc="http://purl.org/dc/elements/1.1/"
   xmlns:cc="http://creativecommons.org/ns#"
   xmlns:rdf="http://www.w3.org/1999/02/22-rdf-syntax-ns#"
   xmlns:svg="http://www.w3.org/2000/svg"
   xmlns="http://www.w3.org/2000/svg"
   xmlns:sodipodi="http://sodipodi.sourceforge.net/DTD/sodipodi-0.dtd"
   xmlns:inkscape="http://www.inkscape.org/namespaces/inkscape"
   version="1.1"
   viewBox="0 0 713.04352 199.25728"
   fill="none"
   stroke="none"
   stroke-linecap="square"
   stroke-miterlimit="10"
   id="svg385"
   sodipodi:docname="priorities.svg"
   width="713.04352"
   height="199.25728"
   inkscape:version="1.0.1 (3bc2e813f5, 2020-09-07)"
   inkscape:export-filename="/home/mirko/Task-based-parallelism/content/img/priorities.png"
   inkscape:export-xdpi="120"
   inkscape:export-ydpi="120">
  <metadata
     id="metadata391">
    <rdf:RDF>
      <cc:Work
         rdf:about="">
        <dc:format>image/svg+xml</dc:format>
        <dc:type
           rdf:resource="http://purl.org/dc/dcmitype/StillImage" />
        <dc:title></dc:title>
      </cc:Work>
    </rdf:RDF>
  </metadata>
  <defs
     id="defs389" />
  <sodipodi:namedview
     pagecolor="#ffffff"
     bordercolor="#666666"
     borderopacity="1"
     objecttolerance="10"
     gridtolerance="10"
     guidetolerance="10"
     inkscape:pageopacity="0"
     inkscape:pageshadow="2"
     inkscape:window-width="2558"
     inkscape:window-height="1670"
     id="namedview387"
     showgrid="false"
     fit-margin-top="0"
     fit-margin-left="0"
     fit-margin-right="0"
     fit-margin-bottom="0"
     inkscape:zoom="1.3574074"
     inkscape:cx="361.47115"
     inkscape:cy="70.76515"
     inkscape:window-x="0"
     inkscape:window-y="0"
     inkscape:window-maximized="0"
     inkscape:current-layer="g383" />
  <clipPath
     id="g24d203dcf6_0_778.0">
    <path
       d="M 0,0 H 960 V 540 H 0 Z"
       clip-rule="nonzero"
       id="path2" />
  </clipPath>
  <g
     clip-path="url(#g24d203dcf6_0_778.0)"
     id="g383"
     transform="translate(-118.52885,-199.23485)">
    <path
       fill="#ff9900"
       d="m 119.02885,199.73485 h 49.98426 v 49.5748 h -49.98426 z"
       fill-rule="evenodd"
       id="path23" />
    <path
       stroke="#595959"
       stroke-width="1"
       stroke-linejoin="round"
       stroke-linecap="butt"
       d="m 119.02885,199.73485 h 49.98426 v 49.5748 h -49.98426 z"
       fill-rule="evenodd"
       id="path25" />
    <path
       fill="#93c47d"
       d="m 169.04858,199.73485 h 49.98425 v 49.5748 h -49.98425 z"
       fill-rule="evenodd"
       id="path27" />
    <path
       stroke="#595959"
       stroke-width="1"
       stroke-linejoin="round"
       stroke-linecap="butt"
       d="m 169.04858,199.73485 h 49.98425 v 49.5748 h -49.98425 z"
       fill-rule="evenodd"
       id="path29" />
    <path
       fill="#f3f3f3"
       d="m 269.08804,199.73485 h 49.98425 v 49.5748 h -49.98425 z"
       fill-rule="evenodd"
       id="path31" />
    <path
       stroke="#595959"
       stroke-width="1"
       stroke-linejoin="round"
       stroke-linecap="butt"
       d="m 269.08804,199.73485 h 49.98425 v 49.5748 h -49.98425 z"
       fill-rule="evenodd"
       id="path33" />
    <path
       fill="#f3f3f3"
       d="m 219.06831,199.73485 h 49.98427 v 49.5748 h -49.98427 z"
       fill-rule="evenodd"
       id="path35" />
    <path
       stroke="#595959"
       stroke-width="1"
       stroke-linejoin="round"
       stroke-linecap="butt"
       d="m 219.06831,199.73485 h 49.98427 v 49.5748 h -49.98427 z"
       fill-rule="evenodd"
       id="path37" />
    <path
       fill="#93c47d"
       d="m 119.02885,249.29567 h 49.98426 v 49.57481 h -49.98426 z"
       fill-rule="evenodd"
       id="path39" />
    <path
       stroke="#595959"
       stroke-width="1"
       stroke-linejoin="round"
       stroke-linecap="butt"
       d="m 119.02885,249.29567 h 49.98426 v 49.57481 h -49.98426 z"
       fill-rule="evenodd"
       id="path41" />
    <path
       fill="#00ffff"
       d="m 169.04858,249.29567 h 49.98425 v 49.57481 h -49.98425 z"
       fill-rule="evenodd"
       id="path43" />
    <path
       stroke="#595959"
       stroke-width="1"
       stroke-linejoin="round"
       stroke-linecap="butt"
       d="m 169.04858,249.29567 h 49.98425 v 49.57481 h -49.98425 z"
       fill-rule="evenodd"
       id="path45" />
    <path
       fill="#f3f3f3"
       d="m 269.08804,249.29567 h 49.98425 v 49.57481 h -49.98425 z"
       fill-rule="evenodd"
       id="path47" />
    <path
       stroke="#595959"
       stroke-width="1"
       stroke-linejoin="round"
       stroke-linecap="butt"
       d="m 269.08804,249.29567 h 49.98425 v 49.57481 h -49.98425 z"
       fill-rule="evenodd"
       id="path49" />
    <path
       fill="#f3f3f3"
       d="m 219.06831,249.29567 h 49.98427 v 49.57481 h -49.98427 z"
       fill-rule="evenodd"
       id="path51" />
    <path
       stroke="#595959"
       stroke-width="1"
       stroke-linejoin="round"
       stroke-linecap="butt"
       d="m 219.06831,249.29567 h 49.98427 v 49.57481 h -49.98427 z"
       fill-rule="evenodd"
       id="path53" />
    <path
       fill="#f3f3f3"
       d="m 119.02885,298.8565 h 49.98426 v 49.5748 h -49.98426 z"
       fill-rule="evenodd"
       id="path55" />
    <path
       stroke="#595959"
       stroke-width="1"
       stroke-linejoin="round"
       stroke-linecap="butt"
       d="m 119.02885,298.8565 h 49.98426 v 49.5748 h -49.98426 z"
       fill-rule="evenodd"
       id="path57" />
    <path
       fill="#f3f3f3"
       d="m 169.04858,298.8565 h 49.98425 v 49.5748 h -49.98425 z"
       fill-rule="evenodd"
       id="path59" />
    <path
       stroke="#595959"
       stroke-width="1"
       stroke-linejoin="round"
       stroke-linecap="butt"
       d="m 169.04858,298.8565 h 49.98425 v 49.5748 h -49.98425 z"
       fill-rule="evenodd"
       id="path61" />
    <path
       fill="#f3f3f3"
       d="m 269.08804,298.8565 h 49.98425 v 49.5748 h -49.98425 z"
       fill-rule="evenodd"
       id="path63" />
    <path
       stroke="#595959"
       stroke-width="1"
       stroke-linejoin="round"
       stroke-linecap="butt"
       d="m 269.08804,298.8565 h 49.98425 v 49.5748 h -49.98425 z"
       fill-rule="evenodd"
       id="path65" />
    <path
       fill="#f3f3f3"
       d="m 219.06831,298.8565 h 49.98427 v 49.5748 h -49.98427 z"
       fill-rule="evenodd"
       id="path67" />
    <path
       stroke="#595959"
       stroke-width="1"
       stroke-linejoin="round"
       stroke-linecap="butt"
       d="m 219.06831,298.8565 h 49.98427 v 49.5748 h -49.98427 z"
       fill-rule="evenodd"
       id="path69" />
    <path
       fill="#f3f3f3"
       d="m 119.02885,348.41733 h 49.98426 v 49.5748 h -49.98426 z"
       fill-rule="evenodd"
       id="path71" />
    <path
       stroke="#595959"
       stroke-width="1"
       stroke-linejoin="round"
       stroke-linecap="butt"
       d="m 119.02885,348.41733 h 49.98426 v 49.5748 h -49.98426 z"
       fill-rule="evenodd"
       id="path73" />
    <path
       fill="#f3f3f3"
       d="m 169.04858,348.41733 h 49.98425 v 49.5748 h -49.98425 z"
       fill-rule="evenodd"
       id="path75" />
    <path
       stroke="#595959"
       stroke-width="1"
       stroke-linejoin="round"
       stroke-linecap="butt"
       d="m 169.04858,348.41733 h 49.98425 v 49.5748 h -49.98425 z"
       fill-rule="evenodd"
       id="path77" />
    <path
       fill="#f3f3f3"
       d="m 269.08804,348.41733 h 49.98425 v 49.5748 h -49.98425 z"
       fill-rule="evenodd"
       id="path79" />
    <path
       stroke="#595959"
       stroke-width="1"
       stroke-linejoin="round"
       stroke-linecap="butt"
       d="m 269.08804,348.41733 h 49.98425 v 49.5748 h -49.98425 z"
       fill-rule="evenodd"
       id="path81" />
    <path
       fill="#f3f3f3"
       d="m 219.06831,348.41733 h 49.98427 v 49.5748 h -49.98427 z"
       fill-rule="evenodd"
       id="path83" />
    <path
       stroke="#595959"
       stroke-width="1"
       stroke-linejoin="round"
       stroke-linecap="butt"
       d="m 219.06831,348.41733 h 49.98427 v 49.5748 h -49.98427 z"
       fill-rule="evenodd"
       id="path85" />
    <path
       fill="#cccccc"
       d="m 375.02887,199.73485 h 49.98425 v 49.5748 h -49.98425 z"
       fill-rule="evenodd"
       id="path87" />
    <path
       stroke="#595959"
       stroke-width="1"
       stroke-linejoin="round"
       stroke-linecap="butt"
       d="m 375.02887,199.73485 h 49.98425 v 49.5748 h -49.98425 z"
       fill-rule="evenodd"
       id="path89" />
    <path
       fill="#cccccc"
       d="m 425.04858,199.73485 h 49.98425 v 49.5748 h -49.98425 z"
       fill-rule="evenodd"
       id="path91" />
    <path
       stroke="#595959"
       stroke-width="1"
       stroke-linejoin="round"
       stroke-linecap="butt"
       d="m 425.04858,199.73485 h 49.98425 v 49.5748 h -49.98425 z"
       fill-rule="evenodd"
       id="path93" />
    <path
       fill="#f3f3f3"
       d="m 525.0881,199.73485 h 49.98425 v 49.5748 H 525.0881 Z"
       fill-rule="evenodd"
       id="path95" />
    <path
       stroke="#595959"
       stroke-width="1"
       stroke-linejoin="round"
       stroke-linecap="butt"
       d="m 525.0881,199.73485 h 49.98425 v 49.5748 H 525.0881 Z"
       fill-rule="evenodd"
       id="path97" />
    <path
       fill="#cccccc"
       d="m 475.06833,199.73485 h 49.98422 v 49.5748 h -49.98422 z"
       fill-rule="evenodd"
       id="path99" />
    <path
       stroke="#595959"
       stroke-width="1"
       stroke-linejoin="round"
       stroke-linecap="butt"
       d="m 475.06833,199.73485 h 49.98422 v 49.5748 h -49.98422 z"
       fill-rule="evenodd"
       id="path101" />
    <path
       fill="#cccccc"
       d="m 375.02887,249.29567 h 49.98425 v 49.57481 h -49.98425 z"
       fill-rule="evenodd"
       id="path103" />
    <path
       stroke="#595959"
       stroke-width="1"
       stroke-linejoin="round"
       stroke-linecap="butt"
       d="m 375.02887,249.29567 h 49.98425 v 49.57481 h -49.98425 z"
       fill-rule="evenodd"
       id="path105" />
    <path
       fill="#ff9900"
       d="m 425.04858,249.29567 h 49.98425 v 49.57481 h -49.98425 z"
       fill-rule="evenodd"
       id="path107" />
    <path
       stroke="#595959"
       stroke-width="1"
       stroke-linejoin="round"
       stroke-linecap="butt"
       d="m 425.04858,249.29567 h 49.98425 v 49.57481 h -49.98425 z"
       fill-rule="evenodd"
       id="path109" />
    <path
       fill="#f3f3f3"
       d="m 525.0881,249.29567 h 49.98425 v 49.57481 H 525.0881 Z"
       fill-rule="evenodd"
       id="path111" />
    <path
       stroke="#595959"
       stroke-width="1"
       stroke-linejoin="round"
       stroke-linecap="butt"
       d="m 525.0881,249.29567 h 49.98425 v 49.57481 H 525.0881 Z"
       fill-rule="evenodd"
       id="path113" />
    <path
       fill="#93c47d"
       d="m 475.06833,249.29567 h 49.98422 v 49.57481 h -49.98422 z"
       fill-rule="evenodd"
       id="path115" />
    <path
       stroke="#595959"
       stroke-width="1"
       stroke-linejoin="round"
       stroke-linecap="butt"
       d="m 475.06833,249.29567 h 49.98422 v 49.57481 h -49.98422 z"
       fill-rule="evenodd"
       id="path117" />
    <path
       fill="#cccccc"
       d="m 375.02887,298.8565 h 49.98425 v 49.5748 h -49.98425 z"
       fill-rule="evenodd"
       id="path119" />
    <path
       stroke="#595959"
       stroke-width="1"
       stroke-linejoin="round"
       stroke-linecap="butt"
       d="m 375.02887,298.8565 h 49.98425 v 49.5748 h -49.98425 z"
       fill-rule="evenodd"
       id="path121" />
    <path
       fill="#93c47d"
       d="m 425.04858,298.8565 h 49.98425 v 49.5748 h -49.98425 z"
       fill-rule="evenodd"
       id="path123" />
    <path
       stroke="#595959"
       stroke-width="1"
       stroke-linejoin="round"
       stroke-linecap="butt"
       d="m 425.04858,298.8565 h 49.98425 v 49.5748 h -49.98425 z"
       fill-rule="evenodd"
       id="path125" />
    <path
       fill="#f3f3f3"
       d="m 525.0881,298.8565 h 49.98425 v 49.5748 H 525.0881 Z"
       fill-rule="evenodd"
       id="path127" />
    <path
       stroke="#595959"
       stroke-width="1"
       stroke-linejoin="round"
       stroke-linecap="butt"
       d="m 525.0881,298.8565 h 49.98425 v 49.5748 H 525.0881 Z"
       fill-rule="evenodd"
       id="path129" />
    <path
       fill="#00ffff"
       d="m 475.06833,298.8565 h 49.98422 v 49.5748 h -49.98422 z"
       fill-rule="evenodd"
       id="path131" />
    <path
       stroke="#595959"
       stroke-width="1"
       stroke-linejoin="round"
       stroke-linecap="butt"
       d="m 475.06833,298.8565 h 49.98422 v 49.5748 h -49.98422 z"
       fill-rule="evenodd"
       id="path133" />
    <path
       fill="#f3f3f3"
       d="m 375.02887,348.41733 h 49.98425 v 49.5748 h -49.98425 z"
       fill-rule="evenodd"
       id="path135" />
    <path
       stroke="#595959"
       stroke-width="1"
       stroke-linejoin="round"
       stroke-linecap="butt"
       d="m 375.02887,348.41733 h 49.98425 v 49.5748 h -49.98425 z"
       fill-rule="evenodd"
       id="path137" />
    <path
       fill="#f3f3f3"
       d="m 425.04858,348.41733 h 49.98425 v 49.5748 h -49.98425 z"
       fill-rule="evenodd"
       id="path139" />
    <path
       stroke="#595959"
       stroke-width="1"
       stroke-linejoin="round"
       stroke-linecap="butt"
       d="m 425.04858,348.41733 h 49.98425 v 49.5748 h -49.98425 z"
       fill-rule="evenodd"
       id="path141" />
    <path
       fill="#f3f3f3"
       d="m 525.0881,348.41733 h 49.98425 v 49.5748 H 525.0881 Z"
       fill-rule="evenodd"
       id="path143" />
    <path
       stroke="#595959"
       stroke-width="1"
       stroke-linejoin="round"
       stroke-linecap="butt"
       d="m 525.0881,348.41733 h 49.98425 v 49.5748 H 525.0881 Z"
       fill-rule="evenodd"
       id="path145" />
    <path
       fill="#f3f3f3"
       d="m 475.06833,348.41733 h 49.98422 v 49.5748 h -49.98422 z"
       fill-rule="evenodd"
       id="path147" />
    <path
       stroke="#595959"
       stroke-width="1"
       stroke-linejoin="round"
       stroke-linecap="butt"
       d="m 475.06833,348.41733 h 49.98422 v 49.5748 h -49.98422 z"
       fill-rule="evenodd"
       id="path149" />
    <path
       fill="#cccccc"
       d="m 631.0289,199.73485 h 49.98425 v 49.5748 H 631.0289 Z"
       fill-rule="evenodd"
       id="path151" />
    <path
       stroke="#595959"
       stroke-width="1"
       stroke-linejoin="round"
       stroke-linecap="butt"
       d="m 631.0289,199.73485 h 49.98425 v 49.5748 H 631.0289 Z"
       fill-rule="evenodd"
       id="path153" />
    <path
       fill="#cccccc"
       d="m 681.0486,199.73485 h 49.98425 v 49.5748 H 681.0486 Z"
       fill-rule="evenodd"
       id="path155" />
    <path
       stroke="#595959"
       stroke-width="1"
       stroke-linejoin="round"
       stroke-linecap="butt"
       d="m 681.0486,199.73485 h 49.98425 v 49.5748 H 681.0486 Z"
       fill-rule="evenodd"
       id="path157" />
    <path
       fill="#cccccc"
       d="m 781.0881,199.73485 h 49.98425 v 49.5748 H 781.0881 Z"
       fill-rule="evenodd"
       id="path159" />
    <path
       stroke="#595959"
       stroke-width="1"
       stroke-linejoin="round"
       stroke-linecap="butt"
       d="m 781.0881,199.73485 h 49.98425 v 49.5748 H 781.0881 Z"
       fill-rule="evenodd"
       id="path161" />
    <path
       fill="#cccccc"
       d="m 731.0683,199.73485 h 49.98425 v 49.5748 H 731.0683 Z"
       fill-rule="evenodd"
       id="path163" />
    <path
       stroke="#595959"
       stroke-width="1"
       stroke-linejoin="round"
       stroke-linecap="butt"
       d="m 731.0683,199.73485 h 49.98425 v 49.5748 H 731.0683 Z"
       fill-rule="evenodd"
       id="path165" />
    <path
       fill="#cccccc"
       d="m 631.0289,249.29567 h 49.98425 v 49.57481 H 631.0289 Z"
       fill-rule="evenodd"
       id="path167" />
    <path
       stroke="#595959"
       stroke-width="1"
       stroke-linejoin="round"
       stroke-linecap="butt"
       d="m 631.0289,249.29567 h 49.98425 v 49.57481 H 631.0289 Z"
       fill-rule="evenodd"
       id="path169" />
    <path
       fill="#999999"
       d="m 681.0486,249.29567 h 49.98425 v 49.57481 H 681.0486 Z"
       fill-rule="evenodd"
       id="path171" />
    <path
       stroke="#595959"
       stroke-width="1"
       stroke-linejoin="round"
       stroke-linecap="butt"
       d="m 681.0486,249.29567 h 49.98425 v 49.57481 H 681.0486 Z"
       fill-rule="evenodd"
       id="path173" />
    <path
       fill="#999999"
       d="m 781.0881,249.29567 h 49.98425 v 49.57481 H 781.0881 Z"
       fill-rule="evenodd"
       id="path175" />
    <path
       stroke="#595959"
       stroke-width="1"
       stroke-linejoin="round"
       stroke-linecap="butt"
       d="m 781.0881,249.29567 h 49.98425 v 49.57481 H 781.0881 Z"
       fill-rule="evenodd"
       id="path177" />
    <path
       fill="#999999"
       d="m 731.0683,249.29567 h 49.98425 v 49.57481 H 731.0683 Z"
       fill-rule="evenodd"
       id="path179" />
    <path
       stroke="#595959"
       stroke-width="1"
       stroke-linejoin="round"
       stroke-linecap="butt"
       d="m 731.0683,249.29567 h 49.98425 v 49.57481 H 731.0683 Z"
       fill-rule="evenodd"
       id="path181" />
    <path
       fill="#cccccc"
       d="m 631.0289,298.8565 h 49.98425 v 49.5748 H 631.0289 Z"
       fill-rule="evenodd"
       id="path183" />
    <path
       stroke="#595959"
       stroke-width="1"
       stroke-linejoin="round"
       stroke-linecap="butt"
       d="m 631.0289,298.8565 h 49.98425 v 49.5748 H 631.0289 Z"
       fill-rule="evenodd"
       id="path185" />
    <path
       fill="#999999"
       d="m 681.0486,298.8565 h 49.98425 v 49.5748 H 681.0486 Z"
       fill-rule="evenodd"
       id="path187" />
    <path
       stroke="#595959"
       stroke-width="1"
       stroke-linejoin="round"
       stroke-linecap="butt"
       d="m 681.0486,298.8565 h 49.98425 v 49.5748 H 681.0486 Z"
       fill-rule="evenodd"
       id="path189" />
    <path
       fill="#93c47d"
       d="m 781.0881,298.8565 h 49.98425 v 49.5748 H 781.0881 Z"
       fill-rule="evenodd"
       id="path191" />
    <path
       stroke="#595959"
       stroke-width="1"
       stroke-linejoin="round"
       stroke-linecap="butt"
       d="m 781.0881,298.8565 h 49.98425 v 49.5748 H 781.0881 Z"
       fill-rule="evenodd"
       id="path193" />
    <path
       fill="#ff9900"
       d="m 731.0683,298.8565 h 49.98425 v 49.5748 H 731.0683 Z"
       fill-rule="evenodd"
       id="path195" />
    <path
       stroke="#595959"
       stroke-width="1"
       stroke-linejoin="round"
       stroke-linecap="butt"
       d="m 731.0683,298.8565 h 49.98425 v 49.5748 H 731.0683 Z"
       fill-rule="evenodd"
       id="path197" />
    <path
       fill="#cccccc"
       d="m 631.0289,348.41733 h 49.98425 v 49.5748 H 631.0289 Z"
       fill-rule="evenodd"
       id="path199" />
    <path
       stroke="#595959"
       stroke-width="1"
       stroke-linejoin="round"
       stroke-linecap="butt"
       d="m 631.0289,348.41733 h 49.98425 v 49.5748 H 631.0289 Z"
       fill-rule="evenodd"
       id="path201" />
    <path
       fill="#999999"
       d="m 681.0486,348.41733 h 49.98425 v 49.5748 H 681.0486 Z"
       fill-rule="evenodd"
       id="path203" />
    <path
       stroke="#595959"
       stroke-width="1"
       stroke-linejoin="round"
       stroke-linecap="butt"
       d="m 681.0486,348.41733 h 49.98425 v 49.5748 H 681.0486 Z"
       fill-rule="evenodd"
       id="path205" />
    <path
       fill="#00ffff"
       d="m 781.0881,348.41733 h 49.98425 v 49.5748 H 781.0881 Z"
       fill-rule="evenodd"
       id="path207" />
    <path
       stroke="#595959"
       stroke-width="1"
       stroke-linejoin="round"
       stroke-linecap="butt"
       d="m 781.0881,348.41733 h 49.98425 v 49.5748 H 781.0881 Z"
       fill-rule="evenodd"
       id="path209" />
    <path
       fill="#93c47d"
       d="m 731.0683,348.41733 h 49.98425 v 49.5748 H 731.0683 Z"
       fill-rule="evenodd"
       id="path211" />
    <path
       stroke="#595959"
       stroke-width="1"
       stroke-linejoin="round"
       stroke-linecap="butt"
       d="m 731.0683,348.41733 h 49.98425 v 49.5748 H 731.0683 Z"
       fill-rule="evenodd"
       id="path213" />
    <path
       fill="#000000"
       fill-opacity="0"
       d="m 129.42258,200.09055 h 39.59055 v 32.8504 h -39.59055 z"
       fill-rule="evenodd"
       id="path215" />
    <path
       fill="#000000"
       d="m 139.20383,220.4168 q 0,-2.35938 0.48437,-3.79688 0.48438,-1.45312 1.4375,-2.23437 0.96875,-0.78125 2.42188,-0.78125 1.07812,0 1.89062,0.4375 0.8125,0.42187 1.32813,1.25 0.53125,0.8125 0.82812,1.98437 0.3125,1.15625 0.3125,3.14063 0,2.35937 -0.48437,3.8125 -0.48438,1.4375 -1.45313,2.23437 -0.95312,0.78125 -2.42187,0.78125 -1.92188,0 -3.03125,-1.39062 -1.3125,-1.67188 -1.3125,-5.4375 z m 1.67187,0 q 0,3.29687 0.76563,4.39062 0.78125,1.07813 1.90625,1.07813 1.14062,0 1.90625,-1.09375 0.76562,-1.09375 0.76562,-4.375 0,-3.29688 -0.76562,-4.375 -0.76563,-1.07813 -1.92188,-1.07813 -1.125,0 -1.79687,0.95313 -0.85938,1.21875 -0.85938,4.5 z"
       fill-rule="nonzero"
       id="path217" />
    <path
       fill="#000000"
       fill-opacity="0"
       d="m 179.44357,200.09055 h 39.59055 v 32.8504 h -39.59055 z"
       fill-rule="evenodd"
       id="path219" />
    <path
       fill="#000000"
       d="m 189.03732,222.99492 v -1.64063 h 5.03125 v 1.64063 z m 12.57205,4.01562 h -1.64062 v -10.45312 q -0.59375,0.5625 -1.5625,1.14062 -0.95313,0.5625 -1.71875,0.84375 v -1.59375 q 1.375,-0.64062 2.40625,-1.5625 1.03125,-0.92187 1.45312,-1.78125 h 1.0625 z"
       fill-rule="nonzero"
       id="path221" />
    <path
       fill="#000000"
       fill-opacity="0"
       d="m 179.44357,248.09055 h 39.59055 v 32.8504 h -39.59055 z"
       fill-rule="evenodd"
       id="path223" />
    <path
       fill="#000000"
       d="m 189.03732,270.99493 v -1.64063 h 5.03125 v 1.64063 z m 12.57205,4.01562 h -1.64062 v -10.45312 q -0.59375,0.5625 -1.5625,1.14062 -0.95313,0.5625 -1.71875,0.84375 v -1.59375 q 1.375,-0.64062 2.40625,-1.5625 1.03125,-0.92187 1.45312,-1.78125 h 1.0625 z"
       fill-rule="nonzero"
       id="path225" />
    <path
       fill="#000000"
       fill-opacity="0"
       d="m 131.44357,248.09055 h 39.59055 v 32.8504 h -39.59055 z"
       fill-rule="evenodd"
       id="path227" />
    <path
       fill="#000000"
       d="m 141.03732,270.99493 v -1.64063 h 5.03125 v 1.64063 z m 12.57205,4.01562 h -1.64062 v -10.45312 q -0.59375,0.5625 -1.5625,1.14062 -0.95313,0.5625 -1.71875,0.84375 v -1.59375 q 1.375,-0.64062 2.40625,-1.5625 1.03125,-0.92187 1.45312,-1.78125 h 1.0625 z"
       fill-rule="nonzero"
       id="path229" />
    <path
       fill="#000000"
       fill-opacity="0"
       d="m 229.46457,200.09055 h 39.59055 v 32.8504 h -39.59055 z"
       fill-rule="evenodd"
       id="path231" />
    <path
       fill="#000000"
       d="m 239.05832,222.99492 v -1.64063 h 5.03125 v 1.64063 z m 15.00955,2.4375 v 1.57812 h -8.82812 q -0.0156,-0.59375 0.1875,-1.14062 0.34375,-0.90625 1.07812,-1.78125 0.75,-0.875 2.15625,-2.01563 2.17188,-1.78125 2.9375,-2.82812 0.76563,-1.04688 0.76563,-1.96875 0,-0.98438 -0.70313,-1.64063 -0.6875,-0.67187 -1.8125,-0.67187 -1.1875,0 -1.90625,0.71875 -0.70312,0.70312 -0.70312,1.95312 l -1.6875,-0.17187 q 0.17187,-1.89063 1.29687,-2.875 1.14063,-0.98438 3.03125,-0.98438 1.92188,0 3.04688,1.0625 1.125,1.0625 1.125,2.64063 0,0.79687 -0.32813,1.57812 -0.32812,0.78125 -1.09375,1.64063 -0.75,0.84375 -2.53125,2.34375 -1.46875,1.23437 -1.89062,1.6875 -0.42188,0.4375 -0.6875,0.875 z"
       fill-rule="nonzero"
       id="path233" />
    <path
       fill="#000000"
       fill-opacity="0"
       d="m 229.46457,248.09055 h 39.59055 v 32.8504 h -39.59055 z"
       fill-rule="evenodd"
       id="path235" />
    <path
       fill="#000000"
       d="m 239.05832,270.99493 v -1.64063 h 5.03125 v 1.64063 z m 15.00955,2.4375 v 1.57812 h -8.82812 q -0.0156,-0.59375 0.1875,-1.14062 0.34375,-0.90625 1.07812,-1.78125 0.75,-0.875 2.15625,-2.01563 2.17188,-1.78125 2.9375,-2.82812 0.76563,-1.04688 0.76563,-1.96875 0,-0.98438 -0.70313,-1.64063 -0.6875,-0.67187 -1.8125,-0.67187 -1.1875,0 -1.90625,0.71875 -0.70312,0.70312 -0.70312,1.95312 l -1.6875,-0.17187 q 0.17187,-1.89063 1.29687,-2.875 1.14063,-0.98438 3.03125,-0.98438 1.92188,0 3.04688,1.0625 1.125,1.0625 1.125,2.64063 0,0.79687 -0.32813,1.57812 -0.32812,0.78125 -1.09375,1.64063 -0.75,0.84375 -2.53125,2.34375 -1.46875,1.23437 -1.89062,1.6875 -0.42188,0.4375 -0.6875,0.875 z"
       fill-rule="nonzero"
       id="path237" />
    <path
       fill="#000000"
       fill-opacity="0"
       d="m 229.46457,296.09055 h 39.59055 v 32.8504 h -39.59055 z"
       fill-rule="evenodd"
       id="path239" />
    <path
       fill="#000000"
       d="m 239.05832,318.99493 v -1.64063 h 5.03125 v 1.64063 z m 15.00955,2.4375 v 1.57812 h -8.82812 q -0.0156,-0.59375 0.1875,-1.14062 0.34375,-0.90625 1.07812,-1.78125 0.75,-0.875 2.15625,-2.01563 2.17188,-1.78125 2.9375,-2.82812 0.76563,-1.04688 0.76563,-1.96875 0,-0.98438 -0.70313,-1.64063 -0.6875,-0.67187 -1.8125,-0.67187 -1.1875,0 -1.90625,0.71875 -0.70312,0.70312 -0.70312,1.95312 l -1.6875,-0.17187 q 0.17187,-1.89063 1.29687,-2.875 1.14063,-0.98438 3.03125,-0.98438 1.92188,0 3.04688,1.0625 1.125,1.0625 1.125,2.64063 0,0.79687 -0.32813,1.57812 -0.32812,0.78125 -1.09375,1.64063 -0.75,0.84375 -2.53125,2.34375 -1.46875,1.23437 -1.89062,1.6875 -0.42188,0.4375 -0.6875,0.875 z"
       fill-rule="nonzero"
       id="path241" />
    <path
       fill="#000000"
       fill-opacity="0"
       d="m 181.46457,296.09055 h 39.59055 v 32.8504 h -39.59055 z"
       fill-rule="evenodd"
       id="path243" />
    <path
       fill="#000000"
       d="m 191.05832,318.99493 v -1.64063 h 5.03125 v 1.64063 z m 15.00955,2.4375 v 1.57812 h -8.82812 q -0.0156,-0.59375 0.1875,-1.14062 0.34375,-0.90625 1.07812,-1.78125 0.75,-0.875 2.15625,-2.01563 2.17188,-1.78125 2.9375,-2.82812 0.76563,-1.04688 0.76563,-1.96875 0,-0.98438 -0.70313,-1.64063 -0.6875,-0.67187 -1.8125,-0.67187 -1.1875,0 -1.90625,0.71875 -0.70312,0.70312 -0.70312,1.95312 l -1.6875,-0.17187 q 0.17187,-1.89063 1.29687,-2.875 1.14063,-0.98438 3.03125,-0.98438 1.92188,0 3.04688,1.0625 1.125,1.0625 1.125,2.64063 0,0.79687 -0.32813,1.57812 -0.32812,0.78125 -1.09375,1.64063 -0.75,0.84375 -2.53125,2.34375 -1.46875,1.23437 -1.89062,1.6875 -0.42188,0.4375 -0.6875,0.875 z"
       fill-rule="nonzero"
       id="path245" />
    <path
       fill="#000000"
       fill-opacity="0"
       d="m 125.46457,296.09055 h 39.59055 v 32.8504 h -39.59055 z"
       fill-rule="evenodd"
       id="path247" />
    <path
       fill="#000000"
       d="m 135.05832,318.99493 v -1.64063 h 5.03125 v 1.64063 z m 15.00955,2.4375 v 1.57812 h -8.82812 q -0.0156,-0.59375 0.1875,-1.14062 0.34375,-0.90625 1.07812,-1.78125 0.75,-0.875 2.15625,-2.01563 2.17188,-1.78125 2.9375,-2.82812 0.76563,-1.04688 0.76563,-1.96875 0,-0.98438 -0.70313,-1.64063 -0.6875,-0.67187 -1.8125,-0.67187 -1.1875,0 -1.90625,0.71875 -0.70312,0.70312 -0.70312,1.95312 l -1.6875,-0.17187 q 0.17187,-1.89063 1.29687,-2.875 1.14063,-0.98438 3.03125,-0.98438 1.92188,0 3.04688,1.0625 1.125,1.0625 1.125,2.64063 0,0.79687 -0.32813,1.57812 -0.32812,0.78125 -1.09375,1.64063 -0.75,0.84375 -2.53125,2.34375 -1.46875,1.23437 -1.89062,1.6875 -0.42188,0.4375 -0.6875,0.875 z"
       fill-rule="nonzero"
       id="path249" />
    <path
       fill="#000000"
       fill-opacity="0"
       d="m 279.48557,200.08923 h 39.59055 v 32.8504 h -39.59055 z"
       fill-rule="evenodd"
       id="path251" />
    <path
       fill="#000000"
       d="m 289.0793,222.9936 v -1.64063 h 5.03125 v 1.64063 z m 6.40018,0.48437 1.64062,-0.21875 q 0.28125,1.40625 0.95313,2.01563 0.6875,0.60937 1.65625,0.60937 1.15625,0 1.95312,-0.79687 0.79688,-0.79688 0.79688,-1.98438 0,-1.125 -0.73438,-1.85937 -0.73437,-0.73438 -1.875,-0.73438 -0.46875,0 -1.15625,0.17188 l 0.1875,-1.4375 q 0.15625,0.0156 0.26563,0.0156 1.04687,0 1.875,-0.54687 0.84375,-0.54688 0.84375,-1.67188 0,-0.90625 -0.60938,-1.5 -0.60937,-0.59375 -1.57812,-0.59375 -0.95313,0 -1.59375,0.60938 -0.64063,0.59375 -0.8125,1.79687 l -1.64063,-0.29687 q 0.29688,-1.64063 1.35938,-2.54688 1.0625,-0.90625 2.65625,-0.90625 1.09375,0 2,0.46875 0.92187,0.46875 1.40625,1.28125 0.5,0.8125 0.5,1.71875 0,0.85938 -0.46875,1.57813 -0.46875,0.70312 -1.375,1.125 1.1875,0.28125 1.84375,1.14062 0.65625,0.85938 0.65625,2.15625 0,1.73438 -1.28125,2.95313 -1.26563,1.21875 -3.21875,1.21875 -1.76563,0 -2.92188,-1.04688 -1.15625,-1.04687 -1.32812,-2.71875 z"
       fill-rule="nonzero"
       id="path253" />
    <path
       fill="#000000"
       fill-opacity="0"
       d="m 279.48557,248.09055 h 39.59055 v 32.8504 h -39.59055 z"
       fill-rule="evenodd"
       id="path255" />
    <path
       fill="#000000"
       d="m 289.0793,270.99493 v -1.64063 h 5.03125 v 1.64063 z m 6.40018,0.48437 1.64062,-0.21875 q 0.28125,1.40625 0.95313,2.01563 0.6875,0.60937 1.65625,0.60937 1.15625,0 1.95312,-0.79687 0.79688,-0.79688 0.79688,-1.98438 0,-1.125 -0.73438,-1.85937 -0.73437,-0.73438 -1.875,-0.73438 -0.46875,0 -1.15625,0.17188 l 0.1875,-1.4375 q 0.15625,0.0156 0.26563,0.0156 1.04687,0 1.875,-0.54687 0.84375,-0.54688 0.84375,-1.67188 0,-0.90625 -0.60938,-1.5 -0.60937,-0.59375 -1.57812,-0.59375 -0.95313,0 -1.59375,0.60938 -0.64063,0.59375 -0.8125,1.79687 l -1.64063,-0.29687 q 0.29688,-1.64063 1.35938,-2.54688 1.0625,-0.90625 2.65625,-0.90625 1.09375,0 2,0.46875 0.92187,0.46875 1.40625,1.28125 0.5,0.8125 0.5,1.71875 0,0.85938 -0.46875,1.57813 -0.46875,0.70312 -1.375,1.125 1.1875,0.28125 1.84375,1.14062 0.65625,0.85938 0.65625,2.15625 0,1.73438 -1.28125,2.95313 -1.26563,1.21875 -3.21875,1.21875 -1.76563,0 -2.92188,-1.04688 -1.15625,-1.04687 -1.32812,-2.71875 z"
       fill-rule="nonzero"
       id="path257" />
    <path
       fill="#000000"
       fill-opacity="0"
       d="m 279.48557,296.09055 h 39.59055 v 32.8504 h -39.59055 z"
       fill-rule="evenodd"
       id="path259" />
    <path
       fill="#000000"
       d="m 289.0793,318.99493 v -1.64063 h 5.03125 v 1.64063 z m 6.40018,0.48437 1.64062,-0.21875 q 0.28125,1.40625 0.95313,2.01563 0.6875,0.60937 1.65625,0.60937 1.15625,0 1.95312,-0.79687 0.79688,-0.79688 0.79688,-1.98438 0,-1.125 -0.73438,-1.85937 -0.73437,-0.73438 -1.875,-0.73438 -0.46875,0 -1.15625,0.17188 l 0.1875,-1.4375 q 0.15625,0.0156 0.26563,0.0156 1.04687,0 1.875,-0.54687 0.84375,-0.54688 0.84375,-1.67188 0,-0.90625 -0.60938,-1.5 -0.60937,-0.59375 -1.57812,-0.59375 -0.95313,0 -1.59375,0.60938 -0.64063,0.59375 -0.8125,1.79687 l -1.64063,-0.29687 q 0.29688,-1.64063 1.35938,-2.54688 1.0625,-0.90625 2.65625,-0.90625 1.09375,0 2,0.46875 0.92187,0.46875 1.40625,1.28125 0.5,0.8125 0.5,1.71875 0,0.85938 -0.46875,1.57813 -0.46875,0.70312 -1.375,1.125 1.1875,0.28125 1.84375,1.14062 0.65625,0.85938 0.65625,2.15625 0,1.73438 -1.28125,2.95313 -1.26563,1.21875 -3.21875,1.21875 -1.76563,0 -2.92188,-1.04688 -1.15625,-1.04687 -1.32812,-2.71875 z"
       fill-rule="nonzero"
       id="path261" />
    <path
       fill="#000000"
       fill-opacity="0"
       d="m 279.48557,352.09055 h 39.59055 v 32.8504 h -39.59055 z"
       fill-rule="evenodd"
       id="path263" />
    <path
       fill="#000000"
       d="m 289.0793,374.99493 v -1.64063 h 5.03125 v 1.64063 z m 6.40018,0.48437 1.64062,-0.21875 q 0.28125,1.40625 0.95313,2.01563 0.6875,0.60937 1.65625,0.60937 1.15625,0 1.95312,-0.79687 0.79688,-0.79688 0.79688,-1.98438 0,-1.125 -0.73438,-1.85937 -0.73437,-0.73438 -1.875,-0.73438 -0.46875,0 -1.15625,0.17188 l 0.1875,-1.4375 q 0.15625,0.0156 0.26563,0.0156 1.04687,0 1.875,-0.54687 0.84375,-0.54688 0.84375,-1.67188 0,-0.90625 -0.60938,-1.5 -0.60937,-0.59375 -1.57812,-0.59375 -0.95313,0 -1.59375,0.60938 -0.64063,0.59375 -0.8125,1.79687 l -1.64063,-0.29687 q 0.29688,-1.64063 1.35938,-2.54688 1.0625,-0.90625 2.65625,-0.90625 1.09375,0 2,0.46875 0.92187,0.46875 1.40625,1.28125 0.5,0.8125 0.5,1.71875 0,0.85938 -0.46875,1.57813 -0.46875,0.70312 -1.375,1.125 1.1875,0.28125 1.84375,1.14062 0.65625,0.85938 0.65625,2.15625 0,1.73438 -1.28125,2.95313 -1.26563,1.21875 -3.21875,1.21875 -1.76563,0 -2.92188,-1.04688 -1.15625,-1.04687 -1.32812,-2.71875 z"
       fill-rule="nonzero"
       id="path265" />
    <path
       fill="#000000"
       fill-opacity="0"
       d="m 231.48557,352.09055 h 39.59055 v 32.8504 h -39.59055 z"
       fill-rule="evenodd"
       id="path267" />
    <path
       fill="#000000"
       d="m 241.07932,374.99493 v -1.64063 h 5.03125 v 1.64063 z m 6.40018,0.48437 1.64062,-0.21875 q 0.28125,1.40625 0.95313,2.01563 0.6875,0.60937 1.65625,0.60937 1.15625,0 1.95312,-0.79687 0.79688,-0.79688 0.79688,-1.98438 0,-1.125 -0.73438,-1.85937 -0.73437,-0.73438 -1.875,-0.73438 -0.46875,0 -1.15625,0.17188 l 0.1875,-1.4375 q 0.15625,0.0156 0.26563,0.0156 1.04687,0 1.875,-0.54687 0.84375,-0.54688 0.84375,-1.67188 0,-0.90625 -0.60938,-1.5 -0.60937,-0.59375 -1.57812,-0.59375 -0.95313,0 -1.59375,0.60938 -0.64063,0.59375 -0.8125,1.79687 l -1.64063,-0.29687 q 0.29688,-1.64063 1.35938,-2.54688 1.0625,-0.90625 2.65625,-0.90625 1.09375,0 2,0.46875 0.92187,0.46875 1.40625,1.28125 0.5,0.8125 0.5,1.71875 0,0.85938 -0.46875,1.57813 -0.46875,0.70312 -1.375,1.125 1.1875,0.28125 1.84375,1.14062 0.65625,0.85938 0.65625,2.15625 0,1.73438 -1.28125,2.95313 -1.26563,1.21875 -3.21875,1.21875 -1.76563,0 -2.92188,-1.04688 -1.15625,-1.04687 -1.32812,-2.71875 z"
       fill-rule="nonzero"
       id="path269" />
    <path
       fill="#000000"
       fill-opacity="0"
       d="m 175.48557,352.09055 h 39.59055 v 32.8504 h -39.59055 z"
       fill-rule="evenodd"
       id="path271" />
    <path
       fill="#000000"
       d="m 185.07932,374.99493 v -1.64063 h 5.03125 v 1.64063 z m 6.40018,0.48437 1.64062,-0.21875 q 0.28125,1.40625 0.95313,2.01563 0.6875,0.60937 1.65625,0.60937 1.15625,0 1.95312,-0.79687 0.79688,-0.79688 0.79688,-1.98438 0,-1.125 -0.73438,-1.85937 -0.73437,-0.73438 -1.875,-0.73438 -0.46875,0 -1.15625,0.17188 l 0.1875,-1.4375 q 0.15625,0.0156 0.26563,0.0156 1.04687,0 1.875,-0.54687 0.84375,-0.54688 0.84375,-1.67188 0,-0.90625 -0.60938,-1.5 -0.60937,-0.59375 -1.57812,-0.59375 -0.95313,0 -1.59375,0.60938 -0.64063,0.59375 -0.8125,1.79687 l -1.64063,-0.29687 q 0.29688,-1.64063 1.35938,-2.54688 1.0625,-0.90625 2.65625,-0.90625 1.09375,0 2,0.46875 0.92187,0.46875 1.40625,1.28125 0.5,0.8125 0.5,1.71875 0,0.85938 -0.46875,1.57813 -0.46875,0.70312 -1.375,1.125 1.1875,0.28125 1.84375,1.14062 0.65625,0.85938 0.65625,2.15625 0,1.73438 -1.28125,2.95313 -1.26563,1.21875 -3.21875,1.21875 -1.76563,0 -2.92188,-1.04688 -1.15625,-1.04687 -1.32812,-2.71875 z"
       fill-rule="nonzero"
       id="path273" />
    <path
       fill="#000000"
       fill-opacity="0"
       d="m 127.48556,352.09055 h 39.59055 v 32.8504 h -39.59055 z"
       fill-rule="evenodd"
       id="path275" />
    <path
       fill="#000000"
       d="m 137.07932,374.99493 v -1.64063 h 5.03125 v 1.64063 z m 6.40018,0.48437 1.64062,-0.21875 q 0.28125,1.40625 0.95313,2.01563 0.6875,0.60937 1.65625,0.60937 1.15625,0 1.95312,-0.79687 0.79688,-0.79688 0.79688,-1.98438 0,-1.125 -0.73438,-1.85937 -0.73437,-0.73438 -1.875,-0.73438 -0.46875,0 -1.15625,0.17188 l 0.1875,-1.4375 q 0.15625,0.0156 0.26563,0.0156 1.04687,0 1.875,-0.54687 0.84375,-0.54688 0.84375,-1.67188 0,-0.90625 -0.60938,-1.5 -0.60937,-0.59375 -1.57812,-0.59375 -0.95313,0 -1.59375,0.60938 -0.64063,0.59375 -0.8125,1.79687 l -1.64063,-0.29687 q 0.29688,-1.64063 1.35938,-2.54688 1.0625,-0.90625 2.65625,-0.90625 1.09375,0 2,0.46875 0.92187,0.46875 1.40625,1.28125 0.5,0.8125 0.5,1.71875 0,0.85938 -0.46875,1.57813 -0.46875,0.70312 -1.375,1.125 1.1875,0.28125 1.84375,1.14062 0.65625,0.85938 0.65625,2.15625 0,1.73438 -1.28125,2.95313 -1.26563,1.21875 -3.21875,1.21875 -1.76563,0 -2.92188,-1.04688 -1.15625,-1.04687 -1.32812,-2.71875 z"
       fill-rule="nonzero"
       id="path277" />
    <path
       fill="#000000"
       fill-opacity="0"
       d="m 433.42258,256.09055 h 39.59055 v 32.8504 h -39.59055 z"
       fill-rule="evenodd"
       id="path279" />
    <path
       fill="#000000"
       d="m 443.20383,276.4168 q 0,-2.35937 0.48437,-3.79687 0.48438,-1.45313 1.4375,-2.23438 0.96875,-0.78125 2.42188,-0.78125 1.07812,0 1.89062,0.4375 0.8125,0.42188 1.32813,1.25 0.53125,0.8125 0.82812,1.98438 0.3125,1.15625 0.3125,3.14062 0,2.35938 -0.48437,3.8125 -0.48438,1.4375 -1.45313,2.23438 -0.95312,0.78125 -2.42187,0.78125 -1.92188,0 -3.03125,-1.39063 -1.3125,-1.67187 -1.3125,-5.4375 z m 1.67187,0 q 0,3.29688 0.76563,4.39063 0.78125,1.07812 1.90625,1.07812 1.14062,0 1.90625,-1.09375 0.76562,-1.09375 0.76562,-4.375 0,-3.29687 -0.76562,-4.375 -0.76563,-1.07812 -1.92188,-1.07812 -1.125,0 -1.79687,0.95312 -0.85938,1.21875 -0.85938,4.5 z"
       fill-rule="nonzero"
       id="path281" />
    <path
       fill="#000000"
       fill-opacity="0"
       d="m 483.44357,256.09055 h 39.59055 v 32.8504 h -39.59055 z"
       fill-rule="evenodd"
       id="path283" />
    <path
       fill="#000000"
       d="m 493.03732,278.99493 v -1.64063 h 5.03125 v 1.64063 z m 12.57205,4.01562 h -1.64062 v -10.45312 q -0.59375,0.5625 -1.5625,1.14062 -0.95313,0.5625 -1.71875,0.84375 v -1.59375 q 1.375,-0.64062 2.40625,-1.5625 1.03125,-0.92187 1.45312,-1.78125 h 1.0625 z"
       fill-rule="nonzero"
       id="path285" />
    <path
       fill="#000000"
       fill-opacity="0"
       d="m 483.44357,304.09055 h 39.59055 v 32.8504 h -39.59055 z"
       fill-rule="evenodd"
       id="path287" />
    <path
       fill="#000000"
       d="m 493.03732,326.99493 v -1.64063 h 5.03125 v 1.64063 z m 12.57205,4.01562 h -1.64062 v -10.45312 q -0.59375,0.5625 -1.5625,1.14062 -0.95313,0.5625 -1.71875,0.84375 v -1.59375 q 1.375,-0.64062 2.40625,-1.5625 1.03125,-0.92187 1.45312,-1.78125 h 1.0625 z"
       fill-rule="nonzero"
       id="path289" />
    <path
       fill="#000000"
       fill-opacity="0"
       d="m 435.44357,304.09055 h 39.59055 v 32.8504 h -39.59055 z"
       fill-rule="evenodd"
       id="path291" />
    <path
       fill="#000000"
       d="m 445.03732,326.99493 v -1.64063 h 5.03125 v 1.64063 z m 12.57205,4.01562 h -1.64062 v -10.45312 q -0.59375,0.5625 -1.5625,1.14062 -0.95313,0.5625 -1.71875,0.84375 v -1.59375 q 1.375,-0.64062 2.40625,-1.5625 1.03125,-0.92187 1.45312,-1.78125 h 1.0625 z"
       fill-rule="nonzero"
       id="path293" />
    <path
       fill="#000000"
       fill-opacity="0"
       d="m 533.46454,256.09055 h 39.59058 v 32.8504 h -39.59058 z"
       fill-rule="evenodd"
       id="path295" />
    <path
       fill="#000000"
       d="m 543.0583,278.99493 v -1.64063 h 5.03125 v 1.64063 z m 15.00958,2.4375 v 1.57812 h -8.82812 q -0.0156,-0.59375 0.1875,-1.14062 0.34375,-0.90625 1.07812,-1.78125 0.75,-0.875 2.15625,-2.01563 2.17188,-1.78125 2.9375,-2.82812 0.76563,-1.04688 0.76563,-1.96875 0,-0.98438 -0.70313,-1.64063 -0.6875,-0.67187 -1.8125,-0.67187 -1.1875,0 -1.90625,0.71875 -0.70312,0.70312 -0.70312,1.95312 l -1.6875,-0.17187 q 0.17187,-1.89063 1.29687,-2.875 1.14063,-0.98438 3.03125,-0.98438 1.92188,0 3.04688,1.0625 1.125,1.0625 1.125,2.64063 0,0.79687 -0.32813,1.57812 -0.32812,0.78125 -1.09375,1.64063 -0.75,0.84375 -2.53125,2.34375 -1.46875,1.23437 -1.89062,1.6875 -0.42188,0.4375 -0.6875,0.875 z"
       fill-rule="nonzero"
       id="path297" />
    <path
       fill="#000000"
       fill-opacity="0"
       d="m 533.46454,304.09055 h 39.59058 v 32.8504 h -39.59058 z"
       fill-rule="evenodd"
       id="path299" />
    <path
       fill="#000000"
       d="m 543.0583,326.99493 v -1.64063 h 5.03125 v 1.64063 z m 15.00958,2.4375 v 1.57812 h -8.82812 q -0.0156,-0.59375 0.1875,-1.14062 0.34375,-0.90625 1.07812,-1.78125 0.75,-0.875 2.15625,-2.01563 2.17188,-1.78125 2.9375,-2.82812 0.76563,-1.04688 0.76563,-1.96875 0,-0.98438 -0.70313,-1.64063 -0.6875,-0.67187 -1.8125,-0.67187 -1.1875,0 -1.90625,0.71875 -0.70312,0.70312 -0.70312,1.95312 l -1.6875,-0.17187 q 0.17187,-1.89063 1.29687,-2.875 1.14063,-0.98438 3.03125,-0.98438 1.92188,0 3.04688,1.0625 1.125,1.0625 1.125,2.64063 0,0.79687 -0.32813,1.57812 -0.32812,0.78125 -1.09375,1.64063 -0.75,0.84375 -2.53125,2.34375 -1.46875,1.23437 -1.89062,1.6875 -0.42188,0.4375 -0.6875,0.875 z"
       fill-rule="nonzero"
       id="path301" />
    <path
       fill="#000000"
       fill-opacity="0"
       d="m 533.46454,352.09055 h 39.59058 v 32.8504 h -39.59058 z"
       fill-rule="evenodd"
       id="path303" />
    <path
       fill="#000000"
       d="m 543.0583,374.99493 v -1.64063 h 5.03125 v 1.64063 z m 15.00958,2.4375 v 1.57812 h -8.82812 q -0.0156,-0.59375 0.1875,-1.14062 0.34375,-0.90625 1.07812,-1.78125 0.75,-0.875 2.15625,-2.01563 2.17188,-1.78125 2.9375,-2.82812 0.76563,-1.04688 0.76563,-1.96875 0,-0.98438 -0.70313,-1.64063 -0.6875,-0.67187 -1.8125,-0.67187 -1.1875,0 -1.90625,0.71875 -0.70312,0.70312 -0.70312,1.95312 l -1.6875,-0.17187 q 0.17187,-1.89063 1.29687,-2.875 1.14063,-0.98438 3.03125,-0.98438 1.92188,0 3.04688,1.0625 1.125,1.0625 1.125,2.64063 0,0.79687 -0.32813,1.57812 -0.32812,0.78125 -1.09375,1.64063 -0.75,0.84375 -2.53125,2.34375 -1.46875,1.23437 -1.89062,1.6875 -0.42188,0.4375 -0.6875,0.875 z"
       fill-rule="nonzero"
       id="path305" />
    <path
       fill="#000000"
       fill-opacity="0"
       d="m 485.46457,352.09055 h 39.59055 v 32.8504 h -39.59055 z"
       fill-rule="evenodd"
       id="path307" />
    <path
       fill="#000000"
       d="m 495.05832,374.99493 v -1.64063 h 5.03125 v 1.64063 z m 15.00955,2.4375 v 1.57812 h -8.82812 q -0.0156,-0.59375 0.1875,-1.14062 0.34375,-0.90625 1.07812,-1.78125 0.75,-0.875 2.15625,-2.01563 2.17188,-1.78125 2.9375,-2.82812 0.76563,-1.04688 0.76563,-1.96875 0,-0.98438 -0.70313,-1.64063 -0.6875,-0.67187 -1.8125,-0.67187 -1.1875,0 -1.90625,0.71875 -0.70312,0.70312 -0.70312,1.95312 l -1.6875,-0.17187 q 0.17187,-1.89063 1.29687,-2.875 1.14063,-0.98438 3.03125,-0.98438 1.92188,0 3.04688,1.0625 1.125,1.0625 1.125,2.64063 0,0.79687 -0.32813,1.57812 -0.32812,0.78125 -1.09375,1.64063 -0.75,0.84375 -2.53125,2.34375 -1.46875,1.23437 -1.89062,1.6875 -0.42188,0.4375 -0.6875,0.875 z"
       fill-rule="nonzero"
       id="path309" />
    <path
       fill="#000000"
       fill-opacity="0"
       d="m 429.46457,352.09055 h 39.59055 v 32.8504 h -39.59055 z"
       fill-rule="evenodd"
       id="path311" />
    <path
       fill="#000000"
       d="m 439.05832,374.99493 v -1.64063 h 5.03125 v 1.64063 z m 15.00955,2.4375 v 1.57812 h -8.82812 q -0.0156,-0.59375 0.1875,-1.14062 0.34375,-0.90625 1.07812,-1.78125 0.75,-0.875 2.15625,-2.01563 2.17188,-1.78125 2.9375,-2.82812 0.76563,-1.04688 0.76563,-1.96875 0,-0.98438 -0.70313,-1.64063 -0.6875,-0.67187 -1.8125,-0.67187 -1.1875,0 -1.90625,0.71875 -0.70312,0.70312 -0.70312,1.95312 l -1.6875,-0.17187 q 0.17187,-1.89063 1.29687,-2.875 1.14063,-0.98438 3.03125,-0.98438 1.92188,0 3.04688,1.0625 1.125,1.0625 1.125,2.64063 0,0.79687 -0.32813,1.57812 -0.32812,0.78125 -1.09375,1.64063 -0.75,0.84375 -2.53125,2.34375 -1.46875,1.23437 -1.89062,1.6875 -0.42188,0.4375 -0.6875,0.875 z"
       fill-rule="nonzero"
       id="path313" />
    <path
       fill="#000000"
       fill-opacity="0"
       d="m 737.42255,304.09055 h 39.59058 v 32.8504 h -39.59058 z"
       fill-rule="evenodd"
       id="path315" />
    <path
       fill="#000000"
       d="m 747.2038,324.4168 q 0,-2.35937 0.48437,-3.79687 0.48438,-1.45313 1.4375,-2.23438 0.96875,-0.78125 2.42188,-0.78125 1.07812,0 1.89062,0.4375 0.8125,0.42188 1.32813,1.25 0.53125,0.8125 0.82812,1.98438 0.3125,1.15625 0.3125,3.14062 0,2.35938 -0.48437,3.8125 -0.48438,1.4375 -1.45313,2.23438 -0.95312,0.78125 -2.42187,0.78125 -1.92188,0 -3.03125,-1.39063 -1.3125,-1.67187 -1.3125,-5.4375 z m 1.67187,0 q 0,3.29688 0.76563,4.39063 0.78125,1.07812 1.90625,1.07812 1.14062,0 1.90625,-1.09375 0.76562,-1.09375 0.76562,-4.375 0,-3.29687 -0.76562,-4.375 -0.76563,-1.07812 -1.92188,-1.07812 -1.125,0 -1.79687,0.95312 -0.85938,1.21875 -0.85938,4.5 z"
       fill-rule="nonzero"
       id="path317" />
    <path
       fill="#000000"
       fill-opacity="0"
       d="m 787.44354,304.09055 h 39.59058 v 32.8504 h -39.59058 z"
       fill-rule="evenodd"
       id="path319" />
    <path
       fill="#000000"
       d="m 797.0373,326.99493 v -1.64063 h 5.03125 v 1.64063 z m 12.57208,4.01562 h -1.64062 v -10.45312 q -0.59375,0.5625 -1.5625,1.14062 -0.95313,0.5625 -1.71875,0.84375 v -1.59375 q 1.375,-0.64062 2.40625,-1.5625 1.03125,-0.92187 1.45312,-1.78125 h 1.0625 z"
       fill-rule="nonzero"
       id="path321" />
    <path
       fill="#000000"
       fill-opacity="0"
       d="m 787.44354,352.09055 h 39.59058 v 32.8504 h -39.59058 z"
       fill-rule="evenodd"
       id="path323" />
    <path
       fill="#000000"
       d="m 797.0373,374.99493 v -1.64063 h 5.03125 v 1.64063 z m 12.57208,4.01562 h -1.64062 v -10.45312 q -0.59375,0.5625 -1.5625,1.14062 -0.95313,0.5625 -1.71875,0.84375 v -1.59375 q 1.375,-0.64062 2.40625,-1.5625 1.03125,-0.92187 1.45312,-1.78125 h 1.0625 z"
       fill-rule="nonzero"
       id="path325" />
    <path
       fill="#000000"
       fill-opacity="0"
       d="m 739.44354,352.09055 h 39.59058 v 32.8504 h -39.59058 z"
       fill-rule="evenodd"
       id="path327" />
    <path
       fill="#000000"
       d="m 749.0373,374.99493 v -1.64063 h 5.03125 v 1.64063 z m 12.57208,4.01562 h -1.64062 v -10.45312 q -0.59375,0.5625 -1.5625,1.14062 -0.95313,0.5625 -1.71875,0.84375 v -1.59375 q 1.375,-0.64062 2.40625,-1.5625 1.03125,-0.92187 1.45312,-1.78125 h 1.0625 z"
       fill-rule="nonzero"
       id="path329" />
    <path
       fill="#000000"
       fill-opacity="0"
       d="m 210.13649,271.71127 c 22.23534,4.64218 96.35344,26.63126 133.41206,27.85303 37.05862,1.2218 74.11636,-17.10193 88.93964,-20.52231"
       fill-rule="evenodd"
       id="path331" />
    <path
       stroke="#ff0000"
       stroke-width="3"
       stroke-linejoin="round"
       stroke-linecap="butt"
       d="m 210.13649,271.71127 c 22.23534,4.64218 96.35344,26.63126 133.41206,27.85303 18.5293,0.6109 37.05841,-3.66458 52.80807,-8.52033 7.87485,-2.42789 15.05478,-5.00082 21.19254,-7.18057 1.53442,-0.54495 3.00375,-1.06531 4.40244,-1.55267 l 0.71002,-0.24494"
       fill-rule="evenodd"
       id="path333" />
    <path
       fill="#ff0000"
       stroke="#ff0000"
       stroke-width="3"
       stroke-linecap="butt"
       d="m 422.66165,282.06577 -2.2323,4.2168 7.8671,-5.95072 -9.8516,-0.49838 z"
       fill-rule="evenodd"
       id="path335" />
    <path
       fill="#000000"
       fill-opacity="0"
       d="m 513.8963,326.4987 c 22.23535,4.64218 96.35346,26.63123 133.41211,27.85303 37.05859,1.22177 74.11633,-17.10193 88.93964,-20.52231"
       fill-rule="evenodd"
       id="path337" />
    <path
       stroke="#ff0000"
       stroke-width="3"
       stroke-linejoin="round"
       stroke-linecap="butt"
       d="m 513.8963,326.4987 c 22.23541,4.64215 96.35352,26.63123 133.41211,27.85303 18.5293,0.61087 37.05841,-3.66458 52.80804,-8.52036 7.87488,-2.42789 15.05481,-5.00082 21.19263,-7.18057 1.53436,-0.54495 3.00366,-1.06531 4.40234,-1.55267 l 0.71009,-0.24494"
       fill-rule="evenodd"
       id="path339" />
    <path
       fill="#ff0000"
       stroke="#ff0000"
       stroke-width="3"
       stroke-linecap="butt"
       d="m 726.4215,336.85318 -2.2323,4.2168 7.86707,-5.95072 -9.85157,-0.49838 z"
       fill-rule="evenodd"
       id="path341" />
    <path
       fill="#000000"
       fill-opacity="0"
       d="m 155.5748,222.84251 h 25.88977"
       fill-rule="evenodd"
       id="path343" />
    <path
       stroke="#ff0000"
       stroke-width="2"
       stroke-linejoin="round"
       stroke-linecap="butt"
       d="m 155.5748,222.84251 h 13.88977"
       fill-rule="evenodd"
       id="path345" />
    <path
       fill="#ff0000"
       stroke="#ff0000"
       stroke-width="2"
       stroke-linecap="butt"
       d="m 169.46457,226.14598 9.07619,-3.30347 -9.07619,-3.30346 z"
       fill-rule="evenodd"
       id="path347" />
    <path
       fill="#000000"
       fill-opacity="0"
       d="m 194.8307,232.94226 0.44095,24.56692"
       fill-rule="evenodd"
       id="path349" />
    <path
       stroke="#ff0000"
       stroke-width="2"
       stroke-linejoin="round"
       stroke-linecap="butt"
       d="m 194.8307,232.94226 0.2256,12.56885"
       fill-rule="evenodd"
       id="path351" />
    <path
       fill="#ff0000"
       stroke="#ff0000"
       stroke-width="2"
       stroke-linecap="butt"
       d="m 191.75337,245.5704 3.4658,9.01544 3.14007,-9.134 z"
       fill-rule="evenodd"
       id="path353" />
    <path
       fill="#000000"
       fill-opacity="0"
       d="m 459.5748,270.84253 h 25.88977"
       fill-rule="evenodd"
       id="path355" />
    <path
       stroke="#ff0000"
       stroke-width="2"
       stroke-linejoin="round"
       stroke-linecap="butt"
       d="m 459.5748,270.84253 h 13.88977"
       fill-rule="evenodd"
       id="path357" />
    <path
       fill="#ff0000"
       stroke="#ff0000"
       stroke-width="2"
       stroke-linecap="butt"
       d="m 473.46457,274.146 9.0762,-3.30347 -9.0762,-3.30346 z"
       fill-rule="evenodd"
       id="path359" />
    <path
       fill="#000000"
       fill-opacity="0"
       d="m 498.83072,288.94226 0.44095,24.56692"
       fill-rule="evenodd"
       id="path361" />
    <path
       stroke="#ff0000"
       stroke-width="2"
       stroke-linejoin="round"
       stroke-linecap="butt"
       d="m 498.83072,288.94226 0.22559,12.56885"
       fill-rule="evenodd"
       id="path363" />
    <path
       fill="#ff0000"
       stroke="#ff0000"
       stroke-width="2"
       stroke-linecap="butt"
       d="m 495.75336,301.5704 3.46582,9.01544 3.14005,-9.134 z"
       fill-rule="evenodd"
       id="path365" />
    <path
       fill="#000000"
       fill-opacity="0"
       d="m 764.8793,324.96063 h 25.88977"
       fill-rule="evenodd"
       id="path367" />
    <path
       stroke="#ff0000"
       stroke-width="2"
       stroke-linejoin="round"
       stroke-linecap="butt"
       d="m 764.8793,324.96063 h 13.88977"
       fill-rule="evenodd"
       id="path369" />
    <path
       fill="#ff0000"
       stroke="#ff0000"
       stroke-width="2"
       stroke-linecap="butt"
       d="m 778.76904,328.2641 9.07617,-3.30347 -9.07617,-3.30346 z"
       fill-rule="evenodd"
       id="path371" />
    <path
       fill="#000000"
       fill-opacity="0"
       d="m 805.85956,336.94226 0.44098,24.56692"
       fill-rule="evenodd"
       id="path373" />
    <path
       stroke="#ff0000"
       stroke-width="2"
       stroke-linejoin="round"
       stroke-linecap="butt"
       d="m 805.85956,336.94226 0.22559,12.56885"
       fill-rule="evenodd"
       id="path375" />
    <path
       fill="#ff0000"
       stroke="#ff0000"
       stroke-width="2"
       stroke-linecap="butt"
       d="m 802.7822,349.5704 3.46582,9.01544 3.14008,-9.134 z"
       fill-rule="evenodd"
       id="path377" />
  </g>
</svg>
