<?xml version="1.0" encoding="UTF-8" standalone="no"?>
<svg
   xmlns:dc="http://purl.org/dc/elements/1.1/"
   xmlns:cc="http://creativecommons.org/ns#"
   xmlns:rdf="http://www.w3.org/1999/02/22-rdf-syntax-ns#"
   xmlns:svg="http://www.w3.org/2000/svg"
   xmlns="http://www.w3.org/2000/svg"
   xmlns:sodipodi="http://sodipodi.sourceforge.net/DTD/sodipodi-0.dtd"
   xmlns:inkscape="http://www.inkscape.org/namespaces/inkscape"
   version="1.1"
   viewBox="0 0 773.5039 334.66931"
   fill="none"
   stroke="none"
   stroke-linecap="square"
   stroke-miterlimit="10"
   id="svg137"
   sodipodi:docname="starpu_handles1.svg"
   inkscape:version="1.0.1 (3bc2e813f5, 2020-09-07)"
   width="773.50391"
   height="334.66931"
   inkscape:export-filename="/home/mirko/Task-based-parallelism/content/img/starpu_handles1.png"
   inkscape:export-xdpi="120"
   inkscape:export-ydpi="120">
  <metadata
     id="metadata143">
    <rdf:RDF>
      <cc:Work
         rdf:about="">
        <dc:format>image/svg+xml</dc:format>
        <dc:type
           rdf:resource="http://purl.org/dc/dcmitype/StillImage" />
        <dc:title></dc:title>
      </cc:Work>
    </rdf:RDF>
  </metadata>
  <defs
     id="defs141" />
  <sodipodi:namedview
     pagecolor="#ffffff"
     bordercolor="#666666"
     borderopacity="1"
     objecttolerance="10"
     gridtolerance="10"
     guidetolerance="10"
     inkscape:pageopacity="0"
     inkscape:pageshadow="2"
     inkscape:window-width="3840"
     inkscape:window-height="2067"
     id="namedview139"
     showgrid="false"
     inkscape:zoom="1.3574074"
     inkscape:cx="857.78997"
     inkscape:cy="-122.87484"
     inkscape:window-x="0"
     inkscape:window-y="0"
     inkscape:window-maximized="1"
     inkscape:current-layer="svg137"
     fit-margin-top="0"
     fit-margin-left="0"
     fit-margin-right="0"
     fit-margin-bottom="0" />
  <clipPath
     id="g24d203dcf6_0_550.0">
    <path
       d="M 0,0 H 960 V 540 H 0 Z"
       clip-rule="nonzero"
       id="path2" />
  </clipPath>
  <path
     fill="#ead1dc"
     d="M 0.5,0.5 H 773.0039 V 334.1693 H 0.5 Z"
     fill-rule="evenodd"
     id="path7" />
  <path
     stroke="#595959"
     stroke-width="1"
     stroke-linejoin="round"
     stroke-linecap="butt"
     d="M 0.5,0.5 H 773.0039 V 334.1693 H 0.5 Z"
     fill-rule="evenodd"
     id="path9" />
  <path
     fill="#c9daf8"
     d="m 591.93828,11.73884 h 162.96063 v 306.4252 H 591.93828 Z"
     fill-rule="evenodd"
     id="path11" />
  <path
     stroke="#595959"
     stroke-width="1"
     stroke-linejoin="round"
     stroke-linecap="butt"
     d="m 591.93828,11.73884 h 162.96063 v 306.4252 H 591.93828 Z"
     fill-rule="evenodd"
     id="path13" />
  <path
     fill="#d9ead3"
     d="m 191.93833,11.73884 h 383.62204 v 306.4252 H 191.93833 Z"
     fill-rule="evenodd"
     id="path15" />
  <path
     stroke="#595959"
     stroke-width="1"
     stroke-linejoin="round"
     stroke-linecap="butt"
     d="m 191.93833,11.73884 h 383.62204 v 306.4252 H 191.93833 Z"
     fill-rule="evenodd"
     id="path17" />
  <path
     fill="#000000"
     fill-opacity="0"
     d="m 25.78346,184.24803 h 158.83466 v 39.08661 H 25.78346 Z"
     fill-rule="evenodd"
     id="path23" />
  <path
     fill="#e69138"
     d="m 42.79908,198.79554 v 9.15625 h 0.875 q 0.25,0 0.34375,0.0937 0.10938,0.0781 0.10938,0.23437 0,0.14063 -0.10938,0.23438 -0.0937,0.0937 -0.34375,0.0937 h -1.53125 v -1.3125 q -1.14062,1.57812 -2.90625,1.57812 -0.89062,0 -1.70312,-0.46875 -0.8125,-0.48437 -1.29688,-1.35937 -0.46875,-0.875 -0.46875,-1.8125 0,-0.9375 0.46875,-1.79688 0.48438,-0.875 1.29688,-1.34375 0.8125,-0.48437 1.71875,-0.48437 1.71875,0 2.89062,1.5625 v -3.70313 h -0.875 q -0.25,0 -0.35937,-0.0937 -0.0937,-0.0937 -0.0937,-0.25 0,-0.14062 0.0937,-0.23437 0.10937,-0.0937 0.35937,-0.0937 z m -0.65625,6.4375 q 0,-1.25 -0.84375,-2.10938 -0.84375,-0.85937 -2.01562,-0.85937 -1.17188,0 -2.01563,0.85937 -0.84375,0.85938 -0.84375,2.10938 0,1.25 0.84375,2.10937 0.84375,0.85938 2.01563,0.85938 1.17187,0 2.01562,-0.85938 0.84375,-0.85937 0.84375,-2.10937 z m 10.71095,0 q 0,1.5 -1.07814,2.57812 -1.0625,1.0625 -2.57812,1.0625 -1.53125,0 -2.60938,-1.0625 -1.0625,-1.07812 -1.0625,-2.57812 0,-1.5 1.0625,-2.5625 1.07813,-1.0625 2.60938,-1.0625 1.51562,0 2.57812,1.0625 1.07814,1.0625 1.07814,2.5625 z m -0.65626,0 q 0,-1.23438 -0.89063,-2.09375 -0.875,-0.875 -2.125,-0.875 -1.25,0 -2.125,0.875 -0.875,0.875 -0.875,2.09375 0,1.21875 0.875,2.09375 0.875,0.875 2.125,0.875 1.25,0 2.125,-0.85938 0.89063,-0.875 0.89063,-2.10937 z m 8.83594,3.375 v -0.96875 q -1.34375,1.23437 -2.90625,1.23437 -0.95312,0 -1.45312,-0.53125 -0.65625,-0.6875 -0.65625,-1.60937 v -4.23438 h -0.875 q -0.23438,0 -0.34375,-0.0937 -0.0937,-0.0937 -0.0937,-0.23437 0,-0.14063 0.0937,-0.23438 0.10937,-0.0937 0.34375,-0.0937 h 1.53125 v 4.89063 q 0,0.64062 0.40625,1.0625 0.40625,0.40625 1.01562,0.40625 1.60938,0 2.9375,-1.46875 v -4.23438 h -1.20312 q -0.23438,0 -0.34375,-0.0937 -0.0937,-0.0937 -0.0937,-0.23437 0,-0.14063 0.0937,-0.23438 0.10937,-0.0937 0.34375,-0.0937 h 1.85937 v 6.10938 h 0.5625 q 0.23438,0 0.32813,0.0937 0.10937,0.0781 0.10937,0.23437 0,0.14063 -0.10937,0.23438 -0.0937,0.0937 -0.32813,0.0937 z m 4.88281,-9.8125 v 4.35937 q 1.1875,-1.54687 2.875,-1.54687 1.4375,0 2.45313,1.04687 1.03125,1.03125 1.03125,2.54688 0,1.53125 -1.04688,2.60937 -1.03125,1.0625 -2.4375,1.0625 -1.71875,0 -2.875,-1.5625 v 1.29688 h -1.53125 q -0.23437,0 -0.34375,-0.0937 -0.0937,-0.0937 -0.0937,-0.23438 0,-0.15625 0.0937,-0.23437 0.10938,-0.0937 0.34375,-0.0937 h 0.875 v -8.48438 h -0.875 q -0.23437,0 -0.34375,-0.0937 -0.0937,-0.0937 -0.0937,-0.25 0,-0.14062 0.0937,-0.23437 0.10938,-0.0937 0.34375,-0.0937 z m 5.70313,6.4375 q 0,-1.23438 -0.85938,-2.09375 -0.84375,-0.875 -1.98437,-0.875 -1.14063,0 -2,0.875 -0.84375,0.85937 -0.84375,2.09375 0,1.25 0.84375,2.10937 0.85937,0.85938 2,0.85938 1.14062,0 1.98437,-0.85938 0.85938,-0.85937 0.85938,-2.10937 z m 6.71094,-6.4375 v 9.15625 h 2.57812 q 0.23438,0 0.32813,0.0937 0.10937,0.0781 0.10937,0.23437 0,0.14063 -0.10937,0.23438 -0.0937,0.0937 -0.32813,0.0937 h -5.8125 q -0.23437,0 -0.34375,-0.0937 -0.0937,-0.0937 -0.0937,-0.23438 0,-0.15625 0.0937,-0.23437 0.10938,-0.0937 0.34375,-0.0937 h 2.57813 v -8.48438 h -1.89063 q -0.23437,0 -0.34375,-0.0937 -0.10937,-0.0937 -0.10937,-0.25 0,-0.14062 0.0937,-0.23437 0.10937,-0.0937 0.35937,-0.0937 z m 12.82031,6.57812 h -6.6875 q 0.17187,1.28125 1.0625,2.0625 0.89062,0.76563 2.21875,0.76563 0.73437,0 1.53125,-0.23438 0.8125,-0.25 1.3125,-0.64062 0.15625,-0.125 0.26562,-0.125 0.125,0 0.21875,0.10937 0.0937,0.0937 0.0937,0.21875 0,0.14063 -0.125,0.26563 -0.375,0.39062 -1.34375,0.73437 -0.95312,0.34375 -1.95312,0.34375 -1.6875,0 -2.82813,-1.10937 -1.125,-1.10938 -1.125,-2.6875 0,-1.42188 1.0625,-2.4375 1.0625,-1.03125 2.625,-1.03125 1.60938,0 2.64063,1.04687 1.04687,1.04688 1.03125,2.71875 z m -0.67188,-0.65625 q -0.1875,-1.09375 -1.03125,-1.76562 -0.82812,-0.6875 -1.96875,-0.6875 -1.15625,0 -1.98437,0.67187 -0.82813,0.67188 -1.03125,1.78125 z"
     fill-rule="nonzero"
     id="path25" />
  <path
     fill="#000000"
     d="m 106.4319,201.48304 v -2.23438 q 0,-0.25 0.0937,-0.34375 0.0937,-0.10937 0.25,-0.10937 0.14062,0 0.23437,0.10937 0.0937,0.0937 0.0937,0.34375 v 2.23438 l 2.125,-0.6875 q 0.15625,-0.0469 0.23438,-0.0469 0.125,0 0.21875,0.0937 0.0937,0.0937 0.0937,0.23438 0,0.10937 -0.0781,0.20312 -0.0625,0.0781 -0.26562,0.14063 l -2.125,0.70312 1.3125,1.8125 q 0.125,0.17188 0.125,0.28125 0,0.14063 -0.0937,0.23438 -0.0937,0.0937 -0.23438,0.0937 -0.17187,0 -0.32812,-0.21875 l -1.32813,-1.82813 -1.3125,1.82813 q -0.17187,0.21875 -0.32812,0.21875 -0.14063,0 -0.25,-0.0937 -0.0937,-0.0937 -0.0937,-0.23438 0,-0.10937 0.14062,-0.28125 l 1.3125,-1.8125 -2.14062,-0.70312 q -0.1875,-0.0625 -0.26563,-0.14063 -0.0625,-0.0937 -0.0625,-0.20312 0,-0.14063 0.0937,-0.23438 0.0937,-0.0937 0.21875,-0.0937 0.0781,0 0.23438,0.0469 z m 6.97656,0.35937 v 0.65625 q 0.84375,-0.89062 1.6875,-0.89062 0.5,0 0.875,0.26562 0.39063,0.26563 0.65625,0.8125 0.4375,-0.54687 0.875,-0.8125 0.45313,-0.26562 0.90625,-0.26562 0.71875,0 1.14063,0.45312 0.54687,0.59375 0.54687,1.29688 v 4.59375 h 0.5625 q 0.23438,0 0.32813,0.0937 0.10937,0.0781 0.10937,0.23437 0,0.14063 -0.10937,0.23438 -0.0937,0.0937 -0.32813,0.0937 h -1.21875 v -5.1875 q 0,-0.5 -0.3125,-0.82813 -0.29687,-0.32812 -0.6875,-0.32812 -0.35937,0 -0.76562,0.28125 -0.39063,0.26562 -0.90625,1.04687 v 4.35938 h 0.54687 q 0.23438,0 0.32813,0.0937 0.10937,0.0781 0.10937,0.23437 0,0.14063 -0.10937,0.23438 -0.0937,0.0937 -0.32813,0.0937 h -1.20312 v -5.14063 q 0,-0.51562 -0.3125,-0.85937 -0.3125,-0.34375 -0.6875,-0.34375 -0.35938,0 -0.70313,0.23437 -0.46875,0.3125 -1,1.09375 v 4.35938 h 0.5625 q 0.23438,0 0.32813,0.0937 0.10937,0.0781 0.10937,0.23437 0,0.14063 -0.10937,0.23438 -0.0937,0.0937 -0.32813,0.0937 h -1.76562 q -0.23438,0 -0.34375,-0.0937 -0.0937,-0.0937 -0.0937,-0.23438 0,-0.15625 0.0937,-0.23437 0.10937,-0.0937 0.34375,-0.0937 h 0.54687 v -5.45313 h -0.54687 q -0.23438,0 -0.34375,-0.0937 -0.0937,-0.0937 -0.0937,-0.23437 0,-0.14063 0.0937,-0.23438 0.10937,-0.0937 0.34375,-0.0937 z m 14.47656,6.76563 v -0.95313 q -1.42187,1.21875 -3.04687,1.21875 -1.1875,0 -1.85938,-0.59375 -0.65625,-0.60937 -0.65625,-1.48437 0,-0.95313 0.875,-1.65625 0.875,-0.71875 2.5625,-0.71875 0.45313,0 0.98438,0.0625 0.53125,0.0625 1.14062,0.1875 v -1.0625 q 0,-0.54688 -0.5,-0.9375 -0.5,-0.40625 -1.5,-0.40625 -0.76562,0 -2.14062,0.45312 -0.25,0.0781 -0.32813,0.0781 -0.125,0 -0.21875,-0.0937 -0.0781,-0.0937 -0.0781,-0.23438 0,-0.14062 0.0781,-0.21875 0.10938,-0.10937 0.875,-0.3125 1.21875,-0.32812 1.84375,-0.32812 1.25,0 1.9375,0.60937 0.70313,0.60938 0.70313,1.39063 v 4.34375 h 0.875 q 0.23437,0 0.32812,0.0937 0.10938,0.0781 0.10938,0.23437 0,0.14063 -0.10938,0.23438 -0.0937,0.0937 -0.32812,0.0937 z m 0,-3.26563 q -0.45312,-0.14062 -0.96875,-0.20312 -0.51562,-0.0625 -1.09375,-0.0625 -1.42187,0 -2.23437,0.625 -0.60938,0.45312 -0.60938,1.09375 0,0.59375 0.46875,1 0.46875,0.40625 1.35938,0.40625 0.84375,0 1.57812,-0.32813 0.73438,-0.34375 1.5,-1.09375 z m 6.36719,-3.5 h 3.5625 q 0.23438,0 0.32813,0.0937 0.10937,0.0937 0.10937,0.23438 0,0.14062 -0.10937,0.23437 -0.0937,0.0937 -0.32813,0.0937 h -3.5625 v 4.375 q 0,0.5625 0.45313,0.95313 0.46875,0.375 1.34375,0.375 0.67187,0 1.4375,-0.1875 0.78125,-0.20313 1.20312,-0.45313 0.15625,-0.10937 0.26563,-0.10937 0.125,0 0.21875,0.10937 0.0937,0.0937 0.0937,0.21875 0,0.125 -0.10938,0.21875 -0.25,0.26563 -1.21875,0.57813 -0.95312,0.29687 -1.84375,0.29687 -1.14062,0 -1.82812,-0.54687 -0.67188,-0.54688 -0.67188,-1.45313 v -4.375 h -1.21875 q -0.23437,0 -0.34375,-0.0937 -0.0937,-0.0937 -0.0937,-0.23437 0,-0.14063 0.0937,-0.23438 0.10938,-0.0937 0.34375,-0.0937 h 1.21875 v -1.9375 q 0,-0.23437 0.0937,-0.32812 0.0937,-0.10938 0.23438,-0.10938 0.14062,0 0.23437,0.10938 0.0937,0.0937 0.0937,0.32812 z m 10.16406,0 v 1.65625 q 1.28125,-1.15625 1.92188,-1.48437 0.64062,-0.34375 1.17187,-0.34375 0.59375,0 1.09375,0.40625 0.5,0.39062 0.5,0.59375 0,0.14062 -0.0937,0.25 -0.0937,0.0937 -0.25,0.0937 -0.0781,0 -0.14062,-0.0312 -0.0469,-0.0312 -0.1875,-0.17188 -0.28125,-0.28125 -0.48438,-0.375 -0.20312,-0.10937 -0.39062,-0.10937 -0.4375,0 -1.04688,0.34375 -0.59375,0.34375 -2.09375,1.6875 v 3.59375 h 2.90625 q 0.25,0 0.34375,0.0937 0.10938,0.0781 0.10938,0.23437 0,0.14063 -0.10938,0.23438 -0.0937,0.0937 -0.34375,0.0937 h -5.14062 q -0.23438,0 -0.34375,-0.0937 -0.0937,-0.0937 -0.0937,-0.23438 0,-0.125 0.0937,-0.21875 0.0937,-0.0937 0.34375,-0.0937 h 1.57812 v -5.46875 h -1.20312 q -0.23438,0 -0.34375,-0.0937 -0.0937,-0.0937 -0.0937,-0.23437 0,-0.14063 0.0937,-0.23438 0.0937,-0.0937 0.34375,-0.0937 z m 10.71094,-3.375 v 1.70313 h -0.96875 v -1.70313 z m 0.0312,3.375 v 6.10938 h 2.57813 q 0.23437,0 0.32812,0.0937 0.10938,0.0781 0.10938,0.23437 0,0.14063 -0.10938,0.23438 -0.0937,0.0937 -0.32812,0.0937 h -5.8125 q -0.23438,0 -0.34375,-0.0937 -0.0937,-0.0937 -0.0937,-0.23438 0,-0.15625 0.0937,-0.23437 0.10937,-0.0937 0.34375,-0.0937 h 2.57812 v -5.45313 h -1.92187 q -0.23438,0 -0.34375,-0.0937 -0.0937,-0.0937 -0.0937,-0.23437 0,-0.14063 0.0937,-0.23438 0.10937,-0.0937 0.34375,-0.0937 z m 9.69531,3.21875 3.01563,2.89063 q 0.29687,0 0.375,0.0312 0.0781,0.0156 0.125,0.10937 0.0625,0.0781 0.0625,0.1875 0,0.14063 -0.10938,0.23438 -0.0937,0.0937 -0.32812,0.0937 h -2.10938 q -0.25,0 -0.35937,-0.0937 -0.0937,-0.0937 -0.0937,-0.23438 0,-0.15625 0.0937,-0.23437 0.10937,-0.0937 0.35937,-0.0937 h 1.07813 l -2.54688,-2.45313 -2.54687,2.45313 h 1.09375 q 0.23437,0 0.32812,0.0937 0.10938,0.0781 0.10938,0.23437 0,0.14063 -0.10938,0.23438 -0.0937,0.0937 -0.32812,0.0937 h -2.125 q -0.23438,0 -0.34375,-0.0937 -0.0937,-0.0937 -0.0937,-0.23438 0,-0.10937 0.0469,-0.1875 0.0625,-0.0937 0.14063,-0.10937 0.0781,-0.0312 0.375,-0.0312 l 3,-2.89063 -2.67188,-2.5625 q -0.28125,0 -0.35937,-0.0312 -0.0625,-0.0312 -0.125,-0.10937 -0.0625,-0.0937 -0.0625,-0.1875 0,-0.14063 0.0937,-0.23438 0.10937,-0.0937 0.35937,-0.0937 h 1.78125 q 0.25,0 0.34375,0.0937 0.0937,0.0937 0.0937,0.23438 0,0.14062 -0.0937,0.23437 -0.0937,0.0937 -0.34375,0.0937 h -0.78125 l 2.21875,2.14063 2.21875,-2.14063 h -0.78125 q -0.23437,0 -0.34375,-0.0937 -0.0937,-0.0937 -0.0937,-0.23437 0,-0.14063 0.0937,-0.23438 0.10938,-0.0937 0.34375,-0.0937 h 1.79688 q 0.23437,0 0.32812,0.0937 0.10938,0.0937 0.10938,0.23438 0,0.0937 -0.0625,0.1875 -0.0625,0.0781 -0.14063,0.10937 -0.0625,0.0312 -0.34375,0.0312 z"
     fill-rule="nonzero"
     id="path27" />
  <path
     fill="#000000"
     fill-opacity="0"
     d="m 199.27164,210.33727 h 215.02362 v 50.14175 H 199.27164 Z"
     fill-rule="evenodd"
     id="path29" />
  <path
     fill="#3d85c6"
     d="m 215.24038,228.35353 q 0,-0.21875 0.0937,-0.3125 0.0937,-0.10938 0.23437,-0.10938 0.15625,0 0.25,0.10938 0.0937,0.0937 0.0937,0.32812 v 1.125 q 0,0.23438 -0.0937,0.34375 -0.0937,0.0937 -0.25,0.0937 -0.125,0 -0.21875,-0.0781 -0.0937,-0.0937 -0.10937,-0.28125 -0.0469,-0.46875 -0.48438,-0.78125 -0.64062,-0.4375 -1.6875,-0.4375 -1.10937,0 -1.71875,0.45312 -0.45312,0.32813 -0.45312,0.75 0,0.46875 0.54687,0.78125 0.375,0.21875 1.42188,0.32813 1.35937,0.15625 1.89062,0.34375 0.76563,0.26562 1.125,0.75 0.375,0.48437 0.375,1.04687 0,0.84375 -0.8125,1.5 -0.79687,0.65625 -2.34375,0.65625 -1.5625,0 -2.54687,-0.79687 0,0.26562 -0.0312,0.34375 -0.0312,0.0781 -0.125,0.14062 -0.0781,0.0469 -0.17188,0.0469 -0.14062,0 -0.23437,-0.0937 -0.0937,-0.10938 -0.0937,-0.34375 v -1.35938 q 0,-0.23437 0.0781,-0.32812 0.0937,-0.10938 0.25,-0.10938 0.14063,0 0.23438,0.10938 0.0937,0.0937 0.0937,0.25 0,0.35937 0.1875,0.60937 0.26562,0.375 0.85937,0.625 0.60938,0.23438 1.46875,0.23438 1.28125,0 1.90625,-0.46875 0.625,-0.48438 0.625,-1.01563 0,-0.60937 -0.625,-0.96875 -0.64062,-0.375 -1.875,-0.5 -1.21875,-0.125 -1.75,-0.32812 -0.53125,-0.20313 -0.82812,-0.60938 -0.29688,-0.40625 -0.29688,-0.875 0,-0.84375 0.82813,-1.32812 0.82812,-0.5 1.98437,-0.5 1.35938,0 2.20313,0.65625 z m 6.08594,-0.42188 h 3.5625 q 0.23437,0 0.32812,0.0937 0.10938,0.0937 0.10938,0.23438 0,0.14062 -0.10938,0.23437 -0.0937,0.0937 -0.32812,0.0937 h -3.5625 v 4.375 q 0,0.5625 0.45312,0.95313 0.46875,0.375 1.34375,0.375 0.67188,0 1.4375,-0.1875 0.78125,-0.20313 1.20313,-0.45313 0.15625,-0.10937 0.26562,-0.10937 0.125,0 0.21875,0.10937 0.0937,0.0937 0.0937,0.21875 0,0.125 -0.10937,0.21875 -0.25,0.26563 -1.21875,0.57813 -0.95313,0.29687 -1.84375,0.29687 -1.14063,0 -1.82813,-0.54687 -0.67187,-0.54688 -0.67187,-1.45313 v -4.375 h -1.21875 q -0.23438,0 -0.34375,-0.0937 -0.0937,-0.0937 -0.0937,-0.23437 0,-0.14063 0.0937,-0.23438 0.10937,-0.0937 0.34375,-0.0937 h 1.21875 v -1.9375 q 0,-0.23437 0.0937,-0.32812 0.0937,-0.10938 0.23437,-0.10938 0.14063,0 0.23438,0.10938 0.0937,0.0937 0.0937,0.32812 z m 12.83593,6.76563 v -0.95313 q -1.42187,1.21875 -3.04687,1.21875 -1.1875,0 -1.85938,-0.59375 -0.65625,-0.60937 -0.65625,-1.48437 0,-0.95313 0.875,-1.65625 0.875,-0.71875 2.5625,-0.71875 0.45313,0 0.98438,0.0625 0.53125,0.0625 1.14062,0.1875 v -1.0625 q 0,-0.54688 -0.5,-0.9375 -0.5,-0.40625 -1.5,-0.40625 -0.76562,0 -2.14062,0.45312 -0.25,0.0781 -0.32813,0.0781 -0.125,0 -0.21875,-0.0937 -0.0781,-0.0937 -0.0781,-0.23438 0,-0.14062 0.0781,-0.21875 0.10938,-0.10937 0.875,-0.3125 1.21875,-0.32812 1.84375,-0.32812 1.25,0 1.9375,0.60937 0.70313,0.60938 0.70313,1.39063 v 4.34375 h 0.875 q 0.23437,0 0.32812,0.0937 0.10938,0.0781 0.10938,0.23437 0,0.14063 -0.10938,0.23438 -0.0937,0.0937 -0.32812,0.0937 z m 0,-3.26563 q -0.45312,-0.14062 -0.96875,-0.20312 -0.51562,-0.0625 -1.09375,-0.0625 -1.42187,0 -2.23437,0.625 -0.60938,0.45312 -0.60938,1.09375 0,0.59375 0.46875,1 0.46875,0.40625 1.35938,0.40625 0.84375,0 1.57812,-0.32813 0.73438,-0.34375 1.5,-1.09375 z m 6.92969,-3.5 v 1.65625 q 1.28125,-1.15625 1.92188,-1.48437 0.64062,-0.34375 1.17187,-0.34375 0.59375,0 1.09375,0.40625 0.5,0.39062 0.5,0.59375 0,0.14062 -0.0937,0.25 -0.0937,0.0937 -0.25,0.0937 -0.0781,0 -0.14062,-0.0312 -0.0469,-0.0312 -0.1875,-0.17188 -0.28125,-0.28125 -0.48438,-0.375 -0.20312,-0.10937 -0.39062,-0.10937 -0.4375,0 -1.04688,0.34375 -0.59375,0.34375 -2.09375,1.6875 v 3.59375 h 2.90625 q 0.25,0 0.34375,0.0937 0.10938,0.0781 0.10938,0.23437 0,0.14063 -0.10938,0.23438 -0.0937,0.0937 -0.34375,0.0937 h -5.14062 q -0.23438,0 -0.34375,-0.0937 -0.0937,-0.0937 -0.0937,-0.23438 0,-0.125 0.0937,-0.21875 0.0937,-0.0937 0.34375,-0.0937 h 1.57812 v -5.46875 h -1.20312 q -0.23438,0 -0.34375,-0.0937 -0.0937,-0.0937 -0.0937,-0.23437 0,-0.14063 0.0937,-0.23438 0.0937,-0.0937 0.34375,-0.0937 z m 7.91406,0 v 1.1875 q 0.59375,-0.70312 1.26563,-1.0625 0.67187,-0.35937 1.57812,-0.35937 0.96875,0 1.78125,0.45312 0.82813,0.45313 1.28125,1.26563 0.45313,0.79687 0.45313,1.6875 0,1.42187 -1.01563,2.42187 -1.01562,1 -2.48437,1 -1.76563,0 -2.85938,-1.42187 v 3.95312 h 1.59375 q 0.23438,0 0.32813,0.0937 0.10937,0.0937 0.10937,0.23438 0,0.14062 -0.10937,0.23437 -0.0937,0.0937 -0.32813,0.0937 h -3.125 q -0.23437,0 -0.34375,-0.0937 -0.0937,-0.0781 -0.0937,-0.23437 0,-0.14063 0.0937,-0.23438 0.10938,-0.0937 0.34375,-0.0937 h 0.875 v -8.46875 h -0.875 q -0.23437,0 -0.34375,-0.0937 -0.0937,-0.0937 -0.0937,-0.23437 0,-0.14063 0.0937,-0.23438 0.10938,-0.0937 0.34375,-0.0937 z m 5.6875,3.17188 q 0,-1.125 -0.82812,-1.9375 -0.8125,-0.8125 -2,-0.8125 -1.20313,0 -2.03125,0.8125 -0.82813,0.8125 -0.82813,1.9375 0,1.14062 0.82813,1.95312 0.82812,0.8125 2.03125,0.8125 1.17187,0 2,-0.8125 0.82812,-0.8125 0.82812,-1.95312 z m 8.63282,3.59375 v -0.96875 q -1.34375,1.23437 -2.90625,1.23437 -0.95313,0 -1.45313,-0.53125 -0.65625,-0.6875 -0.65625,-1.60937 v -4.23438 h -0.875 q -0.23437,0 -0.34375,-0.0937 -0.0937,-0.0937 -0.0937,-0.23437 0,-0.14063 0.0937,-0.23438 0.10938,-0.0937 0.34375,-0.0937 h 1.53125 v 4.89063 q 0,0.64062 0.40625,1.0625 0.40625,0.40625 1.01563,0.40625 1.60937,0 2.9375,-1.46875 V 228.588 h -1.20313 q -0.23437,0 -0.34375,-0.0937 -0.0937,-0.0937 -0.0937,-0.23437 0,-0.14063 0.0937,-0.23438 0.10938,-0.0937 0.34375,-0.0937 h 1.85938 v 6.10938 h 0.5625 q 0.23437,0 0.32812,0.0937 0.10938,0.0781 0.10938,0.23437 0,0.14063 -0.10938,0.23438 -0.0937,0.0937 -0.32812,0.0937 z m 11.72656,4.39062 h -8.73438 q -0.23437,0 -0.34375,-0.0937 -0.0937,-0.0937 -0.0937,-0.23437 0,-0.15625 0.0937,-0.25 0.10938,-0.0781 0.34375,-0.0781 h 8.73438 q 0.23437,0 0.32812,0.0781 0.10938,0.0937 0.10938,0.25 0,0.14062 -0.10938,0.23437 -0.0937,0.0937 -0.32812,0.0937 z m 8.44531,-14.20312 v 9.15625 h 0.875 q 0.25,0 0.34375,0.0937 0.10938,0.0781 0.10938,0.23437 0,0.14063 -0.10938,0.23438 -0.0937,0.0937 -0.34375,0.0937 h -1.53125 v -1.3125 q -1.14062,1.57812 -2.90625,1.57812 -0.89062,0 -1.70312,-0.46875 -0.8125,-0.48437 -1.29688,-1.35937 -0.46875,-0.875 -0.46875,-1.8125 0,-0.9375 0.46875,-1.79688 0.48438,-0.875 1.29688,-1.34375 0.8125,-0.48437 1.71875,-0.48437 1.71875,0 2.89062,1.5625 v -3.70313 h -0.875 q -0.25,0 -0.35937,-0.0937 -0.0937,-0.0937 -0.0937,-0.25 0,-0.14062 0.0937,-0.23437 0.10937,-0.0937 0.35937,-0.0937 z m -0.65625,6.4375 q 0,-1.25 -0.84375,-2.10938 -0.84375,-0.85937 -2.01562,-0.85937 -1.17188,0 -2.01563,0.85937 -0.84375,0.85938 -0.84375,2.10938 0,1.25 0.84375,2.10937 0.84375,0.85938 2.01563,0.85938 1.17187,0 2.01562,-0.85938 0.84375,-0.85937 0.84375,-2.10937 z m 8.92969,3.375 v -0.95313 q -1.42188,1.21875 -3.04688,1.21875 -1.1875,0 -1.85937,-0.59375 -0.65625,-0.60937 -0.65625,-1.48437 0,-0.95313 0.875,-1.65625 0.875,-0.71875 2.5625,-0.71875 0.45312,0 0.98437,0.0625 0.53125,0.0625 1.14063,0.1875 v -1.0625 q 0,-0.54688 -0.5,-0.9375 -0.5,-0.40625 -1.5,-0.40625 -0.76563,0 -2.14063,0.45312 -0.25,0.0781 -0.32812,0.0781 -0.125,0 -0.21875,-0.0937 -0.0781,-0.0937 -0.0781,-0.23438 0,-0.14062 0.0781,-0.21875 0.10937,-0.10937 0.875,-0.3125 1.21875,-0.32812 1.84375,-0.32812 1.25,0 1.9375,0.60937 0.70312,0.60938 0.70312,1.39063 v 4.34375 h 0.875 q 0.23438,0 0.32813,0.0937 0.10937,0.0781 0.10937,0.23437 0,0.14063 -0.10937,0.23438 -0.0937,0.0937 -0.32813,0.0937 z m 0,-3.26563 q -0.45313,-0.14062 -0.96875,-0.20312 -0.51563,-0.0625 -1.09375,-0.0625 -1.42188,0 -2.23438,0.625 -0.60937,0.45312 -0.60937,1.09375 0,0.59375 0.46875,1 0.46875,0.40625 1.35937,0.40625 0.84375,0 1.57813,-0.32813 0.73437,-0.34375 1.5,-1.09375 z m 6.36719,-3.5 h 3.5625 q 0.23437,0 0.32812,0.0937 0.10938,0.0937 0.10938,0.23438 0,0.14062 -0.10938,0.23437 -0.0937,0.0937 -0.32812,0.0937 h -3.5625 v 4.375 q 0,0.5625 0.45312,0.95313 0.46875,0.375 1.34375,0.375 0.67188,0 1.4375,-0.1875 0.78125,-0.20313 1.20313,-0.45313 0.15625,-0.10937 0.26562,-0.10937 0.125,0 0.21875,0.10937 0.0937,0.0937 0.0937,0.21875 0,0.125 -0.10937,0.21875 -0.25,0.26563 -1.21875,0.57813 -0.95313,0.29687 -1.84375,0.29687 -1.14063,0 -1.82813,-0.54687 -0.67187,-0.54688 -0.67187,-1.45313 v -4.375 h -1.21875 q -0.23438,0 -0.34375,-0.0937 -0.0937,-0.0937 -0.0937,-0.23437 0,-0.14063 0.0937,-0.23438 0.10937,-0.0937 0.34375,-0.0937 h 1.21875 v -1.9375 q 0,-0.23437 0.0937,-0.32812 0.0937,-0.10938 0.23437,-0.10938 0.14063,0 0.23438,0.10938 0.0937,0.0937 0.0937,0.32812 z m 12.83593,6.76563 v -0.95313 q -1.42187,1.21875 -3.04687,1.21875 -1.1875,0 -1.85938,-0.59375 -0.65625,-0.60937 -0.65625,-1.48437 0,-0.95313 0.875,-1.65625 0.875,-0.71875 2.5625,-0.71875 0.45313,0 0.98438,0.0625 0.53125,0.0625 1.14062,0.1875 v -1.0625 q 0,-0.54688 -0.5,-0.9375 -0.5,-0.40625 -1.5,-0.40625 -0.76562,0 -2.14062,0.45312 -0.25,0.0781 -0.32813,0.0781 -0.125,0 -0.21875,-0.0937 -0.0781,-0.0937 -0.0781,-0.23438 0,-0.14062 0.0781,-0.21875 0.10938,-0.10937 0.875,-0.3125 1.21875,-0.32812 1.84375,-0.32812 1.25,0 1.9375,0.60937 0.70313,0.60938 0.70313,1.39063 v 4.34375 h 0.875 q 0.23437,0 0.32812,0.0937 0.10938,0.0781 0.10938,0.23437 0,0.14063 -0.10938,0.23438 -0.0937,0.0937 -0.32812,0.0937 z m 0,-3.26563 q -0.45312,-0.14062 -0.96875,-0.20312 -0.51562,-0.0625 -1.09375,-0.0625 -1.42187,0 -2.23437,0.625 -0.60938,0.45312 -0.60938,1.09375 0,0.59375 0.46875,1 0.46875,0.40625 1.35938,0.40625 0.84375,0 1.57812,-0.32813 0.73438,-0.34375 1.5,-1.09375 z m 12.08594,7.65625 h -8.73437 q -0.23438,0 -0.34375,-0.0937 -0.0937,-0.0937 -0.0937,-0.23437 0,-0.15625 0.0937,-0.25 0.10937,-0.0781 0.34375,-0.0781 h 8.73437 q 0.23438,0 0.32813,0.0781 0.10937,0.0937 0.10937,0.25 0,0.14062 -0.10937,0.23437 -0.0937,0.0937 -0.32813,0.0937 z m 3.07031,-14.20312 v 4.04687 q 0.625,-0.6875 1.20313,-0.95312 0.57812,-0.28125 1.28125,-0.28125 0.76562,0 1.29687,0.26562 0.54688,0.26563 0.90625,0.82813 0.35938,0.5625 0.35938,1.17187 v 4.07813 h 0.73437 q 0.23438,0 0.32813,0.0937 0.10937,0.0781 0.10937,0.23437 0,0.14063 -0.10937,0.23438 -0.0937,0.0937 -0.32813,0.0937 h -2.14062 q -0.23438,0 -0.34375,-0.0937 -0.0937,-0.0937 -0.0937,-0.23438 0,-0.15625 0.0937,-0.23437 0.10937,-0.0937 0.34375,-0.0937 h 0.73437 v -4.03125 q 0,-0.70313 -0.51562,-1.17188 -0.5,-0.48437 -1.42188,-0.48437 -0.71875,0 -1.21875,0.34375 -0.375,0.25 -1.21875,1.1875 v 4.15625 h 0.75 q 0.23438,0 0.32813,0.0937 0.10937,0.0781 0.10937,0.23437 0,0.14063 -0.10937,0.23438 -0.0937,0.0937 -0.32813,0.0937 h -2.14062 q -0.23438,0 -0.34375,-0.0937 -0.0937,-0.0937 -0.0937,-0.23438 0,-0.15625 0.0937,-0.23437 0.10937,-0.0937 0.34375,-0.0937 h 0.73437 v -8.48438 h -0.875 q -0.23437,0 -0.34375,-0.0937 -0.0937,-0.0937 -0.0937,-0.25 0,-0.14062 0.0937,-0.23437 0.10938,-0.0937 0.34375,-0.0937 z m 13.64844,9.8125 v -0.95313 q -1.42187,1.21875 -3.04687,1.21875 -1.1875,0 -1.85938,-0.59375 -0.65625,-0.60937 -0.65625,-1.48437 0,-0.95313 0.875,-1.65625 0.875,-0.71875 2.5625,-0.71875 0.45313,0 0.98438,0.0625 0.53125,0.0625 1.14062,0.1875 v -1.0625 q 0,-0.54688 -0.5,-0.9375 -0.5,-0.40625 -1.5,-0.40625 -0.76562,0 -2.14062,0.45312 -0.25,0.0781 -0.32813,0.0781 -0.125,0 -0.21875,-0.0937 -0.0781,-0.0937 -0.0781,-0.23438 0,-0.14062 0.0781,-0.21875 0.10938,-0.10937 0.875,-0.3125 1.21875,-0.32812 1.84375,-0.32812 1.25,0 1.9375,0.60937 0.70313,0.60938 0.70313,1.39063 v 4.34375 h 0.875 q 0.23437,0 0.32812,0.0937 0.10938,0.0781 0.10938,0.23437 0,0.14063 -0.10938,0.23438 -0.0937,0.0937 -0.32812,0.0937 z m 0,-3.26563 q -0.45312,-0.14062 -0.96875,-0.20312 -0.51562,-0.0625 -1.09375,-0.0625 -1.42187,0 -2.23437,0.625 -0.60938,0.45312 -0.60938,1.09375 0,0.59375 0.46875,1 0.46875,0.40625 1.35938,0.40625 0.84375,0 1.57812,-0.32813 0.73438,-0.34375 1.5,-1.09375 z m 5.60156,-3.5 v 0.98438 q 0.6875,-0.6875 1.23438,-0.95313 0.5625,-0.26562 1.25,-0.26562 0.75,0 1.375,0.3125 0.4375,0.23437 0.78125,0.78125 0.35937,0.54687 0.35937,1.10937 v 4.14063 h 0.5625 q 0.23438,0 0.32813,0.0937 0.10937,0.0781 0.10937,0.23437 0,0.14063 -0.10937,0.23438 -0.0937,0.0937 -0.32813,0.0937 h -1.76562 q -0.23438,0 -0.34375,-0.0937 -0.0937,-0.0937 -0.0937,-0.23438 0,-0.15625 0.0937,-0.23437 0.10937,-0.0937 0.34375,-0.0937 h 0.54687 v -4.03125 q 0,-0.6875 -0.51562,-1.17188 -0.5,-0.48437 -1.34375,-0.48437 -0.65625,0 -1.14063,0.26562 -0.46875,0.26563 -1.34375,1.29688 v 4.125 h 0.73438 q 0.23437,0 0.32812,0.0937 0.10938,0.0781 0.10938,0.23437 0,0.14063 -0.10938,0.23438 -0.0937,0.0937 -0.32812,0.0937 h -2.14063 q -0.23437,0 -0.34375,-0.0937 -0.0937,-0.0937 -0.0937,-0.23438 0,-0.15625 0.0937,-0.23437 0.10938,-0.0937 0.34375,-0.0937 h 0.75 v -5.45313 h -0.5625 q -0.23437,0 -0.34375,-0.0937 -0.0937,-0.0937 -0.0937,-0.23437 0,-0.14063 0.0937,-0.23438 0.10938,-0.0937 0.34375,-0.0937 z m 14.92969,-3.04687 v 9.15625 h 0.875 q 0.25,0 0.34375,0.0937 0.10938,0.0781 0.10938,0.23437 0,0.14063 -0.10938,0.23438 -0.0937,0.0937 -0.34375,0.0937 h -1.53125 v -1.3125 q -1.14062,1.57812 -2.90625,1.57812 -0.89062,0 -1.70312,-0.46875 -0.8125,-0.48437 -1.29688,-1.35937 -0.46875,-0.875 -0.46875,-1.8125 0,-0.9375 0.46875,-1.79688 0.48438,-0.875 1.29688,-1.34375 0.8125,-0.48437 1.71875,-0.48437 1.71875,0 2.89062,1.5625 v -3.70313 h -0.875 q -0.25,0 -0.35937,-0.0937 -0.0937,-0.0937 -0.0937,-0.25 0,-0.14062 0.0937,-0.23437 0.10937,-0.0937 0.35937,-0.0937 z m -0.65625,6.4375 q 0,-1.25 -0.84375,-2.10938 -0.84375,-0.85937 -2.01562,-0.85937 -1.17188,0 -2.01563,0.85937 -0.84375,0.85938 -0.84375,2.10938 0,1.25 0.84375,2.10937 0.84375,0.85938 2.01563,0.85938 1.17187,0 2.01562,-0.85938 0.84375,-0.85937 0.84375,-2.10937 z m 7.38281,-6.4375 v 9.15625 h 2.57813 q 0.23437,0 0.32812,0.0937 0.10938,0.0781 0.10938,0.23437 0,0.14063 -0.10938,0.23438 -0.0937,0.0937 -0.32812,0.0937 h -5.8125 q -0.23438,0 -0.34375,-0.0937 -0.0937,-0.0937 -0.0937,-0.23438 0,-0.15625 0.0937,-0.23437 0.10937,-0.0937 0.34375,-0.0937 h 2.57812 v -8.48438 h -1.89062 q -0.23438,0 -0.34375,-0.0937 -0.10938,-0.0937 -0.10938,-0.25 0,-0.14062 0.0937,-0.23437 0.10938,-0.0937 0.35938,-0.0937 z m 12.82032,6.57812 h -6.6875 q 0.17187,1.28125 1.0625,2.0625 0.89062,0.76563 2.21875,0.76563 0.73437,0 1.53125,-0.23438 0.8125,-0.25 1.3125,-0.64062 0.15625,-0.125 0.26562,-0.125 0.125,0 0.21875,0.10937 0.0937,0.0937 0.0937,0.21875 0,0.14063 -0.125,0.26563 -0.375,0.39062 -1.34375,0.73437 -0.95312,0.34375 -1.95312,0.34375 -1.6875,0 -2.82813,-1.10937 -1.125,-1.10938 -1.125,-2.6875 0,-1.42188 1.0625,-2.4375 1.0625,-1.03125 2.625,-1.03125 1.60938,0 2.64063,1.04687 1.04687,1.04688 1.03125,2.71875 z m -0.67188,-0.65625 q -0.1875,-1.09375 -1.03125,-1.76562 -0.82812,-0.6875 -1.96875,-0.6875 -1.15625,0 -1.98437,0.67187 -0.82813,0.67188 -1.03125,1.78125 z m 11.08594,8.28125 h -8.73438 q -0.23437,0 -0.34375,-0.0937 -0.0937,-0.0937 -0.0937,-0.23437 0,-0.15625 0.0937,-0.25 0.10938,-0.0781 0.34375,-0.0781 h 8.73438 q 0.23437,0 0.32812,0.0781 0.10938,0.0937 0.10938,0.25 0,0.14062 -0.10938,0.23437 -0.0937,0.0937 -0.32812,0.0937 z m 3.88281,-11.15625 h 3.5625 q 0.23438,0 0.32813,0.0937 0.10937,0.0937 0.10937,0.23438 0,0.14062 -0.10937,0.23437 -0.0937,0.0937 -0.32813,0.0937 h -3.5625 v 4.375 q 0,0.5625 0.45313,0.95313 0.46875,0.375 1.34375,0.375 0.67187,0 1.4375,-0.1875 0.78125,-0.20313 1.20312,-0.45313 0.15625,-0.10937 0.26563,-0.10937 0.125,0 0.21875,0.10937 0.0937,0.0937 0.0937,0.21875 0,0.125 -0.10938,0.21875 -0.25,0.26563 -1.21875,0.57813 -0.95312,0.29687 -1.84375,0.29687 -1.14062,0 -1.82812,-0.54687 -0.67188,-0.54688 -0.67188,-1.45313 v -4.375 h -1.21875 q -0.23437,0 -0.34375,-0.0937 -0.0937,-0.0937 -0.0937,-0.23437 0,-0.14063 0.0937,-0.23438 0.10938,-0.0937 0.34375,-0.0937 h 1.21875 v -1.9375 q 0,-0.23437 0.0937,-0.32812 0.0937,-0.10938 0.23438,-0.10938 0.14062,0 0.23437,0.10938 0.0937,0.0937 0.0937,0.32812 z"
     fill-rule="nonzero"
     id="path31" />
  <path
     fill="#000000"
     d="m 210.91228,243.88477 v 4.04687 q 0.625,-0.6875 1.20312,-0.95312 0.57813,-0.28125 1.28125,-0.28125 0.76563,0 1.29688,0.26562 0.54687,0.26563 0.90625,0.82813 0.35937,0.5625 0.35937,1.17187 v 4.07813 h 0.73438 q 0.23437,0 0.32812,0.0937 0.10938,0.0781 0.10938,0.23437 0,0.14063 -0.10938,0.23438 -0.0937,0.0937 -0.32812,0.0937 h -2.14063 q -0.23437,0 -0.34375,-0.0937 -0.0937,-0.0937 -0.0937,-0.23438 0,-0.15625 0.0937,-0.23437 0.10938,-0.0937 0.34375,-0.0937 h 0.73438 v -4.03125 q 0,-0.70313 -0.51563,-1.17188 -0.5,-0.48437 -1.42187,-0.48437 -0.71875,0 -1.21875,0.34375 -0.375,0.25 -1.21875,1.1875 v 4.15625 h 0.75 q 0.23437,0 0.32812,0.0937 0.10938,0.0781 0.10938,0.23437 0,0.14063 -0.10938,0.23438 -0.0937,0.0937 -0.32812,0.0937 h -2.14063 q -0.23437,0 -0.34375,-0.0937 -0.0937,-0.0937 -0.0937,-0.23438 0,-0.15625 0.0937,-0.23437 0.10938,-0.0937 0.34375,-0.0937 h 0.73438 v -8.48438 h -0.875 q -0.23438,0 -0.34375,-0.0937 -0.0937,-0.0937 -0.0937,-0.25 0,-0.14062 0.0937,-0.23437 0.10937,-0.0937 0.34375,-0.0937 z m 13.64844,9.8125 v -0.95313 q -1.42188,1.21875 -3.04688,1.21875 -1.1875,0 -1.85937,-0.59375 -0.65625,-0.60937 -0.65625,-1.48437 0,-0.95313 0.875,-1.65625 0.875,-0.71875 2.5625,-0.71875 0.45312,0 0.98437,0.0625 0.53125,0.0625 1.14063,0.1875 v -1.0625 q 0,-0.54688 -0.5,-0.9375 -0.5,-0.40625 -1.5,-0.40625 -0.76563,0 -2.14063,0.45312 -0.25,0.0781 -0.32812,0.0781 -0.125,0 -0.21875,-0.0937 -0.0781,-0.0937 -0.0781,-0.23438 0,-0.14062 0.0781,-0.21875 0.10937,-0.10937 0.875,-0.3125 1.21875,-0.32812 1.84375,-0.32812 1.25,0 1.9375,0.60937 0.70312,0.60938 0.70312,1.39063 v 4.34375 h 0.875 q 0.23438,0 0.32813,0.0937 0.10937,0.0781 0.10937,0.23437 0,0.14063 -0.10937,0.23438 -0.0937,0.0937 -0.32813,0.0937 z m 0,-3.26563 q -0.45313,-0.14062 -0.96875,-0.20312 -0.51563,-0.0625 -1.09375,-0.0625 -1.42188,0 -2.23438,0.625 -0.60937,0.45312 -0.60937,1.09375 0,0.59375 0.46875,1 0.46875,0.40625 1.35937,0.40625 0.84375,0 1.57813,-0.32813 0.73437,-0.34375 1.5,-1.09375 z m 5.60156,-3.5 v 0.98438 q 0.6875,-0.6875 1.23437,-0.95313 0.5625,-0.26562 1.25,-0.26562 0.75,0 1.375,0.3125 0.4375,0.23437 0.78125,0.78125 0.35938,0.54687 0.35938,1.10937 v 4.14063 h 0.5625 q 0.23437,0 0.32812,0.0937 0.10938,0.0781 0.10938,0.23437 0,0.14063 -0.10938,0.23438 -0.0937,0.0937 -0.32812,0.0937 h -1.76563 q -0.23437,0 -0.34375,-0.0937 -0.0937,-0.0937 -0.0937,-0.23438 0,-0.15625 0.0937,-0.23437 0.10938,-0.0937 0.34375,-0.0937 h 0.54688 v -4.03125 q 0,-0.6875 -0.51563,-1.17188 -0.5,-0.48437 -1.34375,-0.48437 -0.65625,0 -1.14062,0.26562 -0.46875,0.26563 -1.34375,1.29688 v 4.125 h 0.73437 q 0.23438,0 0.32813,0.0937 0.10937,0.0781 0.10937,0.23437 0,0.14063 -0.10937,0.23438 -0.0937,0.0937 -0.32813,0.0937 h -2.14062 q -0.23438,0 -0.34375,-0.0937 -0.0937,-0.0937 -0.0937,-0.23438 0,-0.15625 0.0937,-0.23437 0.10937,-0.0937 0.34375,-0.0937 h 0.75 v -5.45313 h -0.5625 q -0.23438,0 -0.34375,-0.0937 -0.0937,-0.0937 -0.0937,-0.23437 0,-0.14063 0.0937,-0.23438 0.10937,-0.0937 0.34375,-0.0937 z m 14.92969,-3.04687 v 9.15625 h 0.875 q 0.25,0 0.34375,0.0937 0.10937,0.0781 0.10937,0.23437 0,0.14063 -0.10937,0.23438 -0.0937,0.0937 -0.34375,0.0937 h -1.53125 v -1.3125 q -1.14063,1.57812 -2.90625,1.57812 -0.89063,0 -1.70313,-0.46875 -0.8125,-0.48437 -1.29687,-1.35937 -0.46875,-0.875 -0.46875,-1.8125 0,-0.9375 0.46875,-1.79688 0.48437,-0.875 1.29687,-1.34375 0.8125,-0.48437 1.71875,-0.48437 1.71875,0 2.89063,1.5625 v -3.70313 h -0.875 q -0.25,0 -0.35938,-0.0937 -0.0937,-0.0937 -0.0937,-0.25 0,-0.14062 0.0937,-0.23437 0.10938,-0.0937 0.35938,-0.0937 z m -0.65625,6.4375 q 0,-1.25 -0.84375,-2.10938 -0.84375,-0.85937 -2.01563,-0.85937 -1.17187,0 -2.01562,0.85937 -0.84375,0.85938 -0.84375,2.10938 0,1.25 0.84375,2.10937 0.84375,0.85938 2.01562,0.85938 1.17188,0 2.01563,-0.85938 0.84375,-0.85937 0.84375,-2.10937 z m 7.38281,-6.4375 v 9.15625 h 2.57812 q 0.23438,0 0.32813,0.0937 0.10937,0.0781 0.10937,0.23437 0,0.14063 -0.10937,0.23438 -0.0937,0.0937 -0.32813,0.0937 h -5.8125 q -0.23437,0 -0.34375,-0.0937 -0.0937,-0.0937 -0.0937,-0.23438 0,-0.15625 0.0937,-0.23437 0.10938,-0.0937 0.34375,-0.0937 h 2.57813 v -8.48438 h -1.89063 q -0.23437,0 -0.34375,-0.0937 -0.10937,-0.0937 -0.10937,-0.25 0,-0.14062 0.0937,-0.23437 0.10937,-0.0937 0.35937,-0.0937 z m 12.82031,6.57812 h -6.6875 q 0.17188,1.28125 1.0625,2.0625 0.89063,0.76563 2.21875,0.76563 0.73438,0 1.53125,-0.23438 0.8125,-0.25 1.3125,-0.64062 0.15625,-0.125 0.26563,-0.125 0.125,0 0.21875,0.10937 0.0937,0.0937 0.0937,0.21875 0,0.14063 -0.125,0.26563 -0.375,0.39062 -1.34375,0.73437 -0.95313,0.34375 -1.95313,0.34375 -1.6875,0 -2.82812,-1.10937 -1.125,-1.10938 -1.125,-2.6875 0,-1.42188 1.0625,-2.4375 1.0625,-1.03125 2.625,-1.03125 1.60937,0 2.64062,1.04687 1.04688,1.04688 1.03125,2.71875 z m -0.67187,-0.65625 q -0.1875,-1.09375 -1.03125,-1.76562 -0.82813,-0.6875 -1.96875,-0.6875 -1.15625,0 -1.98438,0.67187 -0.82812,0.67188 -1.03125,1.78125 z"
     fill-rule="nonzero"
     id="path33" />
  <path
     fill="#000000"
     fill-opacity="0"
     d="m 31.63123,95.67979 h 125.10236 v 32.8504 H 31.63123 Z"
     fill-rule="evenodd"
     id="path49" />
  <path
     fill="#000000"
     d="m 46.31343,122.5998 v -13.35939 h 2.65625 l 3.15625,9.45312 q 0.4375,1.32813 0.64063,1.9844 0.23437,-0.73439 0.70312,-2.14065 l 3.20313,-9.29687 h 2.375 v 13.35939 h -1.70313 v -11.17189 l -3.875,11.17189 h -1.59375 l -3.85937,-11.37502 v 11.37502 z m 21.69706,-1.1875 q -0.92188,0.76562 -1.76563,1.09375 -0.82812,0.3125 -1.79687,0.3125 -1.59375,0 -2.45313,-0.78125 -0.85937,-0.78125 -0.85937,-1.98439 0,-0.71875 0.32812,-1.29688 0.32813,-0.59375 0.84375,-0.9375 0.53125,-0.35937 1.1875,-0.54687 0.46875,-0.125 1.45313,-0.25 1.98437,-0.23438 2.92187,-0.5625 0.0156,-0.34375 0.0156,-0.42188 0,-1 -0.46875,-1.42187 -0.625,-0.54688 -1.875,-0.54688 -1.15625,0 -1.70313,0.40625 -0.54687,0.40625 -0.8125,1.42188 l -1.60937,-0.21875 q 0.21875,-1.01563 0.71875,-1.64063 0.5,-0.64062 1.45312,-0.98437 0.95313,-0.34375 2.1875,-0.34375 1.25,0 2.01563,0.29687 0.78125,0.28125 1.14062,0.73438 0.375,0.4375 0.51563,1.10937 0.0781,0.42188 0.0781,1.51563 v 2.1875 q 0,2.28126 0.10938,2.89064 0.10937,0.59375 0.40625,1.15625 h -1.70313 q -0.26562,-0.51563 -0.32812,-1.1875 z m -0.14063,-3.67189 q -0.89062,0.375 -2.67187,0.625 -1.01563,0.14062 -1.4375,0.32812 -0.42188,0.1875 -0.65625,0.53125 -0.21875,0.34375 -0.21875,0.78125 0,0.65627 0.5,1.09377 0.5,0.4375 1.45312,0.4375 0.9375,0 1.67188,-0.40625 0.75,-0.42188 1.09375,-1.14064 0.26562,-0.5625 0.26562,-1.64063 z m 4.20384,-6.60938 v -1.89062 h 1.64063 v 1.89062 z m 0,11.46877 v -9.67189 h 1.64063 v 9.67189 z m 4.14482,0 v -9.67189 h 1.46875 v 1.375 q 1.0625,-1.59375 3.07813,-1.59375 0.875,0 1.60937,0.3125 0.73438,0.3125 1.09375,0.82812 0.375,0.5 0.51563,1.20313 0.0937,0.45312 0.0937,1.59375 v 5.95314 h -1.64063 v -5.89064 q 0,-1 -0.20312,-1.48438 -0.1875,-0.5 -0.67188,-0.79687 -0.48437,-0.29688 -1.14062,-0.29688 -1.04688,0 -1.8125,0.67188 -0.75,0.65625 -0.75,2.51562 v 5.28127 z m 19.13715,-1.46875 0.23437,1.45312 q -0.6875,0.14063 -1.23437,0.14063 -0.89063,0 -1.39063,-0.28125 -0.48437,-0.28125 -0.6875,-0.73438 -0.20312,-0.46875 -0.20312,-1.93751 v -5.57813 h -1.20313 v -1.26562 h 1.20313 v -2.39063 l 1.625,-0.98437 v 3.375 h 1.65625 v 1.26562 h -1.65625 v 5.67188 q 0,0.68751 0.0781,0.89064 0.0937,0.20312 0.28125,0.32812 0.20313,0.10938 0.57813,0.10938 0.26562,0 0.71875,-0.0625 z m 1.60518,1.46875 v -13.35939 h 1.64062 v 4.79687 q 1.14063,-1.32812 2.89063,-1.32812 1.07812,0 1.85937,0.42187 0.79688,0.42188 1.14063,1.17188 0.34375,0.75 0.34375,2.17187 v 6.12502 h -1.64063 v -6.12502 q 0,-1.23437 -0.53125,-1.79687 -0.53125,-0.5625 -1.51562,-0.5625 -0.71875,0 -1.35938,0.39062 -0.64062,0.375 -0.92187,1.01563 -0.26563,0.64062 -0.26563,1.78125 v 5.29689 z m 10.36009,0 v -9.67189 h 1.46875 v 1.46875 q 0.5625,-1.03125 1.03125,-1.35938 0.48438,-0.32812 1.0625,-0.32812 0.82813,0 1.6875,0.53125 l -0.5625,1.51562 q -0.60937,-0.35937 -1.20312,-0.35937 -0.54688,0 -0.96875,0.32812 -0.42188,0.32813 -0.60938,0.89063 -0.28125,0.875 -0.28125,1.92187 v 5.06252 z m 12.8533,-3.10939 1.6875,0.20312 q -0.40625,1.48439 -1.48437,2.31252 -1.07813,0.8125 -2.76563,0.8125 -2.125,0 -3.375,-1.29688 -1.23437,-1.3125 -1.23437,-3.67189 0,-2.45312 1.25,-3.79687 1.26562,-1.34375 3.26562,-1.34375 1.9375,0 3.15625,1.32812 1.23438,1.3125 1.23438,3.70313 0,0.15625 0,0.4375 h -7.21875 q 0.0937,1.59375 0.90625,2.45314 0.8125,0.84375 2.01562,0.84375 0.90625,0 1.54688,-0.46875 0.64062,-0.48438 1.01562,-1.51564 z m -5.39062,-2.65625 h 5.40625 q -0.10938,-1.21875 -0.625,-1.82813 -0.78125,-0.95312 -2.03125,-0.95312 -1.125,0 -1.90625,0.76562 -0.76563,0.75 -0.84375,2.01563 z m 15.45384,4.57814 q -0.92188,0.76562 -1.76563,1.09375 -0.82812,0.3125 -1.79687,0.3125 -1.59375,0 -2.45313,-0.78125 -0.85937,-0.78125 -0.85937,-1.98439 0,-0.71875 0.32812,-1.29688 0.32813,-0.59375 0.84375,-0.9375 0.53125,-0.35937 1.1875,-0.54687 0.46875,-0.125 1.45313,-0.25 1.98437,-0.23438 2.92187,-0.5625 0.0156,-0.34375 0.0156,-0.42188 0,-1 -0.46875,-1.42187 -0.625,-0.54688 -1.875,-0.54688 -1.15625,0 -1.70313,0.40625 -0.54687,0.40625 -0.8125,1.42188 l -1.60937,-0.21875 q 0.21875,-1.01563 0.71875,-1.64063 0.5,-0.64062 1.45312,-0.98437 0.95313,-0.34375 2.1875,-0.34375 1.25,0 2.01563,0.29687 0.78125,0.28125 1.14062,0.73438 0.375,0.4375 0.51563,1.10937 0.0781,0.42188 0.0781,1.51563 v 2.1875 q 0,2.28126 0.10938,2.89064 0.10937,0.59375 0.40625,1.15625 h -1.70313 q -0.26562,-0.51563 -0.32812,-1.1875 z m -0.14063,-3.67189 q -0.89062,0.375 -2.67187,0.625 -1.01563,0.14062 -1.4375,0.32812 -0.42188,0.1875 -0.65625,0.53125 -0.21875,0.34375 -0.21875,0.78125 0,0.65627 0.5,1.09377 0.5,0.4375 1.45312,0.4375 0.9375,0 1.67188,-0.40625 0.75,-0.42188 1.09375,-1.14064 0.26562,-0.5625 0.26562,-1.64063 z m 10.46947,4.85939 v -1.21875 q -0.90625,1.4375 -2.70312,1.4375 -1.15625,0 -2.125,-0.64063 -0.96875,-0.64062 -1.5,-1.78125 -0.53125,-1.14064 -0.53125,-2.62501 0,-1.45313 0.48437,-2.625 0.48438,-1.1875 1.4375,-1.8125 0.96875,-0.625 2.17188,-0.625 0.875,0 1.54687,0.375 0.6875,0.35937 1.10938,0.95312 v -4.79687 h 1.64062 v 13.35939 z m -5.17187,-4.82814 q 0,1.85937 0.78125,2.78126 0.78125,0.92188 1.84375,0.92188 1.07812,0 1.82812,-0.875 0.75,-0.89064 0.75,-2.68752 0,-1.98437 -0.76562,-2.90625 -0.76563,-0.9375 -1.89063,-0.9375 -1.07812,0 -1.8125,0.89063 -0.73437,0.89062 -0.73437,2.8125 z"
     fill-rule="nonzero"
     id="path51" />
  <path
     fill="#000000"
     fill-opacity="0"
     d="m 91.63744,133.52815 v 0 c 2.82759,2.82758 4.3149,6.76379 4.13475,10.94278 -0.18016,4.17895 -2.01302,8.2583 -5.09538,11.34067 L 80.0154,145.15019 Z"
     fill-rule="evenodd"
     id="path53" />
  <path
     fill="#000000"
     fill-opacity="0"
     d="m 91.63744,133.52815 v 0 c 2.82759,2.82758 4.3149,6.76379 4.13475,10.94278 -0.18016,4.17895 -2.01302,8.2583 -5.09538,11.34067"
     fill-rule="evenodd"
     id="path55" />
  <path
     stroke="#595959"
     stroke-width="3"
     stroke-linejoin="round"
     stroke-linecap="butt"
     d="m 91.63744,133.52815 v 0 c 2.82759,2.82758 4.3149,6.76379 4.13475,10.94278 -0.18016,4.17895 -2.01302,8.2583 -5.09538,11.34067"
     fill-rule="evenodd"
     id="path57" />
  <path
     fill="#000000"
     fill-opacity="0"
     d="m 90.22734,177.97187 v 0 c -2.82759,-2.82761 -4.3149,-6.76382 -4.13474,-10.94278 0.18015,-4.17899 2.01301,-8.25833 5.09537,-11.3407 l 10.66141,10.66141 z"
     fill-rule="evenodd"
     id="path59" />
  <path
     fill="#000000"
     fill-opacity="0"
     d="m 90.22734,177.97187 v 0 c -2.82759,-2.82761 -4.3149,-6.76382 -4.13474,-10.94278 0.18015,-4.17899 2.01301,-8.25833 5.09537,-11.3407"
     fill-rule="evenodd"
     id="path61" />
  <path
     stroke="#595959"
     stroke-width="3"
     stroke-linejoin="round"
     stroke-linecap="butt"
     d="m 90.22734,177.97187 v 0 c -2.82759,-2.82761 -4.3149,-6.76382 -4.13474,-10.94278 0.18015,-4.17899 2.01301,-8.25833 5.09537,-11.3407"
     fill-rule="evenodd"
     id="path63" />
  <path
     fill="#000000"
     fill-opacity="0"
     d="m 204.64435,24.3189 h 94.33072 v 32.85039 h -94.33072 z"
     fill-rule="evenodd"
     id="path65" />
  <path
     fill="#000000"
     fill-opacity="0"
     d="m 213.64435,34.3499 h 60.1318 v 21.45287 h -60.1318 z"
     fill-rule="nonzero"
     id="path67" />
  <path
     fill="#000000"
     d="m 214.4881,46.94203 1.65625,-0.14062 q 0.125,1 0.54687,1.64062 0.4375,0.64063 1.34375,1.04688 0.92188,0.39062 2.0625,0.39062 1,0 1.78125,-0.29687 0.78125,-0.29688 1.15625,-0.8125 0.375,-0.53125 0.375,-1.15625 0,-0.625 -0.375,-1.09375 -0.35937,-0.46875 -1.1875,-0.79688 -0.54687,-0.20312 -2.39062,-0.64062 -1.82813,-0.45313 -2.5625,-0.84375 -0.96875,-0.5 -1.4375,-1.23438 -0.46875,-0.75 -0.46875,-1.67187 0,-1 0.57812,-1.875 0.57813,-0.89063 1.67188,-1.34375 1.10937,-0.45313 2.45312,-0.45313 1.48438,0 2.60938,0.48438 1.14062,0.46875 1.75,1.40625 0.60937,0.92187 0.65625,2.09375 l -1.6875,0.125 q -0.14063,-1.26563 -0.9375,-1.90625 -0.78125,-0.65625 -2.3125,-0.65625 -1.60938,0 -2.34375,0.59375 -0.73438,0.59375 -0.73438,1.42187 0,0.71875 0.53125,1.17188 0.5,0.46875 2.65625,0.96875 2.15625,0.48437 2.95313,0.84375 1.17187,0.53125 1.71875,1.35937 0.5625,0.82813 0.5625,1.90625 0,1.0625 -0.60938,2.01563 -0.60937,0.9375 -1.75,1.46875 -1.14062,0.51562 -2.57812,0.51562 -1.8125,0 -3.04688,-0.53125 -1.21875,-0.53125 -1.92187,-1.59375 -0.6875,-1.0625 -0.71875,-2.40625 z m 16.41232,2.82813 0.23438,1.45312 q -0.6875,0.14063 -1.23438,0.14063 -0.89062,0 -1.39062,-0.28125 -0.48438,-0.28125 -0.6875,-0.73438 -0.20313,-0.46875 -0.20313,-1.9375 v -5.57812 h -1.20312 v -1.26563 h 1.20312 v -2.39062 l 1.625,-0.98438 v 3.375 h 1.65625 v 1.26563 h -1.65625 v 5.67187 q 0,0.6875 0.0781,0.89063 0.0937,0.20312 0.28125,0.32812 0.20312,0.10938 0.57812,0.10938 0.26563,0 0.71875,-0.0625 z m 7.9177,0.28125 q -0.92188,0.76562 -1.76563,1.09375 -0.82812,0.3125 -1.79687,0.3125 -1.59375,0 -2.45313,-0.78125 -0.85937,-0.78125 -0.85937,-1.98438 0,-0.71875 0.32812,-1.29687 0.32813,-0.59375 0.84375,-0.9375 0.53125,-0.35938 1.1875,-0.54688 0.46875,-0.125 1.45313,-0.25 1.98437,-0.23437 2.92187,-0.5625 0.0156,-0.34375 0.0156,-0.42187 0,-1 -0.46875,-1.42188 -0.625,-0.54687 -1.875,-0.54687 -1.15625,0 -1.70313,0.40625 -0.54687,0.40625 -0.8125,1.42187 l -1.60937,-0.21875 q 0.21875,-1.01562 0.71875,-1.64062 0.5,-0.64063 1.45312,-0.98438 0.95313,-0.34375 2.1875,-0.34375 1.25,0 2.01563,0.29688 0.78125,0.28125 1.14062,0.73437 0.375,0.4375 0.51563,1.10938 0.0781,0.42187 0.0781,1.51562 v 2.1875 q 0,2.28125 0.10938,2.89063 0.10937,0.59375 0.40625,1.15625 h -1.70313 q -0.26562,-0.51563 -0.32812,-1.1875 z m -0.14063,-3.67188 q -0.89062,0.375 -2.67187,0.625 -1.01563,0.14063 -1.4375,0.32813 -0.42188,0.1875 -0.65625,0.53125 -0.21875,0.34375 -0.21875,0.78125 0,0.65625 0.5,1.09375 0.5,0.4375 1.45312,0.4375 0.9375,0 1.67188,-0.40625 0.75,-0.42188 1.09375,-1.14063 0.26562,-0.5625 0.26562,-1.64062 z m 4.1882,4.85938 v -9.67188 h 1.46875 v 1.46875 q 0.5625,-1.03125 1.03125,-1.35937 0.48438,-0.32813 1.0625,-0.32813 0.82813,0 1.6875,0.53125 l -0.5625,1.51563 q -0.60937,-0.35938 -1.20312,-0.35938 -0.54688,0 -0.96875,0.32813 -0.42188,0.32812 -0.60938,0.89062 -0.28125,0.875 -0.28125,1.92188 v 5.0625 z m 6.43143,0 V 37.87953 h 5.04688 q 1.32812,0 2.03125,0.125 0.96875,0.17188 1.64062,0.64063 0.67188,0.45312 1.07813,1.28125 0.40625,0.82812 0.40625,1.82812 0,1.70313 -1.09375,2.89063 -1.07813,1.17187 -3.92188,1.17187 h -3.42187 v 5.42188 z m 1.76563,-7 h 3.45312 q 1.71875,0 2.4375,-0.64063 0.71875,-0.64062 0.71875,-1.79687 0,-0.84375 -0.42187,-1.4375 -0.42188,-0.59375 -1.125,-0.78125 -0.4375,-0.125 -1.64063,-0.125 h -3.42187 z m 19.44357,-6.35938 h 1.76562 v 7.71875 q 0,2.01563 -0.45312,3.20313 -0.45313,1.1875 -1.64063,1.9375 -1.1875,0.73437 -3.125,0.73437 -1.875,0 -3.07812,-0.64062 -1.1875,-0.65625 -1.70313,-1.875 -0.5,-1.23438 -0.5,-3.35938 v -7.71875 h 1.76563 v 7.71875 q 0,1.73438 0.3125,2.5625 0.32812,0.8125 1.10937,1.26563 0.79688,0.45312 1.9375,0.45312 1.95313,0 2.78125,-0.89062 0.82813,-0.89063 0.82813,-3.39063 z"
     fill-rule="nonzero"
     id="path69" />
  <path
     fill="#000000"
     fill-opacity="0"
     d="m 273.77616,34.3499 v 0 21.45287 0 z"
     fill-rule="nonzero"
     id="path71" />
  <path
     fill="#000000"
     d="m 213.64435,52.45224 h 60.1318 v 1.67999 h -60.1318 z"
     fill-rule="nonzero"
     id="path73" />
  <path
     fill="#000000"
     fill-opacity="0"
     d="m 105.20078,223.33464 c 0,6.03149 47.03937,12.06299 94.07874,12.06299"
     fill-rule="evenodd"
     id="path91" />
  <path
     stroke="#595959"
     stroke-width="3"
     stroke-linejoin="round"
     stroke-linecap="butt"
     d="m 114.34003,228.04405 0.97691,0.24548 c 0.71059,0.17356 1.4542,0.34552 2.22937,0.5156 1.55039,0.34015 3.22708,0.67294 5.0186,0.99689 3.58309,0.64791 7.62554,1.26049 12.03548,1.82592 8.81989,1.13092 19.10974,2.07334 30.1346,2.73304 5.51242,0.32986 11.2086,0.58898 16.99664,0.76571 1.44699,0.0442 2.89975,0.0832 4.35681,0.11688 0.72855,0.0168 1.45816,0.0324 2.18866,0.0465 l 0.72159,0.0126"
     fill-rule="evenodd"
     id="path93" />
  <path
     fill="#595959"
     stroke="#595959"
     stroke-width="3"
     stroke-linecap="butt"
     d="m 114.34003,228.04405 4.54437,-1.45364 -9.78506,-1.24686 6.69433,7.24487 z"
     fill-rule="evenodd"
     id="path95" />
  <path
     fill="#595959"
     stroke="#595959"
     stroke-width="3"
     stroke-linecap="butt"
     d="m 188.99868,235.30267 -3.40475,3.34247 9.30007,-3.28803 -9.23776,-3.45919 z"
     fill-rule="evenodd"
     id="path97" />
  <path
     fill="#000000"
     fill-opacity="0"
     d="m 604.64438,24.3189 h 94.33069 v 32.85039 h -94.33069 z"
     fill-rule="evenodd"
     id="path111" />
  <path
     fill="#000000"
     fill-opacity="0"
     d="m 613.64438,34.3499 h 64.30396 v 21.45287 h -64.30396 z"
     fill-rule="nonzero"
     id="path113" />
  <path
     fill="#000000"
     d="m 624.61308,46.5514 1.76563,0.45312 q -0.5625,2.17188 -2,3.32813 -1.4375,1.14062 -3.53125,1.14062 -2.15625,0 -3.51563,-0.875 -1.34375,-0.89062 -2.0625,-2.54687 -0.70312,-1.67188 -0.70312,-3.59375 0,-2.07813 0.79687,-3.625 0.79688,-1.5625 2.26563,-2.35938 1.48437,-0.8125 3.25,-0.8125 2,0 3.35937,1.01563 1.375,1.01562 1.90625,2.875 l -1.73437,0.40625 q -0.46875,-1.45313 -1.35938,-2.10938 -0.875,-0.67187 -2.20312,-0.67187 -1.54688,0 -2.57813,0.73437 -1.03125,0.73438 -1.45312,1.98438 -0.42188,1.23437 -0.42188,2.5625 0,1.70312 0.5,2.96875 0.5,1.26562 1.54688,1.90625 1.04687,0.625 2.26562,0.625 1.48438,0 2.51563,-0.85938 1.03125,-0.85937 1.39062,-2.54687 z m 3.12921,-0.15625 q 0,-2.6875 1.48438,-3.96875 1.25,-1.07813 3.04687,-1.07813 2,0 3.26563,1.3125 1.26562,1.29688 1.26562,3.60938 0,1.85937 -0.5625,2.9375 -0.5625,1.0625 -1.64062,1.65625 -1.0625,0.59375 -2.32813,0.59375 -2.03125,0 -3.28125,-1.29688 -1.25,-1.3125 -1.25,-3.76562 z m 1.6875,0 q 0,1.85937 0.79688,2.79687 0.8125,0.92188 2.04687,0.92188 1.21875,0 2.03125,-0.92188 0.8125,-0.9375 0.8125,-2.84375 0,-1.79687 -0.8125,-2.71875 -0.8125,-0.92187 -2.03125,-0.92187 -1.23437,0 -2.04687,0.92187 -0.79688,0.90625 -0.79688,2.76563 z m 15.56323,4.84375 v -1.21875 q -0.90625,1.4375 -2.70312,1.4375 -1.15625,0 -2.125,-0.64063 -0.96875,-0.64062 -1.5,-1.78125 -0.53125,-1.14062 -0.53125,-2.625 0,-1.45312 0.48437,-2.625 0.48438,-1.1875 1.4375,-1.8125 0.96875,-0.625 2.17188,-0.625 0.875,0 1.54687,0.375 0.6875,0.35938 1.10938,0.95313 v -4.79688 h 1.64062 V 51.2389 Z m -5.17187,-4.82813 q 0,1.85938 0.78125,2.78125 0.78125,0.92188 1.84375,0.92188 1.07812,0 1.82812,-0.875 0.75,-0.89063 0.75,-2.6875 0,-1.98438 -0.76562,-2.90625 -0.76563,-0.9375 -1.89063,-0.9375 -1.07812,0 -1.8125,0.89062 -0.73437,0.89063 -0.73437,2.8125 z m 15.90692,1.71875 1.6875,0.20313 q -0.40625,1.48437 -1.48438,2.3125 -1.07812,0.8125 -2.76562,0.8125 -2.125,0 -3.375,-1.29688 -1.23438,-1.3125 -1.23438,-3.67187 0,-2.45313 1.25,-3.79688 1.26563,-1.34375 3.26563,-1.34375 1.9375,0 3.15625,1.32813 1.23437,1.3125 1.23437,3.70312 0,0.15625 0,0.4375 h -7.21875 q 0.0937,1.59375 0.90625,2.45313 0.8125,0.84375 2.01563,0.84375 0.90625,0 1.54687,-0.46875 0.64063,-0.48438 1.01563,-1.51563 z m -5.39063,-2.65625 h 5.40625 q -0.10937,-1.21875 -0.625,-1.82812 -0.78125,-0.95313 -2.03125,-0.95313 -1.125,0 -1.90625,0.76563 -0.76562,0.75 -0.84375,2.01562 z m 9.09449,5.76563 V 37.87952 h 1.64062 V 51.2389 Z m 10.81671,-3.10938 1.6875,0.20313 q -0.40625,1.48437 -1.48438,2.3125 -1.07812,0.8125 -2.76562,0.8125 -2.125,0 -3.375,-1.29688 -1.23438,-1.3125 -1.23438,-3.67187 0,-2.45313 1.25,-3.79688 1.26563,-1.34375 3.26563,-1.34375 1.9375,0 3.15625,1.32813 1.23437,1.3125 1.23437,3.70312 0,0.15625 0,0.4375 h -7.21875 q 0.0937,1.59375 0.90625,2.45313 0.8125,0.84375 2.01563,0.84375 0.90625,0 1.54687,-0.46875 0.64063,-0.48438 1.01563,-1.51563 z m -5.39063,-2.65625 h 5.40625 q -0.10937,-1.21875 -0.625,-1.82812 -0.78125,-0.95313 -2.03125,-0.95313 -1.125,0 -1.90625,0.76563 -0.76562,0.75 -0.84375,2.01562 z m 12.71948,4.29688 0.23438,1.45312 q -0.6875,0.14063 -1.23438,0.14063 -0.89062,0 -1.39062,-0.28125 -0.48438,-0.28125 -0.6875,-0.73438 -0.20313,-0.46875 -0.20313,-1.9375 v -5.57812 h -1.20312 v -1.26563 h 1.20312 V 39.1764 l 1.625,-0.98438 v 3.375 h 1.65625 v 1.26563 h -1.65625 v 5.67187 q 0,0.6875 0.0781,0.89063 0.0937,0.20312 0.28125,0.32812 0.20312,0.10938 0.57812,0.10938 0.26563,0 0.71875,-0.0625 z"
     fill-rule="nonzero"
     id="path115" />
  <path
     fill="#010000"
     fill-opacity="0"
     d="m 677.94828,34.3499 v 0 21.45287 0 z"
     fill-rule="nonzero"
     id="path117" />
  <path
     fill="#000000"
     d="m 613.64438,52.45224 h 64.30396 v 1.67999 h -64.30396 z"
     fill-rule="nonzero"
     id="path119" />
  <path
     fill="#000000"
     fill-opacity="0"
     d="m 29.80183,11.73884 h 121.57481 v 32.8504 H 29.80183 Z"
     fill-rule="evenodd"
     id="path121" />
  <path
     fill="#000000"
     fill-opacity="0"
     d="m 38.80183,21.76983 h 91.26806 V 43.2227 H 38.80183 Z"
     fill-rule="nonzero"
     id="path123" />
  <path
     fill="#000000"
     d="m 38.77058,38.65884 5.125,-13.35938 h 1.90625 l 5.46875,13.35938 h -2.01563 l -1.54687,-4.04688 h -5.59375 l -1.46875,4.04688 z m 3.85937,-5.48438 h 4.53125 l -1.40625,-3.70312 q -0.625,-1.6875 -0.9375,-2.76563 -0.26562,1.28125 -0.71875,2.54688 z m 9.84983,9.1875 v -13.375 h 1.48438 v 1.25 q 0.53125,-0.73437 1.1875,-1.09375 0.67188,-0.375 1.625,-0.375 1.23438,0 2.17188,0.64063 0.95312,0.625 1.4375,1.79687 0.48437,1.15625 0.48437,2.54688 0,1.48437 -0.53125,2.67187 -0.53125,1.1875 -1.54687,1.82813 -1.01563,0.625 -2.14063,0.625 -0.8125,0 -1.46875,-0.34375 -0.65625,-0.34375 -1.0625,-0.875 v 4.70312 z m 1.48438,-8.48437 q 0,1.85937 0.75,2.76562 0.76563,0.89063 1.82813,0.89063 1.09375,0 1.875,-0.92188 0.78125,-0.9375 0.78125,-2.875 0,-1.84375 -0.76563,-2.76562 -0.75,-0.92188 -1.8125,-0.92188 -1.04687,0 -1.85937,0.98438 -0.79688,0.96875 -0.79688,2.84375 z m 8.89134,8.48437 v -13.375 h 1.48438 v 1.25 q 0.53125,-0.73437 1.1875,-1.09375 0.67187,-0.375 1.625,-0.375 1.23437,0 2.17187,0.64063 0.95313,0.625 1.4375,1.79687 0.48438,1.15625 0.48438,2.54688 0,1.48437 -0.53125,2.67187 -0.53125,1.1875 -1.54688,1.82813 -1.01562,0.625 -2.14062,0.625 -0.8125,0 -1.46875,-0.34375 -0.65625,-0.34375 -1.0625,-0.875 v 4.70312 z m 1.48438,-8.48437 q 0,1.85937 0.75,2.76562 0.76562,0.89063 1.82812,0.89063 1.09375,0 1.875,-0.92188 0.78125,-0.9375 0.78125,-2.875 0,-1.84375 -0.76562,-2.76562 -0.75,-0.92188 -1.8125,-0.92188 -1.04688,0 -1.85938,0.98438 -0.79687,0.96875 -0.79687,2.84375 z m 8.84446,4.78125 V 25.29946 h 1.64063 v 13.35938 z m 4.1917,-11.46875 v -1.89063 h 1.64063 v 1.89063 z m 0,11.46875 v -9.67188 h 1.64063 v 9.67188 z m 10.45732,-3.54688 1.60938,0.21875 q -0.26563,1.65625 -1.35938,2.60938 -1.07812,0.9375 -2.67187,0.9375 -1.98438,0 -3.1875,-1.29688 -1.20313,-1.29687 -1.20313,-3.71875 0,-1.57812 0.51563,-2.75 0.51562,-1.17187 1.57812,-1.75 1.0625,-0.59375 2.3125,-0.59375 1.57813,0 2.57813,0.79688 1,0.79687 1.28125,2.26562 l -1.59375,0.23438 q -0.23438,-0.96875 -0.8125,-1.45313 -0.57813,-0.5 -1.39063,-0.5 -1.23437,0 -2.01562,0.89063 -0.78125,0.89062 -0.78125,2.8125 0,1.95312 0.75,2.84375 0.75,0.875 1.95312,0.875 0.96875,0 1.60938,-0.59375 0.65625,-0.59375 0.82812,-1.82813 z m 9.32813,2.35938 q -0.92188,0.76562 -1.76563,1.09375 -0.82812,0.3125 -1.79687,0.3125 -1.59375,0 -2.45313,-0.78125 -0.85937,-0.78125 -0.85937,-1.98438 0,-0.71875 0.32812,-1.29687 0.32813,-0.59375 0.84375,-0.9375 0.53125,-0.35938 1.1875,-0.54688 0.46875,-0.125 1.45313,-0.25 1.98437,-0.23437 2.92187,-0.5625 0.0156,-0.34375 0.0156,-0.42187 0,-1 -0.46875,-1.42188 -0.625,-0.54687 -1.875,-0.54687 -1.15625,0 -1.70313,0.40625 -0.54687,0.40625 -0.8125,1.42187 l -1.60937,-0.21875 q 0.21875,-1.01562 0.71875,-1.64062 0.5,-0.64063 1.45312,-0.98438 0.95313,-0.34375 2.1875,-0.34375 1.25,0 2.01563,0.29688 0.78125,0.28125 1.14062,0.73437 0.375,0.4375 0.51563,1.10938 0.0781,0.42187 0.0781,1.51562 v 2.1875 q 0,2.28125 0.10938,2.89063 0.10937,0.59375 0.40625,1.15625 h -1.70313 q -0.26562,-0.51563 -0.32812,-1.1875 z m -0.14063,-3.67188 q -0.89062,0.375 -2.67187,0.625 -1.01563,0.14063 -1.4375,0.32813 -0.42188,0.1875 -0.65625,0.53125 -0.21875,0.34375 -0.21875,0.78125 0,0.65625 0.5,1.09375 0.5,0.4375 1.45312,0.4375 0.9375,0 1.67188,-0.40625 0.75,-0.42188 1.09375,-1.14063 0.26562,-0.5625 0.26562,-1.64062 z m 7.78197,3.39063 0.23437,1.45312 q -0.6875,0.14063 -1.23437,0.14063 -0.89063,0 -1.39063,-0.28125 -0.48437,-0.28125 -0.6875,-0.73438 -0.20312,-0.46875 -0.20312,-1.9375 v -5.57812 h -1.20313 v -1.26563 h 1.20313 v -2.39062 l 1.625,-0.98438 v 3.375 h 1.65625 v 1.26563 h -1.65625 v 5.67187 q 0,0.6875 0.0781,0.89063 0.0937,0.20312 0.28125,0.32812 0.20313,0.10938 0.57813,0.10938 0.26562,0 0.71875,-0.0625 z m 1.60518,-10 v -1.89063 h 1.64062 v 1.89063 z m 0,11.46875 v -9.67188 h 1.64062 v 9.67188 z m 3.53544,-4.84375 q 0,-2.6875 1.48438,-3.96875 1.25,-1.07813 3.04687,-1.07813 2,0 3.26563,1.3125 1.26562,1.29688 1.26562,3.60938 0,1.85937 -0.5625,2.9375 -0.5625,1.0625 -1.64062,1.65625 -1.0625,0.59375 -2.32813,0.59375 -2.03125,0 -3.28125,-1.29688 -1.25,-1.3125 -1.25,-3.76562 z m 1.6875,0 q 0,1.85937 0.79688,2.79687 0.8125,0.92188 2.04687,0.92188 1.21875,0 2.03125,-0.92188 0.8125,-0.9375 0.8125,-2.84375 0,-1.79687 -0.8125,-2.71875 -0.8125,-0.92187 -2.03125,-0.92187 -1.23437,0 -2.04687,0.92187 -0.79688,0.90625 -0.79688,2.76563 z m 9.2976,4.84375 v -9.67188 h 1.46875 v 1.375 q 1.0625,-1.59375 3.07812,-1.59375 0.875,0 1.60938,0.3125 0.73437,0.3125 1.09375,0.82813 0.375,0.5 0.51562,1.20312 0.0937,0.45313 0.0937,1.59375 v 5.95313 h -1.64062 v -5.89063 q 0,-1 -0.20313,-1.48437 -0.1875,-0.5 -0.67187,-0.79688 -0.48438,-0.29687 -1.14063,-0.29687 -1.04687,0 -1.8125,0.67187 -0.75,0.65625 -0.75,2.51563 v 5.28125 z"
     fill-rule="nonzero"
     id="path125" />
  <path
     fill="#000000"
     fill-opacity="0"
     d="m 130.06989,21.76983 v 0 21.45287 0 z"
     fill-rule="nonzero"
     id="path127" />
  <path
     fill="#000000"
     d="m 38.80183,39.87217 h 91.26806 v 1.68001 H 38.80183 Z"
     fill-rule="nonzero"
     id="path129" />
</svg>
