<?xml version="1.0" encoding="UTF-8" standalone="no"?>
<svg
   xmlns:dc="http://purl.org/dc/elements/1.1/"
   xmlns:cc="http://creativecommons.org/ns#"
   xmlns:rdf="http://www.w3.org/1999/02/22-rdf-syntax-ns#"
   xmlns:svg="http://www.w3.org/2000/svg"
   xmlns="http://www.w3.org/2000/svg"
   xmlns:sodipodi="http://sodipodi.sourceforge.net/DTD/sodipodi-0.dtd"
   xmlns:inkscape="http://www.inkscape.org/namespaces/inkscape"
   version="1.1"
   viewBox="0 0 681.00013 393.49655"
   fill="none"
   stroke="none"
   stroke-linecap="square"
   stroke-miterlimit="10"
   id="svg137"
   sodipodi:docname="task.svg"
   inkscape:version="1.0.1 (3bc2e813f5, 2020-09-07)"
   width="681.00012"
   height="393.49655"
   inkscape:export-filename="/home/mirko/Task-based-parallelism/content/img/task.png"
   inkscape:export-xdpi="120"
   inkscape:export-ydpi="120">
  <metadata
     id="metadata143">
    <rdf:RDF>
      <cc:Work
         rdf:about="">
        <dc:format>image/svg+xml</dc:format>
        <dc:type
           rdf:resource="http://purl.org/dc/dcmitype/StillImage" />
        <dc:title></dc:title>
      </cc:Work>
    </rdf:RDF>
  </metadata>
  <defs
     id="defs141">
    <marker
       style="overflow:visible"
       id="marker2695"
       refX="0"
       refY="0"
       orient="auto"
       inkscape:stockid="Arrow1Mend"
       inkscape:isstock="true">
      <path
         transform="matrix(-0.4,0,0,-0.4,-4,0)"
         style="fill:#000000;fill-opacity:1;fill-rule:evenodd;stroke:#000000;stroke-width:1pt;stroke-opacity:1"
         d="M 0,0 5,-5 -12.5,0 5,5 Z"
         id="path2693" />
    </marker>
    <marker
       style="overflow:visible"
       id="marker2539"
       refX="0"
       refY="0"
       orient="auto"
       inkscape:stockid="Arrow1Mend"
       inkscape:isstock="true"
       inkscape:collect="always">
      <path
         transform="matrix(-0.4,0,0,-0.4,-4,0)"
         style="fill:#000000;fill-opacity:1;fill-rule:evenodd;stroke:#000000;stroke-width:1pt;stroke-opacity:1"
         d="M 0,0 5,-5 -12.5,0 5,5 Z"
         id="path2537" />
    </marker>
    <marker
       style="overflow:visible"
       id="marker2173"
       refX="0"
       refY="0"
       orient="auto"
       inkscape:stockid="Arrow1Mend"
       inkscape:isstock="true">
      <path
         transform="matrix(-0.4,0,0,-0.4,-4,0)"
         style="fill:#000000;fill-opacity:1;fill-rule:evenodd;stroke:#000000;stroke-width:1pt;stroke-opacity:1"
         d="M 0,0 5,-5 -12.5,0 5,5 Z"
         id="path2171" />
    </marker>
    <marker
       style="overflow:visible"
       id="marker2133"
       refX="0"
       refY="0"
       orient="auto"
       inkscape:stockid="Arrow1Mend"
       inkscape:isstock="true"
       inkscape:collect="always">
      <path
         transform="matrix(-0.4,0,0,-0.4,-4,0)"
         style="fill:#000000;fill-opacity:1;fill-rule:evenodd;stroke:#000000;stroke-width:1pt;stroke-opacity:1"
         d="M 0,0 5,-5 -12.5,0 5,5 Z"
         id="path2131" />
    </marker>
  </defs>
  <sodipodi:namedview
     pagecolor="#ffffff"
     bordercolor="#666666"
     borderopacity="1"
     objecttolerance="10"
     gridtolerance="10"
     guidetolerance="10"
     inkscape:pageopacity="0"
     inkscape:pageshadow="2"
     inkscape:window-width="3840"
     inkscape:window-height="2067"
     id="namedview139"
     showgrid="false"
     inkscape:zoom="2.7148149"
     inkscape:cx="289.4952"
     inkscape:cy="245.29839"
     inkscape:window-x="0"
     inkscape:window-y="0"
     inkscape:window-maximized="1"
     inkscape:current-layer="svg137"
     fit-margin-top="0"
     fit-margin-left="0"
     fit-margin-right="0"
     fit-margin-bottom="0"
     inkscape:document-rotation="0" />
  <clipPath
     id="g24d203dcf6_0_550.0">
    <path
       d="M 0,0 H 960 V 540 H 0 Z"
       clip-rule="nonzero"
       id="path2" />
  </clipPath>
  <path
     fill="#d9ead3"
     d="M 0,62.817676 H 481.49824 V 329.67819 H 0 Z"
     fill-rule="evenodd"
     id="path15"
     style="fill:#de8787;stroke-width:0.999999" />
  <g
     id="g924"
     transform="matrix(1.8231295,0,0,1.283952,11.217925,311.85339)"
     style="stroke-width:2.67979;stroke-miterlimit:10;stroke-dasharray:none">
    <path
       fill="#000000"
       fill-opacity="0"
       d="m 125.43799,-187.41893 v 0 c 2.82759,2.82758 4.3149,6.76379 4.13475,10.94278 -0.18016,4.17895 -2.01302,8.2583 -5.09538,11.34067 l -10.66141,-10.66141 z"
       fill-rule="evenodd"
       id="path912"
       style="stroke-width:2.67979;stroke-miterlimit:10;stroke-dasharray:none" />
    <path
       fill="#000000"
       fill-opacity="0"
       d="m 125.43799,-187.41893 v 0 c 2.82759,2.82758 4.3149,6.76379 4.13475,10.94278 -0.18016,4.17895 -2.01302,8.2583 -5.09538,11.34067"
       fill-rule="evenodd"
       id="path914"
       style="stroke-width:2.67979;stroke-miterlimit:10;stroke-dasharray:none" />
    <path
       stroke="#595959"
       stroke-width="1.0951"
       stroke-linejoin="round"
       stroke-linecap="butt"
       d="m 125.43799,-187.41893 v 0 c 2.82759,2.82758 4.3149,6.76379 4.13475,10.94278 -0.18016,4.17895 -2.01302,8.2583 -5.09538,11.34067"
       fill-rule="evenodd"
       id="path916"
       style="stroke-width:2.67979;stroke-miterlimit:10;stroke-dasharray:none" />
    <path
       fill="#000000"
       fill-opacity="0"
       d="m 124.02789,-142.97521 v 0 c -2.82759,-2.82761 -4.3149,-6.76382 -4.13474,-10.94278 0.18015,-4.17899 2.01301,-8.25833 5.09537,-11.3407 l 10.66141,10.66141 z"
       fill-rule="evenodd"
       id="path918"
       style="stroke-width:2.67979;stroke-miterlimit:10;stroke-dasharray:none" />
    <path
       fill="#000000"
       fill-opacity="0"
       d="m 124.02789,-142.97521 v 0 c -2.82759,-2.82761 -4.3149,-6.76382 -4.13474,-10.94278 0.18015,-4.17899 2.01301,-8.25833 5.09537,-11.3407"
       fill-rule="evenodd"
       id="path920"
       style="stroke-width:2.67979;stroke-miterlimit:10;stroke-dasharray:none" />
    <path
       stroke="#595959"
       stroke-width="1.0951"
       stroke-linejoin="round"
       stroke-linecap="butt"
       d="m 124.02789,-142.97521 v 0 c -2.82759,-2.82761 -4.3149,-6.76382 -4.13474,-10.94278 0.18015,-4.17899 2.01301,-8.25833 5.09537,-11.3407"
       fill-rule="evenodd"
       id="path922"
       style="stroke-width:2.67979;stroke-miterlimit:10;stroke-dasharray:none" />
  </g>
  <text
     xml:space="preserve"
     style="font-style:normal;font-weight:normal;font-size:25.2647px;line-height:1.25;font-family:sans-serif;letter-spacing:0px;word-spacing:0px;fill:#000000;fill-opacity:1;stroke:none;stroke-width:0.999997"
     x="8.1173658"
     y="90.099373"
     id="text984"><tspan
       sodipodi:role="line"
       id="tspan982"
       x="8.1173658"
       y="90.099373"
       style="stroke-width:0.999997">parallel region</tspan></text>
  <g
     id="g1615"
     transform="translate(39.459209,-230.03957)"
     style="opacity:1">
    <path
       fill="#93c47d"
       d="m 152.21998,383.79075 v 0 c 0,-11.06311 20.12958,-20.03149 44.96063,-20.03149 v 0 c 24.83106,0 44.96063,8.96838 44.96063,20.03149 v 0 c 0,11.06308 -20.12957,20.03149 -44.96063,20.03149 v 0 c -24.83105,0 -44.96063,-8.96841 -44.96063,-20.03149 z"
       fill-rule="evenodd"
       id="path89" />
    <path
       stroke="#595959"
       stroke-width="1"
       stroke-linejoin="round"
       stroke-linecap="butt"
       d="m 152.21998,383.79075 v 0 c 0,-11.06311 20.12958,-20.03149 44.96063,-20.03149 v 0 c 24.83106,0 44.96063,8.96838 44.96063,20.03149 v 0 c 0,11.06308 -20.12957,20.03149 -44.96063,20.03149 v 0 c -24.83105,0 -44.96063,-8.96841 -44.96063,-20.03149 z"
       fill-rule="evenodd"
       id="path91" />
    <path
       fill="#000000"
       fill-opacity="0"
       d="m 152.21738,367.36555 h 89.92127 v 32.8504 h -89.92127 z"
       fill-rule="evenodd"
       id="path97" />
    <text
       xml:space="preserve"
       style="font-style:normal;font-weight:normal;font-size:12.8452px;line-height:1.25;font-family:sans-serif;letter-spacing:0px;word-spacing:0px;fill:#000000;fill-opacity:1;stroke:none;stroke-width:1"
       x="183.11183"
       y="387.99832"
       id="text882"><tspan
         sodipodi:role="line"
         id="tspan880"
         x="183.11183"
         y="387.99832"
         style="stroke-width:1">Task</tspan></text>
  </g>
  <g
     id="g1663"
     transform="translate(135.4592,-230.03957)"
     style="opacity:0.490116">
    <path
       fill="#93c47d"
       d="m 152.21998,383.79075 v 0 c 0,-11.06311 20.12958,-20.03149 44.96063,-20.03149 v 0 c 24.83106,0 44.96063,8.96838 44.96063,20.03149 v 0 c 0,11.06308 -20.12957,20.03149 -44.96063,20.03149 v 0 c -24.83105,0 -44.96063,-8.96841 -44.96063,-20.03149 z"
       fill-rule="evenodd"
       id="path1653" />
    <path
       stroke="#595959"
       stroke-width="1"
       stroke-linejoin="round"
       stroke-linecap="butt"
       d="m 152.21998,383.79075 v 0 c 0,-11.06311 20.12958,-20.03149 44.96063,-20.03149 v 0 c 24.83106,0 44.96063,8.96838 44.96063,20.03149 v 0 c 0,11.06308 -20.12957,20.03149 -44.96063,20.03149 v 0 c -24.83105,0 -44.96063,-8.96841 -44.96063,-20.03149 z"
       fill-rule="evenodd"
       id="path1655" />
    <path
       fill="#000000"
       fill-opacity="0"
       d="m 152.21738,367.36555 h 89.92127 v 32.8504 h -89.92127 z"
       fill-rule="evenodd"
       id="path1657" />
    <text
       xml:space="preserve"
       style="font-style:normal;font-weight:normal;font-size:12.8452px;line-height:1.25;font-family:sans-serif;letter-spacing:0px;word-spacing:0px;fill:#000000;fill-opacity:1;stroke:none;stroke-width:1"
       x="183.11183"
       y="387.99832"
       id="text1661"><tspan
         sodipodi:role="line"
         id="tspan1659"
         x="183.11183"
         y="387.99832"
         style="stroke-width:1">Task</tspan></text>
  </g>
  <g
     id="g1675"
     transform="translate(231.4592,-230.03957)"
     style="opacity:0.490116">
    <path
       fill="#93c47d"
       d="m 152.21998,383.79075 v 0 c 0,-11.06311 20.12958,-20.03149 44.96063,-20.03149 v 0 c 24.83106,0 44.96063,8.96838 44.96063,20.03149 v 0 c 0,11.06308 -20.12957,20.03149 -44.96063,20.03149 v 0 c -24.83105,0 -44.96063,-8.96841 -44.96063,-20.03149 z"
       fill-rule="evenodd"
       id="path1665" />
    <path
       stroke="#595959"
       stroke-width="1"
       stroke-linejoin="round"
       stroke-linecap="butt"
       d="m 152.21998,383.79075 v 0 c 0,-11.06311 20.12958,-20.03149 44.96063,-20.03149 v 0 c 24.83106,0 44.96063,8.96838 44.96063,20.03149 v 0 c 0,11.06308 -20.12957,20.03149 -44.96063,20.03149 v 0 c -24.83105,0 -44.96063,-8.96841 -44.96063,-20.03149 z"
       fill-rule="evenodd"
       id="path1667" />
    <path
       fill="#000000"
       fill-opacity="0"
       d="m 152.21738,367.36555 h 89.92127 v 32.8504 h -89.92127 z"
       fill-rule="evenodd"
       id="path1669" />
    <text
       xml:space="preserve"
       style="font-style:normal;font-weight:normal;font-size:12.8452px;line-height:1.25;font-family:sans-serif;letter-spacing:0px;word-spacing:0px;fill:#000000;fill-opacity:1;stroke:none;stroke-width:1"
       x="183.11183"
       y="387.99832"
       id="text1673"><tspan
         sodipodi:role="line"
         id="tspan1671"
         x="183.11183"
         y="387.99832"
         style="stroke-width:1">Task</tspan></text>
  </g>
  <g
     id="g1689"
     transform="matrix(1.8231295,0,0,1.283952,107.21792,311.85339)"
     style="stroke-width:2.67979;stroke-miterlimit:10;stroke-dasharray:none">
    <path
       fill="#000000"
       fill-opacity="0"
       d="m 125.43799,-187.41893 v 0 c 2.82759,2.82758 4.3149,6.76379 4.13475,10.94278 -0.18016,4.17895 -2.01302,8.2583 -5.09538,11.34067 l -10.66141,-10.66141 z"
       fill-rule="evenodd"
       id="path1677"
       style="stroke-width:2.67979;stroke-miterlimit:10;stroke-dasharray:none" />
    <path
       fill="#000000"
       fill-opacity="0"
       d="m 125.43799,-187.41893 v 0 c 2.82759,2.82758 4.3149,6.76379 4.13475,10.94278 -0.18016,4.17895 -2.01302,8.2583 -5.09538,11.34067"
       fill-rule="evenodd"
       id="path1679"
       style="stroke-width:2.67979;stroke-miterlimit:10;stroke-dasharray:none" />
    <path
       stroke="#595959"
       stroke-width="1.0951"
       stroke-linejoin="round"
       stroke-linecap="butt"
       d="m 125.43799,-187.41893 v 0 c 2.82759,2.82758 4.3149,6.76379 4.13475,10.94278 -0.18016,4.17895 -2.01302,8.2583 -5.09538,11.34067"
       fill-rule="evenodd"
       id="path1681"
       style="stroke-width:2.67979;stroke-miterlimit:10;stroke-dasharray:none" />
    <path
       fill="#000000"
       fill-opacity="0"
       d="m 124.02789,-142.97521 v 0 c -2.82759,-2.82761 -4.3149,-6.76382 -4.13474,-10.94278 0.18015,-4.17899 2.01301,-8.25833 5.09537,-11.3407 l 10.66141,10.66141 z"
       fill-rule="evenodd"
       id="path1683"
       style="stroke-width:2.67979;stroke-miterlimit:10;stroke-dasharray:none" />
    <path
       fill="#000000"
       fill-opacity="0"
       d="m 124.02789,-142.97521 v 0 c -2.82759,-2.82761 -4.3149,-6.76382 -4.13474,-10.94278 0.18015,-4.17899 2.01301,-8.25833 5.09537,-11.3407"
       fill-rule="evenodd"
       id="path1685"
       style="stroke-width:2.67979;stroke-miterlimit:10;stroke-dasharray:none" />
    <path
       stroke="#595959"
       stroke-width="1.0951"
       stroke-linejoin="round"
       stroke-linecap="butt"
       d="m 124.02789,-142.97521 v 0 c -2.82759,-2.82761 -4.3149,-6.76382 -4.13474,-10.94278 0.18015,-4.17899 2.01301,-8.25833 5.09537,-11.3407"
       fill-rule="evenodd"
       id="path1687"
       style="stroke-width:2.67979;stroke-miterlimit:10;stroke-dasharray:none" />
  </g>
  <g
     id="g1703"
     transform="matrix(1.8231295,0,0,1.283952,205.21792,311.85339)"
     style="stroke-width:2.67979;stroke-miterlimit:10;stroke-dasharray:none">
    <path
       fill="#000000"
       fill-opacity="0"
       d="m 125.43799,-187.41893 v 0 c 2.82759,2.82758 4.3149,6.76379 4.13475,10.94278 -0.18016,4.17895 -2.01302,8.2583 -5.09538,11.34067 l -10.66141,-10.66141 z"
       fill-rule="evenodd"
       id="path1691"
       style="stroke-width:2.67979;stroke-miterlimit:10;stroke-dasharray:none" />
    <path
       fill="#000000"
       fill-opacity="0"
       d="m 125.43799,-187.41893 v 0 c 2.82759,2.82758 4.3149,6.76379 4.13475,10.94278 -0.18016,4.17895 -2.01302,8.2583 -5.09538,11.34067"
       fill-rule="evenodd"
       id="path1693"
       style="stroke-width:2.67979;stroke-miterlimit:10;stroke-dasharray:none" />
    <path
       stroke="#595959"
       stroke-width="1.0951"
       stroke-linejoin="round"
       stroke-linecap="butt"
       d="m 125.43799,-187.41893 v 0 c 2.82759,2.82758 4.3149,6.76379 4.13475,10.94278 -0.18016,4.17895 -2.01302,8.2583 -5.09538,11.34067"
       fill-rule="evenodd"
       id="path1695"
       style="stroke-width:2.67979;stroke-miterlimit:10;stroke-dasharray:none" />
    <path
       fill="#000000"
       fill-opacity="0"
       d="m 124.02789,-142.97521 v 0 c -2.82759,-2.82761 -4.3149,-6.76382 -4.13474,-10.94278 0.18015,-4.17899 2.01301,-8.25833 5.09537,-11.3407 l 10.66141,10.66141 z"
       fill-rule="evenodd"
       id="path1697"
       style="stroke-width:2.67979;stroke-miterlimit:10;stroke-dasharray:none" />
    <path
       fill="#000000"
       fill-opacity="0"
       d="m 124.02789,-142.97521 v 0 c -2.82759,-2.82761 -4.3149,-6.76382 -4.13474,-10.94278 0.18015,-4.17899 2.01301,-8.25833 5.09537,-11.3407"
       fill-rule="evenodd"
       id="path1699"
       style="stroke-width:2.67979;stroke-miterlimit:10;stroke-dasharray:none" />
    <path
       stroke="#595959"
       stroke-width="1.0951"
       stroke-linejoin="round"
       stroke-linecap="butt"
       d="m 124.02789,-142.97521 v 0 c -2.82759,-2.82761 -4.3149,-6.76382 -4.13474,-10.94278 0.18015,-4.17899 2.01301,-8.25833 5.09537,-11.3407"
       fill-rule="evenodd"
       id="path1701"
       style="stroke-width:2.67979;stroke-miterlimit:10;stroke-dasharray:none" />
  </g>
  <g
     id="g1717"
     transform="matrix(1.8231295,0,0,1.283952,11.217925,241.85339)"
     style="stroke-width:2.67979;stroke-miterlimit:10;stroke-dasharray:none">
    <path
       fill="#000000"
       fill-opacity="0"
       d="m 125.43799,-187.41893 v 0 c 2.82759,2.82758 4.3149,6.76379 4.13475,10.94278 -0.18016,4.17895 -2.01302,8.2583 -5.09538,11.34067 l -10.66141,-10.66141 z"
       fill-rule="evenodd"
       id="path1705"
       style="stroke-width:2.67979;stroke-miterlimit:10;stroke-dasharray:none" />
    <path
       fill="#000000"
       fill-opacity="0"
       d="m 125.43799,-187.41893 v 0 c 2.82759,2.82758 4.3149,6.76379 4.13475,10.94278 -0.18016,4.17895 -2.01302,8.2583 -5.09538,11.34067"
       fill-rule="evenodd"
       id="path1707"
       style="stroke-width:2.67979;stroke-miterlimit:10;stroke-dasharray:none" />
    <path
       stroke="#595959"
       stroke-width="1.0951"
       stroke-linejoin="round"
       stroke-linecap="butt"
       d="m 125.43799,-187.41893 v 0 c 2.82759,2.82758 4.3149,6.76379 4.13475,10.94278 -0.18016,4.17895 -2.01302,8.2583 -5.09538,11.34067"
       fill-rule="evenodd"
       id="path1709"
       style="stroke-width:2.67979;stroke-miterlimit:10;stroke-dasharray:none" />
    <path
       fill="#000000"
       fill-opacity="0"
       d="m 124.02789,-142.97521 v 0 c -2.82759,-2.82761 -4.3149,-6.76382 -4.13474,-10.94278 0.18015,-4.17899 2.01301,-8.25833 5.09537,-11.3407 l 10.66141,10.66141 z"
       fill-rule="evenodd"
       id="path1711"
       style="stroke-width:2.67979;stroke-miterlimit:10;stroke-dasharray:none" />
    <path
       fill="#000000"
       fill-opacity="0"
       d="m 124.02789,-142.97521 v 0 c -2.82759,-2.82761 -4.3149,-6.76382 -4.13474,-10.94278 0.18015,-4.17899 2.01301,-8.25833 5.09537,-11.3407"
       fill-rule="evenodd"
       id="path1713"
       style="stroke-width:2.67979;stroke-miterlimit:10;stroke-dasharray:none" />
    <path
       stroke="#595959"
       stroke-width="1.0951"
       stroke-linejoin="round"
       stroke-linecap="butt"
       d="m 124.02789,-142.97521 v 0 c -2.82759,-2.82761 -4.3149,-6.76382 -4.13474,-10.94278 0.18015,-4.17899 2.01301,-8.25833 5.09537,-11.3407"
       fill-rule="evenodd"
       id="path1715"
       style="stroke-width:2.67979;stroke-miterlimit:10;stroke-dasharray:none" />
  </g>
  <rect
     style="fill:#ff9955;stroke:#000000;stroke-width:1.50001;stroke-miterlimit:10;stroke-dasharray:1.50001, 3;stop-color:#000000"
     id="rect1719"
     width="194.41803"
     height="265.56299"
     x="485.83206"
     y="63.94928" />
  <g
     id="g1731"
     transform="translate(341.97822,-169.70454)">
    <path
       fill="#93c47d"
       d="m 152.21998,383.79075 v 0 c 0,-11.06311 20.12958,-20.03149 44.96063,-20.03149 v 0 c 24.83106,0 44.96063,8.96838 44.96063,20.03149 v 0 c 0,11.06308 -20.12957,20.03149 -44.96063,20.03149 v 0 c -24.83105,0 -44.96063,-8.96841 -44.96063,-20.03149 z"
       fill-rule="evenodd"
       id="path1721" />
    <path
       stroke="#595959"
       stroke-width="1"
       stroke-linejoin="round"
       stroke-linecap="butt"
       d="m 152.21998,383.79075 v 0 c 0,-11.06311 20.12958,-20.03149 44.96063,-20.03149 v 0 c 24.83106,0 44.96063,8.96838 44.96063,20.03149 v 0 c 0,11.06308 -20.12957,20.03149 -44.96063,20.03149 v 0 c -24.83105,0 -44.96063,-8.96841 -44.96063,-20.03149 z"
       fill-rule="evenodd"
       id="path1723" />
    <path
       fill="#000000"
       fill-opacity="0"
       d="m 152.21738,367.36555 h 89.92127 v 32.8504 h -89.92127 z"
       fill-rule="evenodd"
       id="path1725" />
    <text
       xml:space="preserve"
       style="font-style:normal;font-weight:normal;font-size:12.8452px;line-height:1.25;font-family:sans-serif;letter-spacing:0px;word-spacing:0px;fill:#000000;fill-opacity:1;stroke:none;stroke-width:1"
       x="183.11183"
       y="387.99832"
       id="text1729"><tspan
         sodipodi:role="line"
         id="tspan1727"
         x="183.11183"
         y="387.99832"
         style="stroke-width:1">Task</tspan></text>
  </g>
  <g
     id="g1743"
     transform="translate(428.72744,-149.9537)">
    <path
       fill="#93c47d"
       d="m 152.21998,383.79075 v 0 c 0,-11.06311 20.12958,-20.03149 44.96063,-20.03149 v 0 c 24.83106,0 44.96063,8.96838 44.96063,20.03149 v 0 c 0,11.06308 -20.12957,20.03149 -44.96063,20.03149 v 0 c -24.83105,0 -44.96063,-8.96841 -44.96063,-20.03149 z"
       fill-rule="evenodd"
       id="path1733" />
    <path
       stroke="#595959"
       stroke-width="1"
       stroke-linejoin="round"
       stroke-linecap="butt"
       d="m 152.21998,383.79075 v 0 c 0,-11.06311 20.12958,-20.03149 44.96063,-20.03149 v 0 c 24.83106,0 44.96063,8.96838 44.96063,20.03149 v 0 c 0,11.06308 -20.12957,20.03149 -44.96063,20.03149 v 0 c -24.83105,0 -44.96063,-8.96841 -44.96063,-20.03149 z"
       fill-rule="evenodd"
       id="path1735" />
    <path
       fill="#000000"
       fill-opacity="0"
       d="m 152.21738,367.36555 h 89.92127 v 32.8504 h -89.92127 z"
       fill-rule="evenodd"
       id="path1737" />
    <text
       xml:space="preserve"
       style="font-style:normal;font-weight:normal;font-size:12.8452px;line-height:1.25;font-family:sans-serif;letter-spacing:0px;word-spacing:0px;fill:#000000;fill-opacity:1;stroke:none;stroke-width:1"
       x="183.11183"
       y="387.99832"
       id="text1741"><tspan
         sodipodi:role="line"
         id="tspan1739"
         x="183.11183"
         y="387.99832"
         style="stroke-width:1">Task</tspan></text>
  </g>
  <text
     xml:space="preserve"
     style="font-style:normal;font-weight:normal;font-size:25.2647px;line-height:1.25;font-family:sans-serif;letter-spacing:0px;word-spacing:0px;fill:#000000;fill-opacity:1;stroke:none;stroke-width:0.999997"
     x="494.02435"
     y="90.278412"
     id="text1759"><tspan
       sodipodi:role="line"
       id="tspan1757"
       x="494.02435"
       y="90.278412"
       style="stroke-width:0.999997">task pool</tspan></text>
  <path
     style="fill:none;stroke:#000000;stroke-width:1.7;stroke-linecap:butt;stroke-linejoin:miter;stroke-miterlimit:10;stroke-dasharray:1.7, 1.7;stroke-dashoffset:0;stroke-opacity:1;marker-end:url(#marker2133)"
     d="m 337.96056,175.89813 c 0,0 27.26882,16.84208 61.52088,25.70247 34.06781,8.81273 88.0303,17.7298 88.0303,17.7298"
     id="path2129"
     sodipodi:nodetypes="csc" />
  <path
     style="fill:none;stroke:#000000;stroke-width:1.7;stroke-linecap:butt;stroke-linejoin:miter;stroke-miterlimit:10;stroke-dasharray:1.7, 1.7;stroke-dashoffset:0;stroke-opacity:1;marker-end:url(#marker2173)"
     d="m 431.35213,176.32517 c 0,0 6.98875,11.22338 15.76182,15.61907 16.08336,8.05846 40.55631,10.52466 40.55631,10.52466"
     id="path2169"
     sodipodi:nodetypes="csc" />
  <g
     id="g2459"
     transform="matrix(1.8231295,0,0,1.283952,107.21792,461.85339)"
     style="stroke-width:2.67979;stroke-miterlimit:10;stroke-dasharray:none">
    <path
       fill="#000000"
       fill-opacity="0"
       d="m 125.43799,-187.41893 v 0 c 2.82759,2.82758 4.3149,6.76379 4.13475,10.94278 -0.18016,4.17895 -2.01302,8.2583 -5.09538,11.34067 l -10.66141,-10.66141 z"
       fill-rule="evenodd"
       id="path2447"
       style="stroke-width:2.67979;stroke-miterlimit:10;stroke-dasharray:none" />
    <path
       fill="#000000"
       fill-opacity="0"
       d="m 125.43799,-187.41893 v 0 c 2.82759,2.82758 4.3149,6.76379 4.13475,10.94278 -0.18016,4.17895 -2.01302,8.2583 -5.09538,11.34067"
       fill-rule="evenodd"
       id="path2449"
       style="stroke-width:2.67979;stroke-miterlimit:10;stroke-dasharray:none" />
    <path
       stroke="#595959"
       stroke-width="1.0951"
       stroke-linejoin="round"
       stroke-linecap="butt"
       d="m 125.43799,-187.41893 v 0 c 2.82759,2.82758 4.3149,6.76379 4.13475,10.94278 -0.18016,4.17895 -2.01302,8.2583 -5.09538,11.34067"
       fill-rule="evenodd"
       id="path2451"
       style="stroke-width:2.67979;stroke-miterlimit:10;stroke-dasharray:none" />
    <path
       fill="#000000"
       fill-opacity="0"
       d="m 124.02789,-142.97521 v 0 c -2.82759,-2.82761 -4.3149,-6.76382 -4.13474,-10.94278 0.18015,-4.17899 2.01301,-8.25833 5.09537,-11.3407 l 10.66141,10.66141 z"
       fill-rule="evenodd"
       id="path2453"
       style="stroke-width:2.67979;stroke-miterlimit:10;stroke-dasharray:none" />
    <path
       fill="#000000"
       fill-opacity="0"
       d="m 124.02789,-142.97521 v 0 c -2.82759,-2.82761 -4.3149,-6.76382 -4.13474,-10.94278 0.18015,-4.17899 2.01301,-8.25833 5.09537,-11.3407"
       fill-rule="evenodd"
       id="path2455"
       style="stroke-width:2.67979;stroke-miterlimit:10;stroke-dasharray:none" />
    <path
       stroke="#595959"
       stroke-width="1.0951"
       stroke-linejoin="round"
       stroke-linecap="butt"
       d="m 124.02789,-142.97521 v 0 c -2.82759,-2.82761 -4.3149,-6.76382 -4.13474,-10.94278 0.18015,-4.17899 2.01301,-8.25833 5.09537,-11.3407"
       fill-rule="evenodd"
       id="path2457"
       style="stroke-width:2.67979;stroke-miterlimit:10;stroke-dasharray:none" />
  </g>
  <g
     id="g2473"
     transform="matrix(1.8231295,0,0,1.283952,205.21792,461.85339)"
     style="stroke-width:2.67979;stroke-miterlimit:10;stroke-dasharray:none">
    <path
       fill="#000000"
       fill-opacity="0"
       d="m 125.43799,-187.41893 v 0 c 2.82759,2.82758 4.3149,6.76379 4.13475,10.94278 -0.18016,4.17895 -2.01302,8.2583 -5.09538,11.34067 l -10.66141,-10.66141 z"
       fill-rule="evenodd"
       id="path2461"
       style="stroke-width:2.67979;stroke-miterlimit:10;stroke-dasharray:none" />
    <path
       fill="#000000"
       fill-opacity="0"
       d="m 125.43799,-187.41893 v 0 c 2.82759,2.82758 4.3149,6.76379 4.13475,10.94278 -0.18016,4.17895 -2.01302,8.2583 -5.09538,11.34067"
       fill-rule="evenodd"
       id="path2463"
       style="stroke-width:2.67979;stroke-miterlimit:10;stroke-dasharray:none" />
    <path
       stroke="#595959"
       stroke-width="1.0951"
       stroke-linejoin="round"
       stroke-linecap="butt"
       d="m 125.43799,-187.41893 v 0 c 2.82759,2.82758 4.3149,6.76379 4.13475,10.94278 -0.18016,4.17895 -2.01302,8.2583 -5.09538,11.34067"
       fill-rule="evenodd"
       id="path2465"
       style="stroke-width:2.67979;stroke-miterlimit:10;stroke-dasharray:none" />
    <path
       fill="#000000"
       fill-opacity="0"
       d="m 124.02789,-142.97521 v 0 c -2.82759,-2.82761 -4.3149,-6.76382 -4.13474,-10.94278 0.18015,-4.17899 2.01301,-8.25833 5.09537,-11.3407 l 10.66141,10.66141 z"
       fill-rule="evenodd"
       id="path2467"
       style="stroke-width:2.67979;stroke-miterlimit:10;stroke-dasharray:none" />
    <path
       fill="#000000"
       fill-opacity="0"
       d="m 124.02789,-142.97521 v 0 c -2.82759,-2.82761 -4.3149,-6.76382 -4.13474,-10.94278 0.18015,-4.17899 2.01301,-8.25833 5.09537,-11.3407"
       fill-rule="evenodd"
       id="path2469"
       style="stroke-width:2.67979;stroke-miterlimit:10;stroke-dasharray:none" />
    <path
       stroke="#595959"
       stroke-width="1.0951"
       stroke-linejoin="round"
       stroke-linecap="butt"
       d="m 124.02789,-142.97521 v 0 c -2.82759,-2.82761 -4.3149,-6.76382 -4.13474,-10.94278 0.18015,-4.17899 2.01301,-8.25833 5.09537,-11.3407"
       fill-rule="evenodd"
       id="path2471"
       style="stroke-width:2.67979;stroke-miterlimit:10;stroke-dasharray:none" />
  </g>
  <g
     id="g2497"
     transform="translate(135.4592,-80.039568)"
     style="opacity:1">
    <path
       fill="#93c47d"
       d="m 152.21998,383.79075 v 0 c 0,-11.06311 20.12958,-20.03149 44.96063,-20.03149 v 0 c 24.83106,0 44.96063,8.96838 44.96063,20.03149 v 0 c 0,11.06308 -20.12957,20.03149 -44.96063,20.03149 v 0 c -24.83105,0 -44.96063,-8.96841 -44.96063,-20.03149 z"
       fill-rule="evenodd"
       id="path2487" />
    <path
       stroke="#595959"
       stroke-width="1"
       stroke-linejoin="round"
       stroke-linecap="butt"
       d="m 152.21998,383.79075 v 0 c 0,-11.06311 20.12958,-20.03149 44.96063,-20.03149 v 0 c 24.83106,0 44.96063,8.96838 44.96063,20.03149 v 0 c 0,11.06308 -20.12957,20.03149 -44.96063,20.03149 v 0 c -24.83105,0 -44.96063,-8.96841 -44.96063,-20.03149 z"
       fill-rule="evenodd"
       id="path2489" />
    <path
       fill="#000000"
       fill-opacity="0"
       d="m 152.21738,367.36555 h 89.92127 v 32.8504 h -89.92127 z"
       fill-rule="evenodd"
       id="path2491" />
    <text
       xml:space="preserve"
       style="font-style:normal;font-weight:normal;font-size:12.8452px;line-height:1.25;font-family:sans-serif;letter-spacing:0px;word-spacing:0px;fill:#000000;fill-opacity:1;stroke:none;stroke-width:1"
       x="183.11183"
       y="387.99832"
       id="text2495"><tspan
         sodipodi:role="line"
         id="tspan2493"
         x="183.11183"
         y="387.99832"
         style="stroke-width:1">Task</tspan></text>
  </g>
  <g
     id="g2509"
     transform="translate(231.4592,-80.039568)"
     style="opacity:1">
    <path
       fill="#93c47d"
       d="m 152.21998,383.79075 v 0 c 0,-11.06311 20.12958,-20.03149 44.96063,-20.03149 v 0 c 24.83106,0 44.96063,8.96838 44.96063,20.03149 v 0 c 0,11.06308 -20.12957,20.03149 -44.96063,20.03149 v 0 c -24.83105,0 -44.96063,-8.96841 -44.96063,-20.03149 z"
       fill-rule="evenodd"
       id="path2499" />
    <path
       stroke="#595959"
       stroke-width="1"
       stroke-linejoin="round"
       stroke-linecap="butt"
       d="m 152.21998,383.79075 v 0 c 0,-11.06311 20.12958,-20.03149 44.96063,-20.03149 v 0 c 24.83106,0 44.96063,8.96838 44.96063,20.03149 v 0 c 0,11.06308 -20.12957,20.03149 -44.96063,20.03149 v 0 c -24.83105,0 -44.96063,-8.96841 -44.96063,-20.03149 z"
       fill-rule="evenodd"
       id="path2501" />
    <path
       fill="#000000"
       fill-opacity="0"
       d="m 152.21738,367.36555 h 89.92127 v 32.8504 h -89.92127 z"
       fill-rule="evenodd"
       id="path2503" />
    <text
       xml:space="preserve"
       style="font-style:normal;font-weight:normal;font-size:12.8452px;line-height:1.25;font-family:sans-serif;letter-spacing:0px;word-spacing:0px;fill:#000000;fill-opacity:1;stroke:none;stroke-width:1"
       x="183.11183"
       y="387.99832"
       id="text2507"><tspan
         sodipodi:role="line"
         id="tspan2505"
         x="183.11183"
         y="387.99832"
         style="stroke-width:1">Task</tspan></text>
  </g>
  <path
     style="fill:none;stroke:#000000;stroke-width:1.7;stroke-linecap:butt;stroke-linejoin:miter;stroke-miterlimit:10;stroke-dasharray:1.7, 1.7;stroke-dashoffset:0;stroke-opacity:1;marker-end:url(#marker2539)"
     d="m 489.66282,234.89043 c 0,0 -17.1664,0.87807 -58.40312,19.19154 -47.02716,20.88505 -61.38287,31.37111 -61.38287,31.37111"
     id="path2535"
     sodipodi:nodetypes="csc" />
  <path
     style="fill:none;stroke:#000000;stroke-width:1.7;stroke-linecap:butt;stroke-linejoin:miter;stroke-miterlimit:10;stroke-dasharray:1.7, 1.7;stroke-dashoffset:0;stroke-opacity:1;marker-end:url(#marker2695)"
     d="m 488.59858,248.62837 c 0,0 -4.13397,0.60574 -14.06451,13.23962 -11.32497,14.40794 -14.78208,21.64193 -14.78208,21.64193"
     id="path2691"
     sodipodi:nodetypes="csc" />
  <g
     id="g2793"
     transform="matrix(1.8231295,0,0,1.283952,11.217925,575.85339)"
     style="stroke-width:2.67979;stroke-miterlimit:10;stroke-dasharray:none">
    <path
       fill="#000000"
       fill-opacity="0"
       d="m 125.43799,-187.41893 v 0 c 2.82759,2.82758 4.3149,6.76379 4.13475,10.94278 -0.18016,4.17895 -2.01302,8.2583 -5.09538,11.34067 l -10.66141,-10.66141 z"
       fill-rule="evenodd"
       id="path2781"
       style="stroke-width:2.67979;stroke-miterlimit:10;stroke-dasharray:none" />
    <path
       fill="#000000"
       fill-opacity="0"
       d="m 125.43799,-187.41893 v 0 c 2.82759,2.82758 4.3149,6.76379 4.13475,10.94278 -0.18016,4.17895 -2.01302,8.2583 -5.09538,11.34067"
       fill-rule="evenodd"
       id="path2783"
       style="stroke-width:2.67979;stroke-miterlimit:10;stroke-dasharray:none" />
    <path
       stroke="#595959"
       stroke-width="1.0951"
       stroke-linejoin="round"
       stroke-linecap="butt"
       d="m 125.43799,-187.41893 v 0 c 2.82759,2.82758 4.3149,6.76379 4.13475,10.94278 -0.18016,4.17895 -2.01302,8.2583 -5.09538,11.34067"
       fill-rule="evenodd"
       id="path2785"
       style="stroke-width:2.67979;stroke-miterlimit:10;stroke-dasharray:none" />
    <path
       fill="#000000"
       fill-opacity="0"
       d="m 124.02789,-142.97521 v 0 c -2.82759,-2.82761 -4.3149,-6.76382 -4.13474,-10.94278 0.18015,-4.17899 2.01301,-8.25833 5.09537,-11.3407 l 10.66141,10.66141 z"
       fill-rule="evenodd"
       id="path2787"
       style="stroke-width:2.67979;stroke-miterlimit:10;stroke-dasharray:none" />
    <path
       fill="#000000"
       fill-opacity="0"
       d="m 124.02789,-142.97521 v 0 c -2.82759,-2.82761 -4.3149,-6.76382 -4.13474,-10.94278 0.18015,-4.17899 2.01301,-8.25833 5.09537,-11.3407"
       fill-rule="evenodd"
       id="path2789"
       style="stroke-width:2.67979;stroke-miterlimit:10;stroke-dasharray:none" />
    <path
       stroke="#595959"
       stroke-width="1.0951"
       stroke-linejoin="round"
       stroke-linecap="butt"
       d="m 124.02789,-142.97521 v 0 c -2.82759,-2.82761 -4.3149,-6.76382 -4.13474,-10.94278 0.18015,-4.17899 2.01301,-8.25833 5.09537,-11.3407"
       fill-rule="evenodd"
       id="path2791"
       style="stroke-width:2.67979;stroke-miterlimit:10;stroke-dasharray:none" />
  </g>
</svg>
